<svg width="560" height="560" viewBox="0 0 560 560" fill="none" xmlns="http://www.w3.org/2000/svg"><rect width="560" height="560" fill="#EFF5FA" /><path d="M281.874 388.633C407.865 388.633 510 386.025 510 382.809C510 379.592 407.865 376.984 281.874 376.984C155.884 376.984 53.7482 379.592 53.7482 382.809C53.7482 386.025 155.884 388.633 281.874 388.633Z" fill="#B1C8E7" /><path d="M366.373 267.75C366.329 267.715 366.279 267.688 366.237 267.649C365.606 267.076 366.625 265.851 367.258 266.426C367.301 266.466 367.357 266.484 367.403 266.52C367.408 266.074 367.862 265.493 368.65 265.836C368.877 265.935 372.087 267.379 375.086 266.945C374.495 266.589 373.504 266.009 372.722 265.844C371.895 265.669 372.089 264.345 372.92 264.529C373.05 264.558 374.122 264.823 374.258 264.906C377.987 266.076 381.503 268.556 384.299 271.31C384.789 271.723 385.266 272.157 385.717 272.63C385.877 272.801 385.875 273.095 385.795 273.296C385.392 274.321 383.994 276.316 383.288 277.153C383.216 277.237 383.129 277.29 383.038 277.331C383.304 277.977 382.385 278.605 381.916 277.967C380.664 276.262 377.945 273.521 377.918 273.501C374.186 273.218 370.576 272.882 367.143 271.335C366.449 271.022 366.769 269.853 367.402 269.885C367.407 269.881 367.412 269.875 367.419 269.87C367.409 269.865 367.399 269.857 367.391 269.853C367.18 269.779 366.274 269.273 366.022 269.078C365.54 268.705 365.933 267.894 366.373 267.75Z" fill="#565B82" /><path d="M374.511 268.67C371.086 268.67 367.367 266.676 367.33 266.656C367.254 266.615 367.227 266.521 367.266 266.445C367.31 266.368 367.404 266.344 367.477 266.382C367.513 266.403 371.167 268.36 374.511 268.36C374.543 268.36 374.577 268.36 374.609 268.36H374.611C374.695 268.36 374.764 268.428 374.766 268.513C374.767 268.598 374.697 268.668 374.612 268.67C374.578 268.67 374.545 268.67 374.511 268.67Z" fill="#2A2B3C" /><path d="M373.946 270.383C371.04 270.383 366.501 267.991 366.303 267.886C366.228 267.846 366.199 267.752 366.239 267.676C366.279 267.601 366.371 267.572 366.448 267.611C366.497 267.637 371.118 270.071 373.948 270.071C374.038 270.071 374.129 270.068 374.214 270.063H374.224C374.305 270.063 374.374 270.126 374.379 270.208C374.384 270.293 374.318 270.368 374.234 270.373C374.139 270.379 374.043 270.383 373.946 270.383Z" fill="#2A2B3C" /><path d="M373.76 271.749H373.757C371.565 271.713 367.514 270.099 367.341 270.03C367.263 269.999 367.223 269.907 367.256 269.828C367.287 269.75 367.38 269.714 367.458 269.742C367.499 269.76 371.629 271.404 373.762 271.439C373.848 271.44 373.916 271.511 373.915 271.597C373.914 271.681 373.844 271.749 373.76 271.749Z" fill="#2A2B3C" /><path d="M442.501 255.316C428.814 250.145 415.413 268.104 408.55 277.519C401.688 286.933 406.426 293.859 411.241 292.763C426.349 289.324 450.796 258.449 442.501 255.316Z" fill="#EA3E72" /><path d="M384.689 264.521C395.079 266.641 408.089 273.639 415.69 277.575C421.44 280.552 411.928 293.078 409.775 292.851C407.622 292.624 387.659 288.239 377.707 278.458C377.708 278.461 382.655 264.105 384.689 264.521Z" fill="#EA3E72" /><path d="M429.11 258.264C429.11 258.264 422.28 271.984 416.313 285.216C413.9 290.566 409.777 292.853 409.777 292.853C409.777 292.853 421.019 291.437 423.414 288.811C428.342 283.408 429.11 258.264 429.11 258.264Z" fill="#17171D" /><path d="M254.312 269.687C254.338 269.65 254.372 269.619 254.399 269.58C254.778 269.005 253.715 268.257 253.335 268.833C253.309 268.873 253.268 268.899 253.24 268.936C253.144 268.589 252.662 268.229 252.112 268.656C251.952 268.78 249.718 270.556 247.257 270.827C247.648 270.43 248.311 269.776 248.894 269.49C249.512 269.186 249.08 268.192 248.462 268.506C248.366 268.554 247.574 268.98 247.484 269.07C244.779 270.74 242.519 273.387 240.884 276.102C240.584 276.524 240.297 276.959 240.041 277.42C239.949 277.587 240.012 277.815 240.117 277.956C240.65 278.673 242.173 279.945 242.906 280.455C242.981 280.506 243.06 280.529 243.139 280.542C243.065 281.099 243.923 281.401 244.16 280.81C244.794 279.227 246.371 276.537 246.388 276.515C249.279 275.537 252.063 274.542 254.453 272.638C254.936 272.254 254.438 271.407 253.946 271.56C253.946 271.56 253.935 271.555 253.928 271.553C253.936 271.546 253.942 271.539 253.95 271.533C254.101 271.434 254.711 270.854 254.868 270.652C255.169 270.262 254.691 269.71 254.312 269.687Z" fill="#EA3E72" /><path d="M247.958 272.112C247.887 272.112 247.825 272.065 247.808 271.993C247.787 271.911 247.838 271.825 247.922 271.807C250.587 271.154 253.109 268.845 253.133 268.823C253.197 268.764 253.295 268.769 253.353 268.832C253.411 268.895 253.408 268.993 253.344 269.051C253.239 269.148 250.74 271.437 247.994 272.108C247.981 272.111 247.97 272.112 247.958 272.112Z" fill="#2A2B3C" /><path d="M248.624 273.362C248.551 273.362 248.487 273.311 248.472 273.235C248.456 273.152 248.51 273.07 248.596 273.054C250.831 272.619 254.174 269.603 254.208 269.572C254.27 269.514 254.37 269.519 254.427 269.583C254.484 269.646 254.48 269.744 254.416 269.803C254.277 269.929 250.976 272.906 248.653 273.359C248.644 273.361 248.634 273.362 248.624 273.362Z" fill="#2A2B3C" /><path d="M249.276 274.339C249.208 274.339 249.146 274.294 249.127 274.224C249.104 274.143 249.153 274.056 249.235 274.035C250.912 273.573 253.826 271.455 253.857 271.434C253.924 271.382 254.022 271.397 254.073 271.468C254.124 271.537 254.109 271.634 254.04 271.684C253.918 271.772 251.05 273.857 249.318 274.332C249.303 274.337 249.288 274.339 249.276 274.339Z" fill="#2A2B3C" /><path d="M196.808 258.046C200.249 255.444 215.173 274.79 228.198 284.586C237.51 291.59 221.379 302.869 218.42 301.126C215.464 299.382 189.734 263.389 196.808 258.046Z" fill="#EDF1F4" /><path d="M241.597 273.206C226.303 273.77 223.736 283.64 218.517 287.474C213.298 291.309 217.126 301.103 219.287 301.234C221.447 301.363 243.051 295.386 246.399 281.941C246.399 281.941 243.672 273.13 241.597 273.206Z" fill="#EDF1F4" /><path d="M201.592 262.264C201.592 262.264 217.513 292.343 222.619 294.682C227.725 297.021 245.469 284.585 245.469 284.585C245.469 284.585 243.315 292.956 232.427 297.741C222.62 302.053 219.26 302.055 218.422 301.125C199.004 279.535 203.809 281.941 201.592 262.264Z" fill="#E4EAEF" /><path d="M136.174 345.718C138.333 356.585 143.878 367.117 152.798 373.904C163.367 381.968 177.025 382.501 189.803 382.537C204.702 382.588 213.373 383.804 227.888 379.945C238.246 377.191 244.834 368.966 247.475 360.271C248.109 358.211 248.517 356.14 248.703 354.093C251.049 328.477 234.858 313.317 221.535 307.338C214.254 303.629 208.002 298.492 203.139 291.794C198.487 285.393 195.075 278.049 189.318 272.479C180.771 264.218 169.395 263.039 159.731 269.439C159.123 269.836 158.54 270.258 157.957 270.717C148.118 278.385 144.063 291.471 140.514 302.909C136.235 316.628 133.321 331.391 136.174 345.718Z" fill="#EDF1F4" /><path d="M136.174 345.718C138.333 356.585 143.878 367.118 152.798 373.905C163.367 381.968 177.025 382.502 189.803 382.538C204.702 382.589 213.373 383.804 227.888 379.945C238.246 377.191 244.833 368.966 247.475 360.271C245.33 360.518 242.959 361.586 241.408 362.144C234.039 364.762 227.192 367.169 219.277 367.492C211.015 367.827 202.654 366.958 194.466 366.027C185.646 365.022 176.043 364.104 167.484 361.549C151.27 356.674 145.762 333.663 145.502 318.863C145.204 301.719 151.184 285.342 159.508 270.58C159.731 270.184 159.792 269.799 159.731 269.438C159.123 269.835 158.54 270.257 157.957 270.716C148.118 278.384 144.063 291.471 140.514 302.908C136.235 316.629 133.321 331.391 136.174 345.718Z" fill="#D9E1E8" /><path d="M257.182 368.291C257.514 372.294 258.845 375.976 258.788 376.659C258.788 376.659 258.773 376.669 258.781 376.695C258.623 378.947 258.897 380.104 259.523 381.488C261.514 378.338 263.755 377.991 267.807 378.87C271.618 379.695 279.123 381.562 278.503 381.226C276.25 379.856 271.666 378.556 269.696 376.23C269.539 376.052 269.407 375.878 269.303 375.683C269.062 375.263 267.86 372.984 266.364 367.491C265.901 367.472 260.981 368.188 257.182 368.291Z" fill="#E93E72" /><path d="M259.981 382.821C260.111 382.99 260.238 383.085 260.338 383.095C261.456 383.131 261.72 379.92 262.437 380.171C272.018 383.485 279.676 383.863 280.425 383.191C280.593 383.038 280.661 382.86 280.643 382.675C280.563 381.747 278.671 380.494 277.867 380.187C275.386 379.116 273.32 378.254 269.689 376.216C269.689 376.216 264.338 378.717 258.781 376.669C258.781 376.669 258.769 376.682 258.783 376.693C258.433 379.595 259.347 382.035 259.981 382.821Z" fill="#3F4261" /><path d="M268.971 374.977C270.891 377.518 275.469 379.141 275.469 379.141C275.469 379.141 272.055 380.576 258.787 376.66C258.787 376.66 267.326 372.801 268.971 374.977Z" fill="#E93E72" /><path d="M260.338 383.094C261.456 383.13 261.72 379.919 262.437 380.17C272.018 383.485 279.676 383.862 280.425 383.191C280.593 383.037 280.661 382.859 280.643 382.674C275.434 383.379 270.828 381.663 265.941 380.288C262.231 379.244 261.979 378.382 260.594 382.172C260.512 382.297 260.238 383.085 260.338 383.094Z" fill="#2A2B3B" /><path d="M191.499 320.697C191.587 321.402 191.747 322.042 191.982 322.654C192.038 322.813 192.106 322.96 192.173 323.105C192.282 323.388 192.415 323.644 192.573 323.898C192.653 324.057 192.747 324.202 192.851 324.347C192.97 324.528 193.087 324.698 193.219 324.867C193.348 325.024 193.479 325.193 193.62 325.349C194.061 325.854 194.563 326.32 195.112 326.734C195.777 327.256 196.501 327.725 197.287 328.143C197.539 328.282 197.806 328.422 198.072 328.549C198.439 328.734 198.83 328.905 199.208 329.065C199.209 329.077 199.22 329.065 199.22 329.065C199.662 329.26 200.116 329.442 200.569 329.61C201.035 329.791 201.502 329.959 201.979 330.116C202.922 330.43 203.888 330.715 204.854 330.99C206.309 331.396 207.763 331.777 209.142 332.148C209.756 332.311 210.358 332.486 210.948 332.651C216.659 334.315 228.799 335.268 237.518 335.801C240.343 335.971 242.806 336.089 244.572 336.187C244.735 336.193 244.896 336.199 245.045 336.207C246.464 336.279 247.335 336.321 247.458 336.339C249.508 336.735 251.797 336.849 254.036 336.655C259.518 336.167 255.398 322.698 255.333 322.254C255.32 322.23 255.318 322.205 255.318 322.18C255.173 321.304 254.819 320.461 254.279 319.636C254.266 319.623 254.266 319.611 254.253 319.6C254.188 319.503 254.134 319.418 254.081 319.358C254.042 319.311 254.03 319.273 254.016 319.275C246.564 309.122 221.618 305.693 216.118 303.673C211.878 302.13 207.34 299.927 202.706 300.881C197.877 301.88 194.479 303.991 192.685 307.819C191.224 310.901 190.796 315.088 191.499 320.697Z" fill="#343751" /><path d="M241.748 318.265C241.867 318.775 242.124 332.469 242.429 333.523C243.471 337.251 245.192 356.403 252.561 372.708C259.694 372.708 267.625 371.668 272.72 371.05C273.634 354.599 261.9 328.316 254.279 319.637C249.999 314.764 240.263 312.118 241.748 318.265Z" fill="#343751" /><path d="M240.983 317.034C240.983 317.034 247.582 320.515 248.545 323.717C249.505 326.919 246.546 354.758 246.546 354.758C246.546 354.758 253.562 342.128 251.856 329.412C250.15 316.697 244.523 315.859 244.523 315.859L240.983 317.034Z" fill="#17171D" /><path d="M225.819 361.149C224.309 364.872 223.835 368.76 223.476 369.342C223.476 369.342 223.459 369.344 223.454 369.372C222.295 371.309 222.017 372.466 221.951 373.982C225.151 372.07 227.308 372.771 230.526 375.385C233.554 377.84 239.411 382.894 239.009 382.313C237.616 380.075 234.113 376.847 233.404 373.882C233.343 373.652 233.305 373.437 233.3 373.215C233.274 372.731 233.229 370.155 234.373 364.578C233.971 364.354 229.258 362.772 225.819 361.149Z" fill="#E93E72" /><path d="M221.761 375.381C221.801 375.59 221.871 375.732 221.956 375.785C222.937 376.324 224.621 373.577 225.147 374.122C232.204 381.404 238.869 385.196 239.838 384.934C240.059 384.872 240.199 384.747 240.266 384.572C240.612 383.707 239.489 381.736 238.91 381.098C237.18 379.022 235.727 377.322 233.405 373.865C233.405 373.865 227.5 373.682 223.465 369.347C223.465 369.347 223.449 369.353 223.455 369.369C221.834 371.804 221.549 374.393 221.761 375.381Z" fill="#3F4261" /><path d="M233.322 372.436C233.888 375.571 237.242 379.086 237.242 379.086C237.242 379.086 233.546 378.826 223.473 369.344C223.473 369.344 232.836 369.753 233.322 372.436Z" fill="#E93E72" /><path d="M221.954 375.786C222.935 376.324 224.619 373.577 225.145 374.122C232.202 381.404 238.867 385.196 239.836 384.935C240.057 384.873 240.197 384.747 240.264 384.572C235.296 382.85 231.962 379.241 228.221 375.809C225.381 373.205 225.546 372.322 222.6 375.077C222.468 375.153 221.869 375.732 221.954 375.786Z" fill="#2A2B3B" /><path d="M171.768 318.228C171.83 318.935 171.966 319.58 172.177 320.201C172.227 320.363 172.289 320.511 172.351 320.661C172.45 320.945 172.574 321.205 172.723 321.466C172.799 321.627 172.884 321.776 172.984 321.925C173.097 322.111 173.208 322.285 173.331 322.458C173.455 322.621 173.579 322.795 173.717 322.955C174.139 323.476 174.621 323.959 175.155 324.394C175.801 324.938 176.508 325.436 177.276 325.881C177.524 326.031 177.785 326.179 178.045 326.317C178.405 326.515 178.791 326.701 179.162 326.875C179.162 326.887 179.174 326.875 179.174 326.875C179.609 327.086 180.055 327.284 180.501 327.469C180.96 327.667 181.418 327.855 181.891 328.027C182.821 328.375 183.776 328.697 184.73 329.007C186.169 329.466 187.609 329.9 188.974 330.322C189.581 330.508 190.178 330.708 190.759 330.894C196.404 332.767 208.499 334.169 217.195 335.025C220.013 335.298 222.468 335.509 224.231 335.67C224.392 335.683 224.553 335.695 224.702 335.706C226.117 335.832 226.985 335.905 227.107 335.931C229.143 336.402 231.424 336.601 233.671 336.489C239.167 336.204 244.526 334.008 245.99 329.033C246.275 328.128 246.411 327.122 246.399 326.018C246.387 325.608 246.362 325.162 246.312 324.715C246.3 324.69 246.3 324.665 246.3 324.639C246.188 323.76 245.866 322.904 245.357 322.059C245.345 322.047 245.345 322.034 245.331 322.023C245.269 321.924 245.219 321.837 245.17 321.775C245.132 321.725 245.12 321.689 245.106 321.689C238.037 311.269 202.421 304.346 196.999 302.125C192.819 300.425 188.365 298.056 183.701 298.837C178.837 299.656 175.363 301.642 173.429 305.4C171.855 308.429 171.272 312.597 171.768 318.228Z" fill="#3F4261" /><path d="M218.18 314.14C218.323 314.642 225.122 330.188 225.478 331.225C226.699 334.898 220.397 352.803 218.536 361.642C221.599 363.576 232.546 369.092 239.03 369.344C247.479 360.271 254.918 329.499 246.4 320.186C241.456 314.781 216.4 308.073 218.18 314.14Z" fill="#3F4261" /><path d="M173.024 321.845C173.024 321.845 165.707 309.256 155.473 304.441C155.473 304.441 171.6 312.032 178.423 323.817L173.024 321.845Z" fill="#17171D" /><path d="M171.768 318.228C171.83 318.935 171.966 319.58 172.177 320.2C172.227 320.363 172.289 320.51 172.351 320.66C172.45 320.944 172.574 321.205 172.723 321.465C172.799 321.627 172.884 321.776 172.984 321.924C173.097 322.11 173.208 322.284 173.331 322.458C173.455 322.62 173.579 322.794 173.717 322.954C174.139 323.475 174.621 323.959 175.155 324.393C175.801 324.938 176.508 325.435 177.276 325.88C177.524 326.031 177.785 326.178 178.045 326.316C178.405 326.514 178.777 326.7 179.162 326.874C179.162 326.887 179.174 326.874 179.174 326.874C179.609 327.085 180.055 327.284 180.501 327.468C180.96 327.667 181.418 327.854 181.891 328.027C182.821 328.374 183.776 328.697 184.73 329.007C186.169 329.466 187.609 329.9 188.974 330.322C189.581 330.508 190.178 330.707 190.759 330.894C196.404 332.767 208.499 334.169 217.195 335.025C220.013 335.297 224.237 335.577 224.753 337.476C225.77 341.211 221.7 346.901 218.535 361.64C220.086 362.881 228.288 366.495 228.474 366.395C227.267 356.78 236.125 342.619 233.671 336.488C231.156 330.206 223.238 328.003 217.035 326.254C210.186 324.294 203.649 323.884 201.093 323.363C185.698 320.262 177.039 303.129 177.039 303.129L173.429 305.399C171.855 308.428 171.272 312.597 171.768 318.228Z" fill="#343751" /><path d="M157.488 342.374C161.544 358.679 172.874 357.068 188.294 357.113C202.835 357.153 205.094 341.414 204.163 341.342C194.549 328.16 180.048 320.764 159.039 321.139C153.714 321.233 156.005 336.415 157.488 342.374Z" fill="#EDF1F4" /><path d="M204.164 341.342C204.164 341.342 186.087 320.903 159.039 321.138C159.039 321.138 185.203 316.307 204.164 341.342Z" fill="#17171D" /><path d="M497.929 302.908C494.381 291.47 490.325 278.383 480.487 270.716C479.903 270.257 479.321 269.835 478.712 269.438C469.048 263.038 457.672 264.217 449.125 272.478C443.369 278.048 439.957 285.392 435.305 291.793C430.443 298.491 424.189 303.628 416.908 307.337C403.585 313.316 387.394 328.476 389.74 354.092C389.926 356.139 390.336 358.21 390.968 360.27C393.611 368.966 400.197 377.191 410.555 379.944C425.071 383.802 433.741 382.587 448.641 382.536C461.418 382.5 475.077 381.967 485.647 373.903C494.565 367.116 500.11 356.584 502.269 345.717C505.125 331.391 502.209 316.629 497.929 302.908Z" fill="#EDF1F4" /><path d="M497.93 302.908C494.382 291.471 490.325 278.383 480.488 270.716C479.903 270.257 479.322 269.835 478.713 269.438C478.651 269.799 478.712 270.184 478.937 270.58C487.26 285.342 493.239 301.719 492.942 318.863C492.682 333.663 487.174 356.674 470.959 361.549C462.401 364.106 452.798 365.024 443.977 366.027C435.79 366.958 427.428 367.826 419.166 367.492C411.252 367.169 404.405 364.763 397.035 362.144C395.484 361.586 393.115 360.518 390.969 360.271C393.611 368.967 400.197 377.192 410.556 379.945C425.071 383.803 433.742 382.589 448.642 382.538C461.418 382.502 475.078 381.968 485.647 373.905C494.565 367.118 500.111 356.585 502.269 345.718C505.125 331.391 502.21 316.629 497.93 302.908Z" fill="#D6DFE6" /><path d="M465.422 321.845C465.422 321.845 472.739 309.256 482.974 304.441C482.974 304.441 466.846 312.032 460.023 323.817L465.422 321.845Z" fill="#17171D" /><path d="M167.676 311.367C167.676 311.367 173.336 263.207 184.153 258.585C192.99 254.808 201.229 257.33 202.879 266.681C204.393 275.263 207.227 286.453 208.999 290.892C210.715 295.196 216.12 303.673 216.12 303.673C216.12 303.673 189.683 315.589 167.676 311.367Z" fill="#4093F6" /><path d="M197.22 251.871C197.22 251.871 196.026 256.456 195.936 257.575C195.908 257.916 195.285 259.014 194.723 259.451C192.555 258.108 190.868 258.572 190.172 257.963C190.581 256.545 191.57 254.699 191.904 252.23C192.239 249.759 197.22 251.871 197.22 251.871Z" fill="#E93E72" /><path d="M189.857 248.252C189.857 248.252 192.341 254.591 196.519 253.865C200.697 253.138 196.229 244.597 195.554 244.477C194.878 244.354 190.648 244.305 189.857 248.252Z" fill="#E93E72" /><path d="M193.303 242.499C193.808 242.345 194.309 242.23 194.752 242.148C196.435 241.831 198.575 241.568 198.955 243.663C199.233 245.2 198.337 246.459 196.777 246.637C195.71 246.758 194.752 246.297 193.69 246.4C193.243 246.442 192.834 246.421 192.436 246.346C192.446 246.772 192.435 247.198 192.385 247.635C192.288 248.49 192.259 249.902 191.592 250.555C190.25 251.873 188.756 249.868 188.43 248.682C187.532 245.408 189.858 241.528 193.303 242.499Z" fill="#2A2B3C" /><path d="M191.855 250.803C191.628 250.638 191.336 250.968 191.566 251.133C191.923 251.392 192.461 252.216 191.881 252.53C191.362 252.811 190.409 252.229 190.837 251.624C190.999 251.395 190.669 251.103 190.506 251.335C189.875 252.229 190.861 253.206 191.811 253.013C192.986 252.773 192.571 251.321 191.855 250.803Z" fill="#FFD357" /><path d="M194.723 259.45L193.644 256.545L190.594 256.751L187.602 257.334L194.723 259.45Z" fill="#EDF1F4" /><path d="M194.723 259.451L195.622 256.412L196.916 258.202L194.723 259.451Z" fill="#EDF1F4" /><path d="M185.305 261.526C185.305 261.526 194.773 275.548 196.961 289.477C199.15 303.406 208.994 306.418 208.994 306.418C208.994 306.418 189.369 315.187 167.672 311.365C167.672 311.365 173.376 271.289 185.305 261.526Z" fill="#2483E2" /><path d="M249.043 315.392L209.006 317.883L209.115 319.637L249.152 317.146L249.043 315.392Z" fill="#AABFCE" /><path d="M209.072 319.626L190.805 317.957L190.695 316.203L208.962 317.872L209.072 319.626Z" fill="#BED0E2" /><path d="M190.695 316.204L236.042 312.048L248.998 315.382L208.962 317.872L190.695 316.204Z" fill="#DCE8EF" /><path d="M247.867 315.453L208.057 317.504L211.714 293.011L251.02 290.547L252.426 291.402L247.867 315.453Z" fill="#DCE8EF" /><path d="M248.838 315.392L208.961 317.872L212.381 294.312L252.427 291.401L248.838 315.392Z" fill="#BED0E2" /><path d="M203.339 317.078C202.714 315.327 201.803 313.836 200.525 312.497C200.538 312.461 200.535 312.423 200.543 312.387C201.676 313.057 202.73 313.9 203.668 315.17C204.142 315.814 205.069 314.989 204.599 314.35C202.905 312.054 200.848 310.689 198.18 309.749C194.434 308.43 190.548 306.19 187.741 303.357C187.665 303.281 187.581 303.233 187.497 303.204C187.289 303.066 187.008 303.027 186.754 303.214C185.195 304.352 183.635 305.492 182.077 306.631C181.75 306.869 181.83 307.415 182.147 307.615C185.146 309.512 188.308 311.26 191.54 312.73C192.434 313.137 193.272 313.41 194.237 313.63C195.362 313.887 196.724 313.952 197.722 314.608C198.921 315.398 199.471 316.729 200.015 317.964C200.28 318.562 201.055 318.299 201.162 317.785C201.164 317.791 201.168 317.799 201.172 317.805C201.407 318.369 202.106 318.176 202.287 317.727C202.619 318.306 203.591 317.78 203.339 317.078Z" fill="#EA3E72" /><path d="M201.945 314.423C201.885 314.423 201.828 314.388 201.803 314.33C201.636 313.949 200.744 312.954 200.414 312.602C200.354 312.539 200.358 312.441 200.42 312.382C200.482 312.32 200.58 312.327 200.64 312.389C200.69 312.442 201.865 313.697 202.087 314.206C202.122 314.284 202.086 314.376 202.008 314.409C201.987 314.419 201.966 314.423 201.945 314.423Z" fill="#2A2B3C" /><path d="M202.286 317.881C202.22 317.881 202.159 317.84 202.139 317.774C202.129 317.748 201.239 315.119 199.333 313.173C199.273 313.111 199.275 313.013 199.336 312.953C199.399 312.892 199.496 312.896 199.556 312.954C201.511 314.954 202.425 317.649 202.432 317.677C202.459 317.758 202.416 317.846 202.334 317.872C202.319 317.878 202.302 317.881 202.286 317.881Z" fill="#2A2B3C" /><path d="M201.16 317.939C201.098 317.939 201.04 317.902 201.017 317.841C201.005 317.815 199.932 315.138 198.549 314.061C198.482 314.009 198.471 313.911 198.523 313.843C198.576 313.776 198.673 313.765 198.741 313.817C200.19 314.946 201.261 317.614 201.306 317.727C201.337 317.805 201.298 317.897 201.219 317.928C201.2 317.936 201.18 317.939 201.16 317.939Z" fill="#2A2B3C" /><path d="M184.385 262.103C188.387 263.718 185.153 288.741 178.815 298.518C172.477 308.294 158.579 306.227 158.553 302.793C158.527 299.359 176.164 258.783 184.385 262.103Z" fill="white" /><path d="M196.099 307.071C196.099 299.305 176.276 298.358 170.306 295.854C164.334 293.349 157.901 301.669 158.9 303.588C159.9 305.509 187.328 320.764 191.896 314.267C191.896 314.267 195.582 311.714 196.099 307.071Z" fill="white" /><path d="M192.242 249.008C192.242 249.008 191.363 247.927 190.251 248.335C189.138 248.745 189.437 251.532 191.428 251.371C193.418 251.21 192.242 249.008 192.242 249.008Z" fill="#E93E72" /><path d="M107.663 380.189C120.205 380.189 130.372 379.105 130.372 377.767C130.372 376.43 120.205 375.346 107.663 375.346C95.1208 375.346 84.9534 376.43 84.9534 377.767C84.9534 379.105 95.1208 380.189 107.663 380.189Z" fill="#BED0E2" /><path d="M107.661 379.102C106.976 379.102 106.42 378.547 106.42 377.861V203.823C106.42 203.137 106.976 202.582 107.661 202.582C108.347 202.582 108.901 203.137 108.901 203.823V377.861C108.901 378.546 108.347 379.102 107.661 379.102Z" fill="#BED0E2" /><path d="M127.332 220.037C127.332 220.657 118.523 221.153 107.668 221.153C96.8009 221.153 87.9944 220.657 87.9944 220.037C87.9944 219.429 96.8022 218.932 107.668 218.932C118.523 218.932 127.332 219.429 127.332 220.037Z" fill="#3F4261" /><path opacity="0.34" d="M93.0831 217.421L50.0002 379.101H164.019L122.622 217.421H93.0831Z" fill="url(#paint0_linear_435_124)" /><path d="M127.332 220.036C127.332 219.428 118.523 218.931 107.668 218.931C96.8009 218.931 87.9944 219.427 87.9944 220.036L95.1771 191.813H120.149L127.332 220.036Z" fill="#BED0E2" /><path d="M107.661 192.694C114.56 192.694 120.152 192.3 120.152 191.814C120.152 191.328 114.56 190.935 107.661 190.935C100.763 190.935 95.17 191.328 95.17 191.814C95.17 192.3 100.763 192.694 107.661 192.694Z" fill="#E4EAEF" /><path d="M190.157 244.074C190.082 243.088 189.022 242.417 188.039 242.025C185.227 240.302 179.873 241.571 177.952 243.727C176.255 245.63 176.408 248.255 176.689 250.627C176.896 252.369 177.284 254.11 177.251 255.871C177.21 258.06 175.697 263.27 172.393 262.293C171.939 262.159 171.503 262.607 171.63 263.055C172.533 266.256 176.051 266.911 178.994 266.529C183.051 266.001 185.421 263.05 186.04 259.142C186.376 257.014 186.132 254.868 185.993 252.736C185.897 251.264 185.596 249.347 186.124 247.932C186.835 246.274 187.903 245.438 189.327 245.424C189.44 245.424 189.545 245.395 189.641 245.34C190.064 244.656 190.223 244.934 190.157 244.074Z" fill="#2A2B3C" /><path d="M171.681 263.201L171.584 262.906C175.791 261.534 175.555 257.602 175.282 253.051C175.179 251.319 175.071 249.526 175.183 247.71C175.294 245.897 175.966 244.464 177.178 243.448C179.706 241.329 183.661 241.759 183.832 241.779L183.796 242.087C183.761 242.082 179.803 241.653 177.375 243.686C176.231 244.644 175.597 246.003 175.492 247.729C175.381 249.525 175.488 251.308 175.591 253.031C175.873 257.712 176.113 261.753 171.681 263.201Z" fill="#2A2B3C" /><path d="M375.767 381.632C376.513 380.288 376.878 379.159 376.895 376.881C376.905 376.856 376.9 376.842 376.9 376.842C376.905 375.07 377.48 370.59 377.552 368.865C375.289 367.269 371.379 369.468 368.064 369.212C367.746 371.557 367.258 373.923 366.489 375.033C366.367 375.214 366.225 375.384 366.059 375.545C363.901 377.715 358.965 378.078 356.606 379.257C355.959 379.551 355.512 379.918 355.351 380.382C354.509 382.74 373.945 384.852 375.767 381.632Z" fill="#565B82" /><path d="M355.501 380.13C355.431 380.213 355.401 380.286 355.368 380.384C354.409 382.891 374.27 385.133 376.02 382.018L376.033 382.007C376.159 381.852 376.261 381.671 376.35 381.476C377.131 379.848 376.928 377.239 376.894 376.871C376.907 376.86 376.896 376.845 376.896 376.845C371.207 378.449 366.066 375.536 366.066 375.536C364.171 377.443 360.15 377.966 357.603 378.841C356.598 379.119 355.835 379.538 355.501 380.13Z" fill="#FFC32E" /><path d="M355.501 380.13C355.431 380.213 355.401 380.286 355.368 380.384C354.409 382.891 374.27 385.133 376.02 382.018L376.033 382.007C376.159 381.852 376.261 381.671 376.35 381.476C375.157 381.939 372.735 382.659 369.319 382.549C364.896 382.412 360.277 382.07 355.501 380.13Z" fill="#2A2B3B" /><path d="M399.568 328.226C400.28 328.248 426.26 332.572 435.953 332.133C443.809 331.782 454.785 332.462 457.606 326.091C461.987 316.154 459.257 310.958 451.181 307.845C446.886 306.191 441.184 303.292 436.704 303.745C430.359 304.396 382.139 307.664 377.552 317.064C373.471 325.434 391.07 327.948 399.568 328.226Z" fill="#343751" /><path d="M379.025 315.061C373.76 319.83 364.031 352.307 364.031 368.279C370.81 370.821 380.4 371.461 383.049 370.999C383.085 371.753 387.406 351.858 391.736 342.494C394.683 336.125 398.35 340.165 403.127 335.035C404.684 333.377 406.221 331.688 407.694 329.966C412.008 324.897 385.215 309.455 379.025 315.061Z" fill="#343751" /><path d="M420.027 307.924C420.027 307.924 392.443 311.155 388.026 320.008C382.997 330.086 388.026 353.382 388.026 353.382L393.879 325.79L420.027 307.924Z" fill="#17171D" /><path d="M465.482 310.932C464.874 308.674 463.697 306.838 461.984 305.35C460.619 304.135 458.896 303.143 456.849 302.324C452.456 300.562 449.082 303.676 444.629 304.445C438.861 305.45 398.034 309.071 391.149 321.377C391.136 321.377 391.136 321.39 391.136 321.39C391.124 321.427 391.1 321.453 391.087 321.489C390.975 321.714 390.876 321.936 390.764 322.173C390.738 322.209 390.727 322.247 390.702 322.297C390.341 323.165 390.156 324.071 390.156 325.026C390.156 328.561 394.076 331.439 402.265 332.928C405.105 333.449 408.468 333.795 412.35 333.945C420.328 334.268 430.536 333.747 443.104 332.133C450.893 331.128 461.923 331.588 464.367 323.822C466.054 318.425 466.375 314.233 465.482 310.932Z" fill="#3F4261" /><path d="M411.163 320.448C404.391 318.56 390.354 323.358 390.343 323.413C387.972 335.699 387.422 361.123 388.678 371.072C390.774 370.804 393.175 370.533 395.789 370.337C401.398 369.886 407.911 369.767 414.133 370.707C414.075 366.932 411.277 355.678 412.41 346.756C412.786 343.677 414.544 333.336 414.972 327.168C415.072 325.657 415.17 324.543 415.252 324.112C415.609 322.356 413.865 321.191 411.163 320.448Z" fill="#3F4261" /><path d="M465.483 310.932C464.875 308.674 463.698 306.838 461.985 305.35C460.942 305.387 459.913 305.697 458.946 306.306C458.847 306.368 458.772 306.441 458.736 306.529C458.401 306.629 458.103 307.013 458.289 307.434C461.155 314.232 452.235 317.074 447.533 318.451C442.597 319.902 437.659 321.328 432.673 322.568C427.723 323.797 422.744 325.173 417.65 325.521C409.209 326.098 407.696 329.967 406.522 337.331C405.766 342.081 399.336 368.66 398.791 369.912C403.926 369.997 408.908 370.027 414.138 370.708C415.018 367.037 413.147 361.737 413.336 352.746C413.449 347.377 413.356 339.904 415.304 334.036C423.281 334.358 430.539 333.748 443.107 332.134C450.897 331.129 461.926 331.59 464.37 323.824C466.055 318.425 466.376 314.233 465.483 310.932Z" fill="#343751" /><path d="M398.79 370.136C398.79 370.136 398.773 370.135 398.764 370.133C398.641 370.12 398.553 370.008 398.568 369.887C398.603 369.579 402.15 339.001 403.782 330.658C405.093 323.962 410.688 323.447 422.949 322.319C425.182 322.113 427.711 321.88 430.448 321.586C447.428 319.761 453.21 304.822 453.266 304.671C453.31 304.555 453.439 304.497 453.554 304.541C453.669 304.584 453.729 304.713 453.684 304.829C453.627 304.981 447.747 320.177 430.496 322.031C427.756 322.325 425.224 322.559 422.989 322.763C410.959 323.87 405.467 324.375 404.22 330.742C402.591 339.069 399.047 369.63 399.011 369.937C398.999 370.052 398.903 370.136 398.79 370.136Z" fill="#2A2B3C" /><path d="M465.406 307.136C465.406 307.136 465.38 261.752 452.458 254.276C444.139 249.462 431.3 253.696 428.436 260.013C422.845 272.337 413.383 305.288 413.383 305.288C413.383 305.288 443.877 313.351 465.406 307.136Z" fill="#EA3E72" /><path d="M438.084 246.56C438.084 246.56 438.234 251.498 438.4 252.608C438.451 252.947 439.146 254 439.734 254.399C441.808 252.913 443.524 253.262 444.175 252.608C443.671 251.221 443.411 249.193 443.411 246.56C443.411 244.067 438.084 246.56 438.084 246.56Z" fill="#565B82" /><path d="M444.086 242.552C444.086 242.552 442.93 249.262 438.692 249.393C434.452 249.525 437.108 240.258 437.744 240.004C438.382 239.748 442.514 238.846 444.086 242.552Z" fill="#565B82" /><path d="M439.734 254.399L440.617 251.427L443.92 251.768L446.698 252.348L439.734 254.399Z" fill="#F2F8FF" /><path d="M439.734 254.399L438.632 251.427L437.266 253.105L439.734 254.399Z" fill="#F2F8FF" /><path d="M435.858 239.297C436.808 242.557 439.488 241.713 442.215 241.232C442.08 241.995 442.189 242.839 442.371 243.645C442.331 243.713 442.297 243.79 442.285 243.882C442.131 244.897 442.025 245.905 441.961 246.93C441.936 247.321 442.239 247.692 442.661 247.628C445.88 247.131 447.046 243.201 446.382 240.346C446.087 239.074 445.345 238.206 444.141 237.747C442.797 237.236 441.403 237.473 439.942 237.225C438.106 236.912 434.951 236.191 435.858 239.297Z" fill="#17171D" /><path d="M441.901 243.775C441.901 243.775 442.544 242.539 443.716 242.715C444.888 242.893 445.157 245.684 443.174 245.926C441.191 246.168 441.901 243.775 441.901 243.775Z" fill="#565B82" /><path d="M414.139 370.701C414.567 369.664 389.599 369.514 388.681 371.067C387.434 373.181 412.891 373.731 414.139 370.701Z" fill="#17171D" /><path d="M406.225 380.207C406.632 378.723 406.719 377.541 406.196 375.322C406.201 375.296 406.19 375.283 406.19 375.283C405.776 373.561 405.268 371.693 404.93 370.001C401.525 369.838 398.188 369.968 395.811 370.049C396.059 372.401 396.131 374.736 395.646 375.997C395.572 376.202 395.474 376.402 395.353 376.597C393.77 379.217 389.063 380.741 387.05 382.447C386.492 382.886 386.146 383.349 386.098 383.838C385.837 386.33 405.219 383.767 406.225 380.207Z" fill="#565B82" /><path d="M386.183 383.557C386.136 383.654 386.122 383.733 386.114 383.836C385.776 386.5 405.603 383.964 406.563 380.522L406.574 380.508C406.66 380.327 406.714 380.128 406.756 379.918C407.127 378.151 406.311 375.664 406.189 375.315C406.199 375.3 406.185 375.289 406.185 375.289C401.041 378.198 395.355 376.588 395.355 376.588C393.966 378.89 390.185 380.353 387.917 381.807C387.008 382.314 386.368 382.903 386.183 383.557Z" fill="#FFD357" /><path d="M386.183 383.558C386.136 383.654 386.122 383.734 386.114 383.837C385.776 386.5 405.603 383.965 406.563 380.522L406.574 380.508C406.66 380.327 406.714 380.129 406.756 379.918C405.706 380.65 403.525 381.925 400.178 382.63C395.851 383.545 391.282 384.309 386.183 383.558Z" fill="#2A2B3B" /><path d="M479.408 321.139C458.398 320.764 443.898 328.16 434.283 341.342C433.353 341.414 435.613 357.153 450.154 357.113C465.573 357.068 476.903 358.679 480.959 342.374C482.442 336.415 484.733 321.233 479.408 321.139Z" fill="#EDF1F4" /><path d="M434.283 341.342C434.283 341.342 452.361 320.903 479.408 321.138C479.408 321.138 453.244 316.307 434.283 341.342Z" fill="#17171D" /><path d="M451.064 255.12C451.064 255.12 443.217 259.814 444.086 278.451C444.653 290.613 420.567 306.864 420.567 306.864C420.567 306.864 438.847 313.469 465.406 307.136L464.362 278.164L451.064 255.12Z" fill="#D32A6B" /><path d="M448.526 258.851L457.074 290.023L431.27 299.705C431.27 299.705 449.043 286.887 449.146 285.336C449.25 283.786 440.907 267.294 448.526 258.851Z" fill="#17171D" /><path d="M376.186 316.458L416.277 317.777L416.335 316.022L376.243 314.702L376.186 316.458Z" fill="#AABFCE" /><path d="M416.311 317.861L434.522 315.659L434.579 313.903L416.369 316.105L416.311 317.861Z" fill="#BED0E2" /><path d="M434.579 313.903L389.131 311.076L376.277 314.789L416.369 316.105L434.579 313.903Z" fill="#DCE8EF" /><path d="M377.41 314.826L417.263 315.712L412.891 291.336L373.529 290.022L372.147 290.919L377.41 314.826Z" fill="#DCE8EF" /><path d="M376.438 314.794L416.371 316.106L412.263 292.656L372.147 290.919L376.438 314.794Z" fill="#BED0E2" /><path d="M423.341 316.99C423.557 317.822 424.549 318.459 424.953 317.619C424.958 317.609 424.965 317.6 424.969 317.591C425.067 318.496 426.165 319.285 426.612 318.4C427.536 316.575 428.48 314.591 430.306 313.802C431.826 313.147 433.81 313.646 435.471 313.718C436.894 313.779 438.142 313.696 439.481 313.414C444.333 312.392 449.113 310.876 453.672 309.039C454.154 308.844 454.328 307.967 453.88 307.42C451.74 304.816 449.604 302.214 447.464 299.61C447.117 299.185 446.706 299.125 446.389 299.265C446.261 299.277 446.137 299.318 446.016 299.412C441.635 302.905 435.75 304.923 430.172 305.463C426.196 305.846 423.063 307.217 420.352 310.306C419.602 311.164 420.856 312.96 421.618 312.093C423.116 310.383 424.736 309.442 426.453 308.826C426.461 308.89 426.453 308.951 426.466 309.016C424.468 310.69 422.982 312.781 421.884 315.435C421.443 316.502 422.795 317.815 423.341 316.99Z" fill="#565B82" /><path d="M424.214 311.596C424.176 311.596 424.139 311.588 424.104 311.57C423.983 311.51 423.934 311.363 423.995 311.243C424.377 310.484 426.227 308.897 426.305 308.831C426.409 308.742 426.562 308.754 426.649 308.857C426.737 308.96 426.726 309.114 426.623 309.201C426.108 309.64 424.711 310.904 424.431 311.46C424.39 311.547 424.303 311.596 424.214 311.596Z" fill="#2A2B3C" /><path d="M423.34 317.235C423.311 317.235 423.28 317.229 423.251 317.217C423.125 317.169 423.064 317.028 423.112 316.901C423.178 316.732 424.75 312.746 427.819 310.259C427.922 310.175 428.078 310.191 428.163 310.295C428.247 310.401 428.231 310.554 428.127 310.639C425.159 313.042 423.584 317.036 423.568 317.076C423.529 317.175 423.438 317.235 423.34 317.235Z" fill="#2A2B3C" /><path d="M424.968 317.834C424.934 317.834 424.898 317.827 424.866 317.81C424.743 317.755 424.688 317.61 424.746 317.487C424.824 317.317 426.673 313.312 428.918 312.057C429.038 311.992 429.184 312.033 429.25 312.151C429.316 312.269 429.275 312.418 429.156 312.484C427.051 313.661 425.207 317.65 425.19 317.69C425.149 317.781 425.061 317.834 424.968 317.834Z" fill="#2A2B3C" /><path d="M451.064 255.12C441.229 265.95 449.85 285.14 456.088 294.982C462.323 304.824 474.542 295.784 474.603 292.351C474.664 288.917 457.023 248.555 451.064 255.12Z" fill="#EA3E72" /><path d="M430.353 300.427C438.557 293.712 457.864 285.387 464.314 284.815C470.766 284.243 473.956 297.524 472.423 299.05C470.887 300.575 450.772 314.745 436.904 316.284C436.904 316.284 428.745 301.742 430.353 300.427Z" fill="#EA3E72" /><path d="M456.916 257.286C456.916 257.286 473.854 280.018 474.757 292.397C475.66 304.775 446.415 312.856 444.086 314.629C444.086 314.629 471.887 299.024 470.724 292.653C469.562 286.281 456.916 257.286 456.916 257.286Z" fill="#D32A6B" /><path d="M394.779 223.951H251.276C247.393 223.951 244.234 220.793 244.234 216.91V178.041C244.234 174.158 247.393 171 251.276 171H394.779C398.662 171 401.821 174.158 401.821 178.041V216.91C401.821 220.793 398.662 223.951 394.779 223.951ZM251.277 172.764C248.367 172.764 246 175.131 246 178.041V216.91C246 219.82 248.367 222.187 251.277 222.187H394.781C397.691 222.187 400.058 219.82 400.058 216.91V178.041C400.058 175.131 397.691 172.764 394.781 172.764H251.277Z" fill="white" /><path d="M374.967 186.305H365.496V222.514H374.967V186.305Z" fill="#92CEFF" /><path d="M377.036 186.305H374.967V222.514H377.036V186.305Z" fill="white" /><path d="M326.73 186.305H317.26V222.514H326.73V186.305Z" fill="#92CEFF" /><path d="M328.797 186.305H326.729V222.514H328.797V186.305Z" fill="white" /><path d="M363.937 188.098L354.871 185.357L344.392 220.017L353.459 222.758L363.937 188.098Z" fill="#92CEFF" /><path d="M353.458 222.8L355.438 223.398L365.916 188.739L363.937 188.141L353.458 222.8Z" fill="white" /><path d="M386.949 196.539H378.326V222.514H386.949V196.539Z" fill="#FFD357" /><path d="M388.834 196.539H386.951V222.514H388.834V196.539Z" fill="white" /><path d="M269.262 200.481L269.289 211.749L311.318 211.596L311.289 200.328L269.262 200.481Z" fill="#EA3E72" /><path d="M266.471 200.481L266.499 211.749L308.527 211.596L308.499 200.328L266.471 200.481Z" fill="white" /><path d="M311.29 200.328H264.307V202.194H311.29V200.328Z" fill="#EA3E72" /><path d="M311.29 209.694H264.307V211.561H311.29V209.694Z" fill="#EA3E72" /><path d="M261.537 211.243L261.57 222.511L312.087 222.359L312.053 211.091L261.537 211.243Z" fill="#4093F6" /><path d="M258.181 211.242L258.215 222.51L308.731 222.358L308.697 211.09L258.181 211.242Z" fill="white" /><path d="M312.037 211.092H255.565V212.959H312.037V211.092Z" fill="#4093F6" /><path d="M312.037 220.458H255.565V222.325H312.037V220.458Z" fill="#4093F6" /><path d="M353.544 322.637H340.208L337.727 304.541H356.025L353.544 322.637Z" fill="#E93E72" /><path d="M353.776 307.891C352.264 308.382 352.912 310.779 354.436 310.284C356.783 309.523 357.745 311.648 357.726 313.648C357.719 314.529 357.6 315.6 356.958 316.269C356.023 317.24 354.362 317.37 354.32 315.685C354.281 314.091 351.8 314.085 351.839 315.685C351.889 317.711 352.723 319.576 355.047 319.567C357.278 319.559 359.207 318.084 359.872 315.99C361.153 311.957 358.776 306.27 353.776 307.891Z" fill="#E93E72" /><path d="M346.876 305.543C351.929 305.543 356.025 305.094 356.025 304.54C356.025 303.987 351.929 303.538 346.876 303.538C341.823 303.538 337.727 303.987 337.727 304.54C337.727 305.094 341.823 305.543 346.876 305.543Z" fill="#D32A6B" /><path d="M347.064 290.982C346.771 287.618 343.327 286.06 344.744 282.437C345.326 280.95 342.928 280.305 342.351 281.779C341.578 283.756 341.422 285.389 342.542 287.258C344.138 289.922 345.811 292.321 343.094 295.096C341.978 296.238 343.73 297.994 344.848 296.85C346.41 295.256 347.26 293.24 347.064 290.982Z" fill="#EDF1F4" /><path d="M353.558 290.966C353.55 288.883 352.58 287.165 350.84 286.064C349.487 285.209 348.24 287.354 349.587 288.207C353.63 290.764 348.022 296.354 349.319 300.037C349.845 301.533 352.243 300.891 351.711 299.378C350.799 296.789 353.569 293.729 353.558 290.966Z" fill="#EDF1F4" /><path d="M290.468 322.635H303.804L306.285 304.539H287.987L290.468 322.635Z" fill="#4093F6" /><path d="M290.236 307.89C291.749 308.381 291.102 310.778 289.577 310.283C287.229 309.522 286.267 311.647 286.287 313.647C286.295 314.528 286.414 315.6 287.055 316.268C287.989 317.24 289.65 317.369 289.694 315.684C289.732 314.09 292.213 314.084 292.175 315.684C292.124 317.71 291.29 319.575 288.967 319.566C286.735 319.558 284.806 318.083 284.141 315.989C282.861 311.956 285.238 306.269 290.236 307.89Z" fill="#4093F6" /><path d="M297.136 305.542C302.188 305.542 306.285 305.093 306.285 304.539C306.285 303.986 302.188 303.537 297.136 303.537C292.083 303.537 287.987 303.986 287.987 304.539C287.987 305.093 292.083 305.542 297.136 305.542Z" fill="#2483E2" /><path d="M296.95 290.982C297.241 287.618 300.686 286.06 299.268 282.437C298.688 280.95 301.086 280.305 301.663 281.779C302.436 283.756 302.592 285.389 301.472 287.258C299.875 289.922 298.203 292.321 300.918 295.096C302.036 296.238 300.282 297.994 299.164 296.85C297.601 295.256 296.754 293.24 296.95 290.982Z" fill="#EDF1F4" /><path d="M290.455 290.965C290.465 288.882 291.434 287.164 293.175 286.063C294.528 285.208 295.775 287.353 294.426 288.206C290.385 290.763 295.993 296.353 294.695 300.036C294.168 301.532 291.772 300.89 292.303 299.377C293.214 296.788 290.445 293.728 290.455 290.965Z" fill="#EDF1F4" /><path d="M364.15 322.398H272.772V325.706H364.15V322.398Z" fill="#2A2B3B" /><path d="M268.217 383.557C268.187 383.557 268.155 383.554 268.125 383.549C267.787 383.5 267.552 383.185 267.603 382.846L276.371 323.734C276.421 323.397 276.752 323.157 277.074 323.212C277.413 323.261 277.648 323.577 277.597 323.915L268.829 383.027C268.784 383.336 268.518 383.557 268.217 383.557Z" fill="#2A2B3C" /><path d="M306.049 383.557C305.748 383.557 305.482 383.335 305.438 383.028L296.669 323.916C296.618 323.577 296.852 323.262 297.191 323.212C297.519 323.156 297.847 323.395 297.895 323.734L306.663 382.846C306.714 383.185 306.481 383.5 306.141 383.55C306.111 383.555 306.08 383.557 306.049 383.557Z" fill="#2A2B3C" /><path d="M330.873 383.557C330.843 383.557 330.811 383.554 330.781 383.549C330.443 383.5 330.208 383.185 330.259 382.846L339.027 323.734C339.077 323.397 339.396 323.157 339.731 323.212C340.069 323.261 340.304 323.577 340.253 323.915L331.485 383.027C331.44 383.336 331.175 383.557 330.873 383.557Z" fill="#2A2B3C" /><path d="M368.703 383.557C368.402 383.557 368.136 383.335 368.092 383.028L359.323 323.916C359.273 323.577 359.506 323.262 359.846 323.212C360.176 323.156 360.501 323.395 360.549 323.734L369.317 382.846C369.368 383.185 369.135 383.5 368.795 383.55C368.765 383.555 368.733 383.557 368.703 383.557Z" fill="#2A2B3C" /><defs><linearGradient id="paint0_linear_435_124" x1="107.009" y1="379.101" x2="107.009" y2="217.42" gradientUnits="userSpaceOnUse"><stop stop-color="white" stop-opacity="0" /><stop offset="1" stop-color="#F8CB3D" /></linearGradient></defs></svg> 