<svg width="560" height="560" viewBox="0 0 560 560" fill="none" xmlns="http://www.w3.org/2000/svg"><rect width="560" height="560" fill="#EFF5FA" /><path d="M280 406.094C407.025 406.094 510 403.466 510 400.223C510 396.981 407.025 394.353 280 394.353C152.974 394.353 50 396.981 50 400.223C50 403.466 152.974 406.094 280 406.094Z" fill="#F0D2D2" /><path opacity="0.34" d="M338.922 195.043L307.992 294.731H397.934L368.703 195.043H338.922Z" fill="url(#paint0_linear_435_1340)" /><path d="M353.428 204.836C356.493 204.836 358.978 202.352 358.978 199.287C358.978 196.222 356.493 193.737 353.428 193.737C350.364 193.737 347.879 196.222 347.879 199.287C347.879 202.352 350.364 204.836 353.428 204.836Z" fill="#FFD357" /><path d="M353.554 177.712C353.554 177.712 346.675 187.822 331.459 199.287H375.651C360.434 187.822 353.554 177.712 353.554 177.712Z" fill="#4093F5" /><path d="M354.976 153H352.133V179.799H354.976V153Z" fill="url(#paint1_linear_435_1340)" /><path opacity="0.34" d="M246.394 195.043L215.463 294.731H305.404L276.175 195.043H246.394Z" fill="url(#paint2_linear_435_1340)" /><path d="M260.899 204.836C263.964 204.836 266.449 202.352 266.449 199.287C266.449 196.222 263.964 193.737 260.899 193.737C257.834 193.737 255.35 196.222 255.35 199.287C255.35 202.352 257.834 204.836 260.899 204.836Z" fill="#FFD357" /><path d="M261.026 177.712C261.026 177.712 254.147 187.822 238.93 199.287H283.123C267.905 187.822 261.026 177.712 261.026 177.712Z" fill="#4093F5" /><path d="M262.448 153H259.605V179.799H262.448V153Z" fill="url(#paint3_linear_435_1340)" /><path d="M315.186 302.958H319.095L308.151 274.51H304.242L315.186 302.958Z" fill="#BED0E2" /><path d="M356.893 302.958H315.186V306.394H356.893V302.958Z" fill="#BED0E2" /><path d="M342.232 266.43C342.188 266.395 342.138 266.368 342.095 266.328C341.457 265.751 342.487 264.515 343.126 265.095C343.17 265.135 343.226 265.155 343.271 265.19C343.275 264.74 343.734 264.155 344.528 264.5C344.758 264.6 347.993 266.056 351.017 265.618C350.421 265.259 349.422 264.675 348.634 264.509C347.8 264.332 347.995 262.996 348.833 263.184C348.964 263.213 350.045 263.48 350.181 263.563C353.941 264.742 357.487 267.243 360.306 270.019C360.8 270.436 361.279 270.874 361.734 271.351C361.898 271.523 361.894 271.819 361.814 272.022C361.408 273.055 359.998 275.067 359.287 275.91C359.215 275.995 359.127 276.049 359.035 276.089C359.303 276.741 358.376 277.374 357.903 276.731C356.641 275.012 353.9 272.248 353.872 272.228C350.109 271.943 346.47 271.604 343.008 270.044C342.31 269.729 342.632 268.551 343.269 268.583C343.276 268.578 343.281 268.572 343.287 268.567C343.276 268.562 343.267 268.556 343.257 268.551C343.045 268.476 342.133 267.966 341.879 267.77C341.391 267.393 341.786 266.576 342.232 266.43Z" fill="#EA3E72" /><path d="M350.436 267.358C346.983 267.358 343.233 265.348 343.196 265.328C343.119 265.287 343.092 265.192 343.132 265.115C343.176 265.036 343.271 265.013 343.344 265.051C343.381 265.073 347.064 267.045 350.436 267.045C350.469 267.045 350.502 267.045 350.535 267.045C350.62 267.045 350.691 267.114 350.693 267.2C350.694 267.285 350.624 267.357 350.537 267.358C350.505 267.358 350.47 267.358 350.436 267.358Z" fill="#2A2B3C" /><path d="M349.865 269.085C346.935 269.085 342.358 266.674 342.159 266.567C342.083 266.527 342.054 266.432 342.094 266.356C342.134 266.28 342.23 266.252 342.306 266.291C342.355 266.317 347.014 268.771 349.867 268.771C349.958 268.771 350.049 268.767 350.135 268.762H350.145C350.227 268.762 350.297 268.826 350.302 268.909C350.307 268.995 350.24 269.07 350.155 269.075C350.059 269.081 349.963 269.085 349.865 269.085Z" fill="#2A2B3C" /><path d="M349.679 270.462H349.676C347.466 270.425 343.381 268.797 343.207 268.729C343.128 268.697 343.088 268.605 343.121 268.525C343.152 268.446 343.246 268.41 343.325 268.439C343.366 268.456 347.53 270.113 349.681 270.15C349.767 270.151 349.836 270.223 349.835 270.308C349.834 270.393 349.764 270.462 349.679 270.462Z" fill="#2A2B3C" /><path d="M418.988 253.894C405.189 248.682 391.676 266.788 384.758 276.28C377.839 285.772 382.617 292.754 387.472 291.649C402.702 288.183 427.351 257.053 418.988 253.894Z" fill="#2483E2" /><path d="M360.703 263.175C371.176 265.312 384.293 272.368 391.957 276.336C397.754 279.338 388.164 291.967 385.993 291.738C383.824 291.509 363.696 287.088 353.662 277.227C353.664 277.229 358.652 262.756 360.703 263.175Z" fill="#2483E2" /><path d="M405.486 258.742C405.486 258.742 399.668 266.394 397.063 281.195C390.933 280.986 374.387 287.184 374.387 287.184L400.372 284.496L405.486 258.742Z" fill="#17171D" /><path d="M351.633 395.013C352.87 394.078 353.667 393.186 354.611 391.092C354.63 391.075 354.631 391.057 354.631 391.057C355.358 389.426 357.713 385.528 358.482 383.967C357.047 381.574 352.545 382.009 349.59 380.421C348.342 382.453 346.929 384.437 345.766 385.147C345.582 385.265 345.38 385.365 345.164 385.445C342.287 386.566 337.588 384.891 334.932 385.017C334.215 385.025 333.655 385.181 333.316 385.544C331.576 387.374 348.641 397.242 351.633 395.013Z" fill="#E93E72" /><path d="M333.556 385.372C333.459 385.419 333.401 385.474 333.33 385.552C331.422 387.473 348.828 397.633 351.709 395.474L351.727 395.469C351.906 395.379 352.072 395.253 352.235 395.11C353.617 393.927 354.495 391.438 354.611 391.084C354.628 391.079 354.623 391.062 354.623 391.062C348.724 390.222 345.169 385.442 345.169 385.442C342.641 386.428 338.723 385.272 336.018 385.04C334.981 384.887 334.106 384.963 333.556 385.372Z" fill="#FFD357" /><path d="M333.556 385.372C333.459 385.42 333.401 385.475 333.33 385.552C331.422 387.473 348.828 397.633 351.709 395.474L351.727 395.469C351.906 395.379 352.072 395.253 352.235 395.11C350.945 395.05 348.417 394.728 345.312 393.234C341.292 391.304 337.169 389.107 333.556 385.372Z" fill="#2A2B3B" /><path d="M385.207 337.473C385.909 337.311 412.551 335.467 421.844 332.392C429.374 329.903 440.266 327.789 440.992 319.622C442.107 306.889 437.803 301.562 428.962 300.073C424.258 299.285 417.791 297.417 413.576 299.131C407.61 301.57 367.34 313.928 365.86 326.092C364.54 336.918 376.852 339.4 385.207 337.473Z" fill="#343751" /><path d="M367.172 322.934C362.891 328.63 345.298 365.603 343.071 377.011C347.538 383.032 356.502 386.784 366.373 387.727C366.556 388.455 373.885 368.216 378.205 359.117C381.204 352.773 385.168 346.957 388.895 341.006C390.113 339.081 391.305 337.128 392.426 335.157C395.709 329.357 372.204 316.238 367.172 322.934Z" fill="#343751" /><path d="M466.793 294.43C466.793 294.43 449.233 290.77 434.354 300.76C419.475 310.749 414.906 335.494 414.906 335.494L462.353 304.973L466.793 294.43Z" fill="#BED0E2" /><path d="M401.426 309.214C401.426 309.214 371.79 314.875 369.44 324.568C367.089 334.261 378.203 359.117 378.203 359.117L375.063 327.226L401.426 309.214Z" fill="#17171D" /><path d="M371.23 327.771C371.217 328.885 371.355 329.898 371.642 330.811C373.719 337.877 383.611 339.391 390.679 337.766C390.815 337.74 391.879 337.653 393.58 337.502C395.356 337.341 397.832 337.128 400.672 336.852C409.44 335.99 421.634 334.575 427.325 332.687C434.856 330.198 445.748 328.084 446.474 319.917C446.974 314.238 446.388 310.037 444.798 306.984C442.847 303.194 439.346 301.193 434.443 300.368C429.74 299.58 425.25 301.969 421.034 303.682C415.068 306.12 372.818 314.226 371.331 326.382C371.331 326.408 371.331 326.432 371.317 326.458C371.267 326.907 371.242 327.359 371.23 327.771Z" fill="#3F4261" /><path d="M371.218 327.508C371.218 327.595 371.231 327.683 371.231 327.771C371.281 328.521 371.417 329.547 371.643 330.81C373.645 342.742 382.198 375.399 387.177 384.517C393.068 381.29 402.898 379.964 411.955 377.888C412.018 377.937 411.992 377.775 411.918 377.425C411.155 374.385 405.039 357.101 402.813 348.319C401.837 344.542 401.212 340.715 400.674 336.85C400.261 333.823 399.911 330.773 399.498 327.732C399.486 327.67 399.486 327.607 399.473 327.546C399.186 325.293 398.861 323.031 398.459 320.792C397.335 314.513 373.033 318.739 371.318 326.458C371.231 326.794 371.206 327.146 371.218 327.508Z" fill="#3F4261" /><path d="M398.473 380.648C398.376 380.648 398.287 380.585 398.256 380.488C398.134 380.086 385.93 340.053 385.045 332.204C384.845 330.429 385.178 329.038 386.068 327.951C388.412 325.09 394.38 324.574 403.414 323.793C405.967 323.571 408.86 323.321 411.932 322.99C429.043 321.151 434.881 306.087 434.938 305.935C434.981 305.817 435.11 305.758 435.228 305.803C435.344 305.847 435.404 305.977 435.359 306.093C435.302 306.247 429.373 321.569 411.98 323.439C408.902 323.769 406.008 324.019 403.454 324.24C394.534 325.012 388.641 325.522 386.418 328.236C385.61 329.224 385.306 330.504 385.492 332.152C386.373 339.962 398.565 379.954 398.689 380.357C398.724 380.477 398.658 380.602 398.539 380.64C398.518 380.645 398.495 380.648 398.473 380.648Z" fill="#2A2B3C" /><path d="M392.418 332.524C392.63 333.45 393.043 335.201 393.581 337.501C396.232 348.895 401.911 373.849 401.198 379.727C401.198 379.727 410.603 377.701 411.954 377.889L411.918 377.426C411.155 374.385 405.039 357.101 402.813 348.32C401.837 344.543 401.212 340.715 400.674 336.851C409.441 335.989 421.636 334.574 427.327 332.686C434.858 330.197 445.75 328.083 446.476 319.916C446.976 314.237 446.389 310.036 444.8 306.983L441.16 304.694C441.16 304.694 432.431 321.967 416.908 325.094C409.793 326.532 403.789 327.057 399.498 327.733C394.43 328.533 391.741 329.548 392.418 332.524Z" fill="#343751" /><path d="M447.587 305.826C447.587 305.826 441.92 261.881 428.891 254.343C420.503 249.49 407.561 253.759 404.671 260.129C399.036 272.553 395.75 305.775 395.75 305.775C395.75 305.775 425.88 312.091 447.587 305.826Z" fill="#4093F6" /><path d="M414.399 246.563C414.399 246.563 414.55 251.543 414.718 252.662C414.769 253.004 415.471 254.065 416.063 254.468C418.153 252.97 419.883 253.322 420.54 252.662C420.033 251.264 419.769 249.219 419.769 246.563C419.769 244.052 414.399 246.563 414.399 246.563Z" fill="#E93E72" /><path d="M420.45 242.525C420.45 242.525 419.284 249.29 415.012 249.422C410.738 249.554 413.414 240.212 414.056 239.954C414.699 239.697 418.865 238.787 420.45 242.525Z" fill="#E93E72" /><path d="M416.065 254.468L416.954 251.472L420.283 251.816L423.085 252.402L416.065 254.468Z" fill="#F2F8FF" /><path d="M416.065 254.468L414.953 251.472L413.576 253.164L416.065 254.468Z" fill="#F2F8FF" /><path d="M465.241 399.576L452.735 330.398L451.504 330.621L464.011 399.799L465.241 399.576Z" fill="#2A2B3B" /><path d="M423.766 330.655L422.535 330.433L410.043 399.617L411.273 399.84L423.766 330.655Z" fill="#2A2B3B" /><path d="M434.766 330.655L433.535 330.433L421.043 399.617L422.273 399.84L434.766 330.655Z" fill="#2A2B3B" /><path d="M466.792 294.43C466.792 294.43 437.38 311.493 414.906 335.494C414.906 335.494 441.821 340.488 455.139 329.113C468.457 317.736 466.792 294.43 466.792 294.43Z" fill="#E93E72" /><path d="M456.954 356.709H418.143V357.96H456.954V356.709Z" fill="#2A2B3B" /><path d="M412.154 239.243C413.112 242.531 415.815 241.679 418.564 241.194C418.428 241.962 418.538 242.814 418.721 243.627C418.68 243.694 418.648 243.772 418.634 243.866C418.48 244.889 418.372 245.907 418.309 246.939C418.284 247.333 418.588 247.707 419.013 247.642C422.259 247.141 423.434 243.179 422.766 240.301C422.469 239.019 421.719 238.144 420.505 237.682C419.15 237.166 417.746 237.404 416.273 237.154C414.42 236.839 411.241 236.111 412.154 239.243Z" fill="#17171D" /><path d="M418.247 243.757C418.247 243.757 418.897 242.512 420.079 242.689C421.259 242.867 421.532 245.682 419.531 245.926C417.533 246.171 418.247 243.757 418.247 243.757Z" fill="#E93E72" /><path d="M411.958 377.894C411.977 376.763 387.466 382.72 387.179 384.519C386.788 386.961 411.904 381.194 411.958 377.894Z" fill="#17171D" /><path d="M409.991 388.566C409.825 387.024 409.471 385.882 408.16 383.994C408.155 383.969 408.14 383.961 408.14 383.961C407.116 382.497 406.243 381.335 405.299 379.872C402.51 379.872 399.307 381.093 396.426 382.81C397.526 384.925 398.498 387.159 398.511 388.52C398.517 388.74 398.498 388.962 398.455 389.191C397.936 392.234 394.083 395.401 392.825 397.744C392.462 398.362 392.307 398.923 392.444 399.4C393.12 401.834 410.36 392.278 409.991 388.566Z" fill="#E93E72" /><path d="M392.422 399.105C392.412 399.214 392.429 399.291 392.459 399.391C393.125 402.016 410.793 392.319 410.424 388.736L410.429 388.719C410.443 388.518 410.42 388.311 410.383 388.097C410.08 386.302 408.395 384.27 408.154 383.988C408.157 383.971 408.14 383.966 408.14 383.966C404.385 388.594 398.458 389.18 398.458 389.18C398.003 391.854 394.995 394.621 393.404 396.821C392.738 397.634 392.354 398.423 392.422 399.105Z" fill="#FFD357" /><path d="M392.423 399.104C392.413 399.213 392.43 399.291 392.461 399.391C393.126 402.016 410.794 392.319 410.425 388.736L410.43 388.718C410.444 388.518 410.421 388.311 410.384 388.097C409.669 389.171 408.091 391.173 405.212 393.068C401.49 395.526 397.485 397.929 392.423 399.104Z" fill="#2A2B3B" /><path d="M431.973 262.678C431.973 262.678 416.034 296.275 411.104 299.243C406.176 302.211 395.75 303.149 395.75 303.149C395.75 303.149 411.913 302.909 414.4 300.888C423.16 293.773 431.973 262.678 431.973 262.678Z" fill="#17171D" /><path d="M356.057 303.926C356.185 304.784 357.115 305.523 357.606 304.725C357.612 304.715 357.62 304.707 357.626 304.699C357.63 305.616 358.648 306.522 359.19 305.682C360.307 303.946 361.459 302.056 363.373 301.455C364.964 300.956 366.9 301.664 368.559 301.908C369.981 302.116 371.239 302.163 372.614 302.02C377.585 301.5 382.537 300.478 387.3 299.107C387.803 298.963 388.07 298.1 387.678 297.507C385.804 294.673 383.93 291.84 382.057 289.007C381.752 288.546 381.346 288.443 381.012 288.548C380.884 288.547 380.755 288.576 380.625 288.66C375.867 291.705 369.756 293.117 364.105 293.076C360.079 293.049 356.792 294.095 353.755 296.912C352.91 297.695 353.984 299.626 354.835 298.837C356.517 297.277 358.24 296.503 360.025 296.063C360.025 296.129 360.011 296.188 360.018 296.254C357.84 297.726 356.133 299.669 354.755 302.216C354.203 303.238 355.421 304.698 356.057 303.926Z" fill="#E93E72" /><path d="M357.519 298.609C357.474 298.609 357.428 298.595 357.387 298.57C357.273 298.497 357.239 298.344 357.312 298.23C357.773 297.511 359.793 296.113 359.881 296.053C359.987 295.975 360.145 296.003 360.222 296.117C360.3 296.228 360.271 296.382 360.158 296.458C359.597 296.846 358.065 297.968 357.727 298.497C357.68 298.569 357.601 298.609 357.519 298.609Z" fill="#2A2B3C" /><path d="M356.055 304.174C356.018 304.174 355.978 304.164 355.943 304.146C355.821 304.085 355.774 303.936 355.836 303.815C355.919 303.652 357.91 299.819 361.246 297.645C361.358 297.569 361.512 297.604 361.586 297.718C361.66 297.831 361.627 297.984 361.513 298.058C358.29 300.158 356.293 304 356.273 304.039C356.231 304.125 356.145 304.174 356.055 304.174Z" fill="#2A2B3C" /><path d="M357.628 304.944C357.585 304.944 357.543 304.933 357.503 304.911C357.385 304.841 357.346 304.69 357.415 304.573C357.511 304.41 359.784 300.587 362.164 299.561C362.285 299.507 362.433 299.565 362.488 299.69C362.542 299.815 362.484 299.96 362.359 300.014C360.127 300.977 357.861 304.784 357.84 304.823C357.794 304.901 357.713 304.944 357.628 304.944Z" fill="#2A2B3C" /><path d="M430.832 257.013C416.306 254.451 403.902 274.101 398.86 284.712C393.821 295.322 408.101 300.883 411.061 299.088C414.023 297.296 439.636 258.568 430.832 257.013Z" fill="#2483E2" /><path d="M369.985 288.752C379.817 284.557 400.85 281.923 407.257 283.181C413.662 284.442 413.02 298.197 411.106 299.243C409.191 300.288 385.731 308.354 371.871 305.946C371.871 305.946 368.059 289.575 369.985 288.752Z" fill="#2483E2" /><path d="M130.871 295.331C130.871 295.331 148.431 291.672 163.31 301.662C178.189 311.651 182.758 336.396 182.758 336.396L135.311 305.874L130.871 295.331Z" fill="#BED0E2" /><path d="M189.877 258.627C186.487 256.712 183.895 254.09 182.968 250.222L182.967 250.219C183.264 248.807 183.897 246.695 182.639 245.835C181.64 245.152 181.653 244.502 180.778 245.066C177.967 246.876 177.036 251.42 176.595 254.672C176.329 256.638 176.368 262.15 177.216 262.792C178.705 263.921 188.005 261.097 189.869 259.707C190.227 259.441 190.326 258.881 189.877 258.627Z" fill="#2A2B3C" /><path d="M215.059 324.01C214.954 326.28 214.926 328.569 214.932 330.838C214.929 330.901 214.937 330.964 214.932 331.027C214.919 334.093 214.969 337.165 214.954 340.221C214.925 344.122 214.802 347.999 214.327 351.87C213.263 360.865 209.45 378.8 209.089 381.913C209.06 382.27 209.056 382.434 209.111 382.377C218.362 383.256 228.28 383.29 234.541 385.724C238.29 376.034 245.408 341.588 242.342 329.883C241.553 326.872 215.356 317.637 215.059 324.01Z" fill="#2483E2" /><path d="M209.108 382.383C208.943 381.262 234.02 383.98 234.539 385.725C235.244 388.095 209.592 385.649 209.108 382.383Z" fill="#17171D" /><path d="M217.023 382.495C216.509 385.724 215.235 392.211 215.176 392.898C215.176 392.898 215.161 392.908 215.17 392.934C215.009 395.204 215.286 396.371 215.916 397.766C217.925 394.589 220.184 394.24 224.27 395.127C228.111 395.957 235.679 397.841 235.052 397.5C232.782 396.121 228.162 394.811 226.175 392.466C226.016 392.285 225.883 392.11 225.778 391.913C225.536 391.489 225.459 389.787 226.2 383.654C225.733 383.635 220.854 382.392 217.023 382.495Z" fill="#E93E72" /><path d="M216.379 399.11C216.51 399.281 216.64 399.376 216.74 399.386C217.867 399.424 218.134 396.186 218.855 396.437C228.517 399.78 236.236 400.161 236.99 399.484C237.16 399.328 237.229 399.15 237.21 398.964C237.13 398.028 235.222 396.765 234.411 396.455C231.91 395.375 229.829 394.505 226.168 392.451C226.168 392.451 220.771 394.973 215.17 392.908C215.17 392.908 215.159 392.92 215.171 392.933C214.82 395.858 215.742 398.318 216.379 399.11Z" fill="#3F4261" /><path d="M225.445 391.203C227.382 393.766 231.996 395.4 231.996 395.4C231.996 395.4 228.554 396.849 215.178 392.9C215.178 392.9 223.788 389.009 225.445 391.203Z" fill="#E93E72" /><path d="M216.741 399.386C217.868 399.424 218.135 396.186 218.856 396.437C228.518 399.78 236.237 400.161 236.991 399.484C237.162 399.328 237.23 399.15 237.212 398.964C231.96 399.674 227.317 397.944 222.389 396.557C218.649 395.507 218.397 394.636 216.998 398.456C216.916 398.582 216.639 399.376 216.741 399.386Z" fill="#2A2B3B" /><path d="M242.656 331.298C241.174 319.134 200.904 306.777 194.939 304.338C190.724 302.624 184.258 304.492 179.555 305.28C170.712 306.767 166.41 312.096 167.522 324.829C168.248 332.995 179.142 335.11 186.672 337.599C195.965 340.676 222.607 342.518 223.308 342.68C231.662 344.607 243.975 342.126 242.656 331.298Z" fill="#2483E2" /><path d="M207.088 314.423C207.088 314.423 236.724 320.084 239.074 329.777C241.426 339.47 216.79 380.594 216.79 380.594L233.452 332.435L207.088 314.423Z" fill="#17171D" /><path d="M237.199 331.666C237.185 331.641 237.185 331.616 237.185 331.591C235.698 319.432 193.447 311.329 187.482 308.89C183.267 307.176 178.777 304.789 174.073 305.575C169.17 306.401 165.668 308.403 163.718 312.193C162.128 315.244 161.54 319.447 162.041 325.126C162.766 333.292 173.66 335.407 181.191 337.896C186.882 339.784 199.076 341.198 207.844 342.059C210.684 342.336 213.16 342.548 214.936 342.711C216.637 342.861 217.7 342.949 217.837 342.974C224.903 344.6 234.797 343.086 236.873 336.02C237.161 335.106 237.299 334.093 237.286 332.979C237.274 332.566 237.249 332.116 237.199 331.666Z" fill="#4093F6" /><path d="M237.275 333.534C236.846 325.641 213.561 317.499 211.425 323.509C210.665 325.652 209.974 327.832 209.321 330.006C209.299 330.066 209.289 330.127 209.266 330.187C208.362 333.119 207.518 336.072 206.616 338.99C205.453 342.716 204.211 346.389 202.631 349.957C199 358.255 190.141 374.308 188.892 377.183C188.762 377.515 188.709 377.672 188.779 377.632C197.373 381.16 206.855 384.075 212.139 388.222C218.54 380.04 232.319 349.22 236.242 337.776C236.671 336.566 236.974 335.577 237.146 334.845C237.161 334.759 237.188 334.674 237.201 334.588C237.274 334.232 237.305 333.882 237.275 333.534Z" fill="#4093F6" /><path d="M216.1 337.733C215.887 338.657 215.475 340.41 214.936 342.71C212.284 354.104 200.452 376.157 201.164 382.035C201.164 382.035 190.131 377.444 188.78 377.632C188.78 377.632 196.196 363.055 201.112 353.262C202.862 349.776 204.742 345.667 205.28 341.801C196.512 340.939 186.882 339.784 181.191 337.896C173.66 335.407 162.767 333.292 162.041 325.126C161.54 319.447 162.128 315.245 163.718 312.193L167.356 309.904C167.356 309.904 176.087 327.177 191.609 330.304C198.725 331.741 204.73 332.267 209.02 332.943C214.086 333.742 216.774 334.755 216.1 337.733Z" fill="#2483E2" /><path d="M188.771 377.636C188.939 376.517 212.145 386.402 212.135 388.221C212.121 390.695 188.286 380.902 188.771 377.636Z" fill="#17171D" /><path d="M240.872 272.526C240.899 272.489 240.934 272.458 240.959 272.419C241.342 271.839 240.27 271.085 239.887 271.666C239.861 271.706 239.82 271.733 239.791 271.77C239.695 271.42 239.21 271.057 238.654 271.486C238.494 271.611 236.24 273.404 233.759 273.676C234.153 273.275 234.823 272.617 235.41 272.328C236.033 272.022 235.599 271.02 234.976 271.335C234.877 271.385 234.079 271.813 233.989 271.904C231.262 273.589 228.982 276.258 227.335 278.996C227.032 279.42 226.742 279.858 226.483 280.324C226.392 280.492 226.456 280.722 226.561 280.864C227.099 281.586 228.633 282.869 229.372 283.383C229.448 283.435 229.529 283.458 229.609 283.47C229.533 284.032 230.398 284.338 230.637 283.74C231.276 282.144 232.866 279.432 232.883 279.411C235.799 278.425 238.604 277.421 241.014 275.502C241.501 275.115 240.999 274.26 240.504 274.416C240.498 274.414 240.492 274.409 240.485 274.407C240.493 274.402 240.499 274.394 240.507 274.388C240.659 274.287 241.273 273.704 241.432 273.5C241.737 273.107 241.253 272.549 240.872 272.526Z" fill="#EA3E72" /><path d="M234.466 274.972C234.395 274.972 234.333 274.925 234.315 274.852C234.294 274.77 234.345 274.684 234.43 274.664C237.115 274.005 239.659 271.679 239.685 271.656C239.748 271.596 239.847 271.601 239.906 271.665C239.965 271.729 239.961 271.828 239.897 271.887C239.791 271.984 237.271 274.291 234.503 274.968C234.491 274.971 234.479 274.972 234.466 274.972Z" fill="#2A2B3C" /><path d="M235.137 276.232C235.063 276.232 234.998 276.181 234.983 276.106C234.967 276.021 235.022 275.938 235.107 275.922C237.362 275.481 240.733 272.441 240.767 272.41C240.828 272.352 240.929 272.356 240.988 272.421C241.046 272.485 241.041 272.584 240.977 272.642C240.837 272.77 237.509 275.772 235.167 276.229C235.156 276.231 235.146 276.232 235.137 276.232Z" fill="#2A2B3C" /><path d="M235.793 277.218C235.724 277.218 235.662 277.173 235.643 277.103C235.619 277.02 235.669 276.932 235.752 276.911C237.441 276.446 240.381 274.311 240.412 274.29C240.479 274.236 240.578 274.252 240.629 274.323C240.681 274.393 240.666 274.491 240.596 274.541C240.473 274.63 237.58 276.732 235.835 277.211C235.82 277.216 235.807 277.218 235.793 277.218Z" fill="#2A2B3C" /><path d="M182.902 260.79C186.373 258.167 201.418 277.67 214.55 287.548C223.937 294.61 207.675 305.982 204.692 304.224C201.71 302.465 175.769 266.178 182.902 260.79Z" fill="#EDF1F4" /><path d="M227.858 273.973C218.283 278.115 210.048 286.595 204.787 290.461C199.525 294.326 203.383 304.202 205.561 304.334C207.74 304.464 226.496 299.044 234.388 291.56C234.388 291.56 229.78 273.142 227.858 273.973Z" fill="#EDF1F4" /><path d="M187.721 265.043C187.721 265.043 203.771 295.37 208.919 297.727C214.069 300.086 234.384 291.56 234.384 291.56C234.384 291.56 229.785 295.986 218.808 300.811C208.921 305.159 205.532 305.162 204.688 304.223C185.112 282.456 189.956 284.883 187.721 265.043Z" fill="#E4EAEF" /><path d="M153.529 314.548C153.529 314.548 159.235 265.993 170.14 261.332C179.051 257.525 187.357 260.066 189.02 269.495C190.547 278.148 193.404 289.43 195.19 293.905C196.922 298.245 202.372 306.791 202.372 306.791C202.372 306.791 175.716 318.806 153.529 314.548Z" fill="#EDF1F4" /><path d="M183.313 254.564C183.313 254.564 182.111 259.186 182.019 260.314C181.991 260.659 181.363 261.765 180.797 262.207C178.612 260.853 176.909 261.321 176.209 260.707C176.622 259.276 177.617 257.416 177.955 254.926C178.291 252.436 183.313 254.564 183.313 254.564Z" fill="#E93E72" /><path d="M175.891 250.915C175.891 250.915 178.396 257.307 182.607 256.574C186.82 255.842 182.314 247.23 181.634 247.108C180.952 246.986 176.689 246.937 175.891 250.915Z" fill="#E93E72" /><path d="M179.028 244.961C178.986 244.978 178.959 245.006 178.924 245.029C175.697 244.484 173.584 248.19 174.451 251.35C174.78 252.547 176.287 254.567 177.639 253.24C178.312 252.58 178.341 251.157 178.439 250.295C178.489 249.854 178.5 249.424 178.49 248.996C178.737 249.042 178.993 249.06 179.255 249.062C181.054 249.315 182.859 249.485 184.676 249.529C185.022 249.539 185.291 249.236 185.301 248.903C185.398 245.915 181.615 243.94 179.028 244.961Z" fill="#2A2B3C" /><path d="M180.796 262.208L179.708 259.277L176.634 259.484L173.617 260.074L180.796 262.208Z" fill="#FFD357" /><path d="M180.795 262.207L181.703 259.143L183.007 260.946L180.795 262.207Z" fill="#FFD357" /><path d="M171.304 264.299C171.304 264.299 180.848 278.437 183.056 292.479C185.263 306.524 195.188 309.559 195.188 309.559C195.188 309.559 175.401 318.402 153.527 314.548C153.527 314.548 159.276 274.143 171.304 264.299Z" fill="#E4EAEF" /><path d="M189.485 320.307C188.854 318.542 187.936 317.037 186.649 315.688C186.66 315.651 186.657 315.614 186.665 315.578C187.808 316.253 188.87 317.102 189.815 318.383C190.294 319.032 191.23 318.2 190.755 317.556C189.047 315.241 186.972 313.864 184.282 312.917C180.506 311.588 176.588 309.329 173.758 306.473C173.681 306.396 173.597 306.348 173.512 306.318C173.302 306.18 173.019 306.139 172.764 306.328C171.191 307.477 169.62 308.625 168.048 309.773C167.717 310.014 167.799 310.565 168.118 310.766C171.142 312.677 174.33 314.441 177.588 315.923C178.49 316.332 179.334 316.608 180.307 316.831C181.442 317.09 182.815 317.153 183.821 317.816C185.03 318.613 185.584 319.955 186.134 321.201C186.4 321.802 187.183 321.536 187.289 321.019C187.293 321.026 187.295 321.032 187.299 321.039C187.537 321.609 188.241 321.413 188.423 320.961C188.759 321.545 189.738 321.014 189.485 320.307Z" fill="#EA3E72" /><path d="M188.077 317.629C188.017 317.629 187.96 317.594 187.935 317.535C187.767 317.151 186.867 316.149 186.535 315.794C186.475 315.73 186.479 315.632 186.541 315.573C186.605 315.51 186.704 315.518 186.763 315.579C186.814 315.633 187.998 316.899 188.221 317.41C188.256 317.489 188.22 317.581 188.141 317.615C188.12 317.625 188.097 317.629 188.077 317.629Z" fill="#2A2B3C" /><path d="M188.424 321.115C188.358 321.115 188.297 321.073 188.277 321.007C188.267 320.981 187.367 318.33 185.448 316.369C185.386 316.307 185.388 316.208 185.449 316.148C185.513 316.085 185.611 316.089 185.67 316.149C187.643 318.164 188.563 320.881 188.572 320.909C188.599 320.991 188.556 321.08 188.474 321.106C188.457 321.113 188.441 321.115 188.424 321.115Z" fill="#2A2B3C" /><path d="M187.287 321.174C187.224 321.174 187.165 321.136 187.141 321.075C187.13 321.049 186.048 318.35 184.655 317.264C184.587 317.212 184.576 317.113 184.629 317.044C184.681 316.975 184.78 316.965 184.849 317.018C186.308 318.156 187.388 320.846 187.433 320.96C187.464 321.039 187.425 321.131 187.345 321.163C187.325 321.17 187.305 321.174 187.287 321.174Z" fill="#2A2B3C" /><path d="M170.374 264.88C174.408 266.51 171.147 291.738 164.758 301.594C158.368 311.451 144.355 309.367 144.33 305.905C144.304 302.443 162.084 261.534 170.374 264.88Z" fill="white" /><path d="M182.186 310.216C173.711 304.135 162.202 301.434 156.181 298.909C150.16 296.382 143.674 304.772 144.683 306.707C145.689 308.643 159.985 321.941 170.46 324.861C170.46 324.861 183.887 311.437 182.186 310.216Z" fill="white" /><path d="M157.143 277.67C157.143 277.67 150.244 297.733 150.869 303.361C151.494 308.99 170.459 324.86 170.459 324.86C170.459 324.86 164.297 323.192 154.514 316.259C145.701 310.014 144.082 307.141 144.328 305.904C144.573 304.667 147.467 293.514 157.143 277.67Z" fill="#EDF1F4" /><path d="M195.473 379.727C194.614 381.654 192.828 384.858 192.431 385.425C192.431 385.425 192.412 385.426 192.406 385.452C191.128 387.336 190.78 388.484 190.625 390.006C193.957 388.268 196.087 389.1 199.175 391.919C202.079 394.567 207.678 399.996 207.306 399.388C206.034 397.055 202.698 393.601 202.159 390.574C202.112 390.339 202.084 390.12 202.092 389.898C202.095 389.409 203.367 385.646 204.326 383.559C203.932 383.307 198.241 380.713 195.473 379.727Z" fill="#E93E72" /><path d="M190.351 391.401C190.378 391.615 190.441 391.761 190.524 391.82C191.481 392.419 193.337 389.753 193.835 390.333C200.51 398.075 206.996 402.281 207.987 402.074C208.213 402.024 208.362 401.907 208.438 401.735C208.837 400.885 207.823 398.836 207.276 398.161C205.655 395.97 204.292 394.174 202.158 390.559C202.158 390.559 196.226 390.029 192.419 385.43C192.419 385.43 192.401 385.435 192.408 385.452C190.634 387.805 190.195 390.394 190.351 391.401Z" fill="#3F4261" /><path d="M202.159 389.115C202.548 392.304 205.717 396.036 205.717 396.036C205.717 396.036 202.012 395.56 192.428 385.428C192.428 385.428 201.828 386.386 202.159 389.115Z" fill="#E93E72" /><path d="M190.525 391.82C191.482 392.419 193.338 389.754 193.836 390.333C200.511 398.075 206.997 402.281 207.988 402.075C208.214 402.025 208.363 401.907 208.439 401.736C203.54 399.713 200.393 395.884 196.83 392.211C194.123 389.425 194.341 388.545 191.215 391.146C191.08 391.212 190.442 391.761 190.525 391.82Z" fill="#2A2B3B" /><path d="M182.589 260.571C179.782 257.873 177.923 254.691 177.983 250.713V250.71C178.623 249.417 179.76 247.527 178.756 246.383C177.957 245.472 178.132 244.846 177.144 245.175C173.972 246.23 171.941 250.399 170.706 253.439C169.96 255.278 168.629 260.625 169.29 261.458C170.452 262.923 180.16 262.497 182.313 261.616C182.726 261.447 182.962 260.929 182.589 260.571Z" fill="#2A2B3C" /><path d="M178.295 251.679C178.295 251.679 177.408 250.59 176.288 251.001C175.166 251.413 175.467 254.224 177.474 254.06C179.482 253.897 178.295 251.679 178.295 251.679Z" fill="#E93E72" /><path d="M177.908 253.486C177.679 253.319 177.385 253.652 177.618 253.82C177.977 254.081 178.52 254.91 177.936 255.228C177.413 255.512 176.452 254.925 176.882 254.315C177.046 254.082 176.714 253.79 176.549 254.024C175.912 254.925 176.906 255.91 177.864 255.716C179.049 255.473 178.631 254.009 177.908 253.486Z" fill="#FFD357" /><path d="M146.161 331.552L144.93 331.33L132.437 400.516L133.668 400.738L146.161 331.552Z" fill="#2A2B3B" /><path d="M187.642 400.493L175.135 331.314L173.904 331.537L186.411 400.716L187.642 400.493Z" fill="#2A2B3B" /><path d="M176.642 400.494L164.135 331.315L162.904 331.538L175.411 400.717L176.642 400.494Z" fill="#2A2B3B" /><path d="M130.871 295.331C130.871 295.331 159.86 314.243 182.334 338.245C182.334 338.245 155.842 341.391 142.524 330.014C129.207 318.638 130.871 295.331 130.871 295.331Z" fill="#E93E72" /><path d="M179.522 357.611H140.711V358.862H179.522V357.611Z" fill="#2A2B3B" /><path d="M374.397 306.396H197.627V309.732H374.397V306.396Z" fill="#2A2B3B" /><path d="M197.835 401.245C197.808 401.245 197.779 401.243 197.75 401.238C197.409 401.193 197.168 400.878 197.215 400.534L209.722 307.98C209.767 307.638 210.081 307.392 210.426 307.445C210.768 307.49 211.008 307.805 210.962 308.149L198.454 400.703C198.412 401.017 198.143 401.245 197.835 401.245Z" fill="#2A2B3C" /><path d="M251.797 401.244C251.489 401.244 251.22 401.017 251.179 400.703L238.672 308.148C238.625 307.806 238.864 307.49 239.207 307.444C239.549 307.389 239.864 307.637 239.911 307.98L252.419 400.534C252.465 400.877 252.226 401.192 251.883 401.238C251.853 401.243 251.824 401.244 251.797 401.244Z" fill="#2A2B3C" /><path d="M312.218 401.245C312.19 401.245 312.162 401.243 312.133 401.238C311.791 401.193 311.551 400.878 311.598 400.534L324.105 307.98C324.15 307.638 324.456 307.392 324.809 307.445C325.15 307.49 325.391 307.805 325.344 308.149L312.837 400.703C312.794 401.017 312.527 401.245 312.218 401.245Z" fill="#2A2B3C" /><path d="M366.184 401.244C365.876 401.244 365.607 401.017 365.566 400.703L353.058 308.148C353.012 307.806 353.251 307.49 353.594 307.444C353.944 307.389 354.252 307.637 354.298 307.98L366.805 400.534C366.852 400.877 366.613 401.192 366.27 401.238C366.24 401.243 366.211 401.244 366.184 401.244Z" fill="#2A2B3C" /><path d="M272.391 302.233H237.352L246.109 279.346H281.15L272.391 302.233Z" fill="#E4EAEF" /><path d="M268.912 302.233H239.791L248.016 280.674H277.138L268.912 302.233Z" fill="white" /><path d="M258.497 293.862H245.037L248.639 284.423H262.099L258.497 293.862Z" fill="#E4EAEF" /><path d="M271.492 289.142H261.877L263.678 284.423H273.293L271.492 289.142Z" fill="#E4EAEF" /><path d="M272.392 302.233H206.713V306.395H272.392V302.233Z" fill="#E4EAEF" /><path d="M271.211 290.476H261.487V291.101H271.211V290.476Z" fill="#C4CFD9" /><path d="M270.43 292.641H260.705V293.266H270.43V292.641Z" fill="#C4CFD9" /><path d="M269.383 295.996H244.473V296.621H269.383V295.996Z" fill="#C4CFD9" /><path d="M268.235 298.959H243.324V299.584H268.235V298.959Z" fill="#C4CFD9" /><path d="M275.946 302.233H271.211L279.969 279.346H284.703L275.946 302.233Z" fill="#BED0E2" /><path d="M275.946 302.232H225.42V306.394H275.946V302.232Z" fill="#BED0E2" /><path d="M128.684 250.821H50.1934V260.207H128.684V250.821Z" fill="white" /><path d="M99.1326 213.762H89.4395V250.821H99.1326V213.762Z" fill="#92CEFF" /><path d="M101.249 213.762H99.1328V250.821H101.249V213.762Z" fill="white" /><path d="M87.8154 215.66L78.5371 212.854L67.8081 248.328L77.0864 251.134L87.8154 215.66Z" fill="#92CEFF" /><path d="M77.1029 251.127L79.1288 251.739L89.8426 216.262L87.8167 215.651L77.1029 251.127Z" fill="white" /><path d="M111.397 224.237H102.572V250.822H111.397V224.237Z" fill="#FFD357" /><path d="M113.324 224.237H111.396V250.822H113.324V224.237Z" fill="white" /><path d="M86.4987 367.427C85.5819 364.081 84.8778 359.286 82.5514 356.557C78.4565 351.752 64.1068 363.692 64.886 363.481C67.7414 362.708 70.7495 361.52 73.6749 361.101C78.3214 360.434 79.9686 363.691 81.6609 367.257C83.9409 372.065 85.238 377.225 88.2848 381.657C88.7 382.26 89.538 381.872 89.4279 381.174C88.695 376.54 87.7394 371.952 86.4987 367.427Z" fill="#92CEFF" /><path d="M93.5274 363.231C93.3873 358.658 93.7501 352.179 91.455 348.04C89.4138 344.363 83.8755 343.495 80.2059 342.485C74.6501 340.953 62.4092 340.499 63.077 340.677C67.3483 341.817 71.6558 342.866 75.8983 344.113C80.9425 345.598 84.2632 348.161 85.7391 353.369C88.2581 362.266 89.3913 371.766 91.1373 380.848C91.1811 381.076 91.3161 381.2 91.4762 381.257C91.7389 381.651 92.5619 381.535 92.6432 380.897C93.3823 375.035 93.7088 369.139 93.5274 363.231Z" fill="#92CEFF" /><path d="M76.8731 320.81C85.747 339.522 93.2827 358.049 91.9869 377.634C91.9732 377.834 92.067 377.983 92.2171 378.083C92.037 378.662 91.8831 379.244 91.683 379.819C91.4116 380.6 93.1013 380.951 93.304 380.152C102.432 344.155 76.5029 320.024 76.8731 320.81Z" fill="#343751" /><path d="M116.475 333.157C110.26 337.763 104.454 343.285 101.427 350.55C97.8738 359.075 98.7268 368.659 95.535 377.3C95.4612 377.498 95.4937 377.664 95.5825 377.793C95.5775 377.806 95.5725 377.818 95.5675 377.829C95.2886 378.585 96.498 378.911 96.7744 378.162C99.7462 370.079 102.325 361.682 105.922 353.853C109.124 346.884 114.273 341.122 117.33 334.014C117.543 333.518 117.043 332.737 116.475 333.157Z" fill="#92CEFF" /><path d="M122.457 375.496C120.145 369.226 116.954 365.032 109.742 365.887C102.999 366.686 99.2182 370.603 95.6623 376.011C95.6148 376.07 95.5785 376.129 95.5598 376.191C95.2383 376.821 96.1789 377.362 96.6241 376.799L96.6254 376.798C100.359 373.751 104.126 370.916 109.163 370.917C113.425 370.92 119.071 371.939 121.314 375.979C121.649 376.582 122.706 376.174 122.457 375.496Z" fill="#343751" /><path d="M99.4047 399.578H85.6141L81.6505 375.521H103.368L99.4047 399.578Z" fill="#BED0E2" /><defs><linearGradient id="paint0_linear_435_1340" x1="352.963" y1="294.732" x2="352.963" y2="195.042" gradientUnits="userSpaceOnUse"><stop stop-color="white" stop-opacity="0" /><stop offset="1" stop-color="#F8CB3D" /></linearGradient><linearGradient id="paint1_linear_435_1340" x1="353.554" y1="179.8" x2="353.554" y2="153.001" gradientUnits="userSpaceOnUse"><stop stop-color="#4093F5" /><stop offset="1" stop-color="white" stop-opacity="0" /></linearGradient><linearGradient id="paint2_linear_435_1340" x1="260.435" y1="294.731" x2="260.435" y2="195.042" gradientUnits="userSpaceOnUse"><stop stop-color="white" stop-opacity="0" /><stop offset="1" stop-color="#F8CB3D" /></linearGradient><linearGradient id="paint3_linear_435_1340" x1="261.027" y1="179.8" x2="261.027" y2="153.001" gradientUnits="userSpaceOnUse"><stop stop-color="#4093F5" /><stop offset="1" stop-color="white" stop-opacity="0" /></linearGradient></defs></svg> 