<svg width="560" height="560" viewBox="0 0 560 560" fill="none" xmlns="http://www.w3.org/2000/svg"><rect width="560" height="560" fill="#E6EFF7" /><path d="M454.555 281.738L452.992 281.428L459.057 248.594L437.483 223.555L428.496 230.806L427.494 229.565L437.683 221.344L460.773 248.142L454.555 281.738Z" fill="white" /><path d="M431.047 224.335C431.347 224.053 432.633 224.929 433.917 226.293C435.202 227.656 436.001 228.992 435.701 229.276L428.198 242.559L417.34 231.032L431.047 224.335Z" fill="#BED0E2" /><path d="M423.555 235.984C420.557 232.801 417.727 230.597 417.234 231.062C416.741 231.526 418.772 234.482 421.77 237.665C424.769 240.848 427.599 243.051 428.091 242.587C428.584 242.123 426.553 239.167 423.555 235.984Z" fill="white" /><path d="M440.846 288.481H466.71L465.115 283.882H442.439L440.846 288.481Z" fill="white" /><path d="M448.463 283.882H459.088L458.432 279.284H449.119L448.463 283.882Z" fill="#BED0E2" /><path d="M280 376.748C407.026 376.748 510 374.119 510 370.876C510 367.633 407.026 365.004 280 365.004C152.975 365.004 50 367.633 50 370.876C50 374.119 152.975 376.748 280 376.748Z" fill="#DFEAC6" /><path d="M406.236 262.895L406.256 271.443L438.142 271.327L438.122 262.778L406.236 262.895Z" fill="#EA3E72" /><path d="M404.115 262.895L404.136 271.443L436.023 271.327L436.002 262.778L404.115 262.895Z" fill="#EDF1F4" /><path d="M438.121 262.778H402.475V264.194H438.121V262.778Z" fill="#EA3E72" /><path d="M438.121 269.884H402.475V271.301H438.121V269.884Z" fill="#EA3E72" /><path d="M400.454 271.077L400.48 279.626L438.807 279.507L438.78 270.958L400.454 271.077Z" fill="#4093F6" /><path d="M397.82 271.051L397.846 279.6L436.171 279.485L436.145 270.936L397.82 271.051Z" fill="#EDF1F4" /><path d="M438.687 270.944H395.842V272.36H438.687V270.944Z" fill="#4093F6" /><path d="M438.687 278.049H395.842V279.466H438.687V278.049Z" fill="#4093F6" /><path d="M406.648 279.337L406.667 288.488L436.475 288.399L436.456 279.247L406.648 279.337Z" fill="#EDF1F4" /><path d="M404.668 279.337L404.688 288.488L434.494 288.399L434.476 279.247L404.668 279.337Z" fill="#92CEFF" /><path d="M436.457 279.247H432.369V280.349H436.457V279.247Z" fill="#92CEFF" /><path d="M436.457 287.275H432.369V288.376H436.457V287.275Z" fill="#92CEFF" /><path d="M466.247 288.328H395.719V372.053H466.247V288.328Z" fill="#B1C3D5" /><path d="M468.956 288.328H398.428V372.053H468.956V288.328Z" fill="#EDF1F4" /><path d="M465.408 292.42H402.182V308.137H465.408V292.42Z" fill="white" /><path d="M402.184 292.42H401.082V308.137H402.184V292.42Z" fill="#B1C3D5" /><path d="M465.408 311.199H402.182V326.916H465.408V311.199Z" fill="white" /><path d="M402.184 311.199H401.082V326.916H402.184V311.199Z" fill="#B1C3D5" /><path d="M465.408 333.297H402.182V349.014H465.408V333.297Z" fill="white" /><path d="M402.184 333.297H401.082V349.014H402.184V333.297Z" fill="#B1C3D5" /><path d="M465.408 352.076H402.182V367.793H465.408V352.076Z" fill="white" /><path d="M402.184 352.076H401.082V367.793H402.184V352.076Z" fill="#B1C3D5" /><path d="M433.795 302.993C435.293 302.993 436.508 301.778 436.508 300.28C436.508 298.782 435.293 297.567 433.795 297.567C432.297 297.567 431.082 298.782 431.082 300.28C431.082 301.778 432.297 302.993 433.795 302.993Z" fill="#B1C3D5" /><path d="M433.795 321.77C435.293 321.77 436.508 320.556 436.508 319.058C436.508 317.559 435.293 316.345 433.795 316.345C432.297 316.345 431.082 317.559 431.082 319.058C431.082 320.556 432.297 321.77 433.795 321.77Z" fill="#B1C3D5" /><path d="M433.795 344.022C435.293 344.022 436.508 342.808 436.508 341.309C436.508 339.811 435.293 338.597 433.795 338.597C432.297 338.597 431.082 339.811 431.082 341.309C431.082 342.808 432.297 344.022 433.795 344.022Z" fill="#B1C3D5" /><path d="M433.795 362.801C435.293 362.801 436.508 361.586 436.508 360.088C436.508 358.59 435.293 357.375 433.795 357.375C432.297 357.375 431.082 358.59 431.082 360.088C431.082 361.586 432.297 362.801 433.795 362.801Z" fill="#B1C3D5" /><path d="M174.633 363.866C172.107 362.874 167.578 362.516 165.483 360.494C165.311 360.335 165.165 360.166 165.04 359.986C164.241 358.883 164.023 358.318 163.655 355.961C160.956 355.611 157.207 356.309 154.482 357.737C154.592 359.476 154.54 360.238 154.582 362.024C154.582 362.024 154.576 362.041 154.587 362.062C154.639 363.877 155.488 365.872 155.978 366.909C162.264 366.386 168.457 365.483 174.633 363.866Z" fill="#4C5072" /><path d="M176.958 366.06C176.994 367.173 157.407 369.649 156.169 368.136L156.157 368.122C156.08 368.047 156.032 367.96 155.969 367.873C155.92 367.786 155.869 367.697 155.82 367.597C155.007 365.971 154.567 362.424 154.592 362.049C154.578 362.036 154.592 362.024 154.592 362.024C160.357 363.523 165.472 360.485 165.472 360.485C167.425 362.374 171.49 362.812 174.079 363.637C176.606 364.197 176.945 366.01 176.958 366.06Z" fill="#4093F6" /><path d="M177.046 366.44C177.082 367.554 157.61 370.126 156.372 368.613C156.372 368.613 156.031 367.961 155.967 367.873C162.493 368.379 171.932 366.909 176.892 365.921C176.915 365.972 177.033 366.391 177.046 366.44Z" fill="#2A2B3B" /><path d="M171.894 355.679C172.433 356.206 167.13 306.5 166.836 297.224C166.527 287.444 165.779 277.622 164.74 267.892C163.898 260.006 165.079 250.123 159.175 244.437C158.792 244.069 137.991 245.764 134.662 254.099C132.891 258.527 134.275 263.424 135.062 267.908C136.177 274.25 141.008 312.007 141.345 324.711C141.65 336.223 142.398 347.732 146.421 358.626C152.043 360.68 164.273 358.358 171.894 355.679Z" fill="#4093F6" /><path d="M145.183 262.754C145.183 262.754 148.955 308.815 150.832 316.971C152.708 325.126 154.696 352.303 160.373 358.622C160.373 358.622 151.603 360.442 146.423 358.627C146.423 358.627 142.45 347.822 141.535 330.116C140.619 312.411 133.803 273.728 133.803 273.728L145.183 262.754Z" fill="#2483E2" /><path d="M144.79 268.864L136.977 293.017L140.517 317.519L144.79 268.864Z" fill="#2A2B3B" /><path d="M164.297 268.06C163.481 268.06 161.774 267.941 160.856 267.025C159.653 265.82 159.51 255.849 159.504 255.427C159.503 255.34 159.573 255.269 159.658 255.268C159.748 255.264 159.815 255.335 159.817 255.422C159.853 258.273 160.153 265.878 161.079 266.803C162.187 267.913 164.702 267.74 164.727 267.735C164.827 267.731 164.89 267.794 164.896 267.879C164.902 267.965 164.837 268.04 164.752 268.048C164.724 268.048 164.556 268.06 164.297 268.06Z" fill="#2A2B3C" /><path d="M145.488 355.779C145.403 355.779 145.333 355.71 145.332 355.624C145.331 355.539 145.401 355.467 145.487 355.466C145.694 355.464 166.232 355.203 171.598 351.521C171.669 351.473 171.766 351.491 171.815 351.563C171.864 351.634 171.845 351.731 171.774 351.78C166.331 355.515 146.339 355.77 145.488 355.779Z" fill="#2A2B3C" /><path d="M137 311.768C127.881 312.449 119.513 310.869 110.936 308.046C112.514 298.17 112.225 287.083 113.029 279.275C113.721 272.433 114.524 266.389 115.817 261.999C120.347 246.596 129.508 253.683 145.336 254.396C147.737 262.245 137.186 310.829 137 311.768Z" fill="#4093F6" /><path d="M114.547 302.568C120.808 309.053 128.675 308.067 137 311.769C130.631 323.542 116.003 348.168 107.14 354.729C104.131 356.957 98.6074 352.543 94.7089 349.118C94.6776 349.096 94.645 349.057 94.6138 349.036C84.953 340.536 86.7329 339.264 87.0356 339.184C96.0196 336.704 104.751 315.442 114.547 302.568Z" fill="#4093F6" /><path d="M87.0351 339.182C94.8422 332.291 110.46 308.513 110.735 306.074C111.139 302.505 112.017 289.183 112.723 280.217C113.581 269.306 116.456 253.17 116.456 253.17L134.592 255.422C134.592 255.422 121.001 303.995 115.498 310.769C110.224 317.264 96.1467 340.747 94.7071 349.117C94.7071 349.117 94.6683 349.085 94.612 349.034C84.9525 340.534 86.7999 339.39 87.0351 339.182Z" fill="#2483E2" /><path d="M105.542 355.304C106.583 354.684 88.3647 338.617 86.6837 339.644C84.4236 341.02 102.649 357.05 105.542 355.304Z" fill="#2A2B3B" /><path d="M87.0066 351.131C87.4456 349.644 87.9985 348.583 89.6232 346.96C89.6332 346.936 89.6495 346.93 89.6495 346.93C90.9177 345.674 91.9658 344.853 93.1553 343.58C95.0814 345.021 98.4597 347.711 100.142 349.55C98.6824 351.436 98.5635 351.799 98.3083 353.136C98.2633 353.351 98.2408 353.574 98.242 353.806C98.2095 356.893 101.435 360.696 102.254 363.227C102.501 363.9 102.552 364.48 102.333 364.923C101.236 367.198 85.9797 354.717 87.0066 351.131Z" fill="#4C5072" /><path d="M102.409 364.64C102.399 364.747 102.369 364.822 102.321 364.915C101.198 367.377 85.5462 354.681 86.548 351.222V351.204C86.5706 351.005 86.6281 350.804 86.7044 350.601C87.3222 348.891 89.3423 347.192 89.6324 346.957C89.6312 346.939 89.6486 346.937 89.6486 346.937C92.5166 352.161 98.245 353.798 98.245 353.798C98.215 356.51 100.679 359.768 101.851 362.218C102.361 363.134 102.598 363.979 102.409 364.64Z" fill="#4093F6" /><path d="M102.409 364.64C102.399 364.747 102.369 364.823 102.321 364.915C101.198 367.378 85.5462 354.682 86.548 351.222V351.204C86.5706 351.006 86.6281 350.804 86.7044 350.602C87.2147 351.787 88.4092 354.039 90.9032 356.416C94.1276 359.497 97.6397 362.577 102.409 364.64Z" fill="#2A2B3B" /><path d="M109.893 352.469C109.843 352.469 109.795 352.445 109.765 352.401C102.859 342.361 90.2693 336.163 90.143 336.101C90.0642 336.064 90.033 335.971 90.0705 335.892C90.108 335.814 90.2031 335.784 90.2794 335.82C90.4069 335.881 103.069 342.116 110.02 352.222C110.07 352.295 110.051 352.391 109.981 352.44C109.955 352.46 109.925 352.469 109.893 352.469Z" fill="#2A2B3C" /><path d="M218.905 224.365C218.955 224.338 219.009 224.322 219.059 224.29C219.793 223.843 219.014 222.436 218.278 222.886C218.227 222.916 218.169 222.926 218.115 222.953C218.195 222.509 217.853 221.849 217.01 222.04C216.767 222.097 213.317 222.922 210.427 221.926C211.078 221.685 212.171 221.297 212.974 221.281C213.827 221.264 213.886 219.915 213.027 219.943C212.892 219.948 211.78 220.009 211.631 220.064C207.718 220.522 203.768 222.317 200.479 224.517C199.918 224.834 199.363 225.173 198.828 225.559C198.636 225.697 198.585 225.99 198.623 226.204C198.831 227.295 199.84 229.533 200.381 230.498C200.436 230.594 200.512 230.663 200.596 230.72C200.211 231.311 201.002 232.105 201.589 231.562C203.149 230.109 206.358 227.905 206.389 227.89C210.139 228.313 213.776 228.659 217.467 227.772C218.212 227.594 218.117 226.375 217.485 226.289C217.48 226.283 217.476 226.275 217.47 226.269C217.482 226.267 217.492 226.262 217.502 226.259C217.726 226.227 218.718 225.895 219.003 225.749C219.552 225.469 219.314 224.592 218.905 224.365Z" fill="#4C5072" /><path d="M212.765 223.927C212.031 223.927 211.286 223.869 210.573 223.726C210.488 223.708 210.434 223.627 210.45 223.543C210.466 223.459 210.544 223.395 210.633 223.42C213.968 224.088 218.028 222.818 218.069 222.804C218.15 222.779 218.24 222.824 218.265 222.905C218.29 222.986 218.245 223.075 218.163 223.101C218.132 223.11 215.537 223.927 212.765 223.927Z" fill="#2A2B3C" /><path d="M212.345 225.666C211.722 225.666 211.136 225.614 210.628 225.485C210.544 225.464 210.494 225.379 210.514 225.296C210.534 225.214 210.623 225.155 210.703 225.182C213.437 225.87 218.804 224.231 218.858 224.216C218.947 224.188 219.028 224.238 219.053 224.318C219.079 224.401 219.032 224.488 218.95 224.513C218.768 224.571 215.186 225.666 212.345 225.666Z" fill="#2A2B3C" /><path d="M212.212 227.033C211.709 227.033 211.239 227.005 210.839 226.936C210.755 226.921 210.697 226.841 210.711 226.755C210.726 226.671 210.8 226.613 210.892 226.627C213.012 226.993 217.414 226.143 217.456 226.133C217.544 226.124 217.625 226.17 217.64 226.257C217.655 226.343 217.601 226.424 217.516 226.441C217.368 226.471 214.46 227.033 212.212 227.033Z" fill="#2A2B3C" /><path d="M144.153 203.198C158.467 199.633 169.771 219.194 175.534 229.43C181.296 239.667 175.736 246.042 171.044 244.377C156.32 239.155 135.478 205.359 144.153 203.198Z" fill="#EDF1F4" /><path d="M200.955 219.225C190.303 220.126 173.448 224.532 168.376 228.646C163.307 232.759 170.318 244.613 172.5 244.639C174.682 244.665 195.188 242.627 206.303 234.005C206.303 234.005 203.043 219.049 200.955 219.225Z" fill="#EDF1F4" /><path d="M206.304 234.005C206.304 234.005 189.773 246.074 171.045 244.377C168.718 244.167 157.258 234.781 157.258 234.781L161.056 224.699C161.056 224.699 167.59 238.78 171.864 240.47C176.138 242.161 206.304 234.005 206.304 234.005Z" fill="#E4EAEF" /><path d="M163.712 254.362C163.712 254.362 140.212 260.638 115.412 256.217L116.177 250.341L163.712 254.362Z" fill="#2A2B3B" /><path d="M154.451 204.809C154.451 204.809 159.592 207.67 162.714 220.518C164.351 227.252 166.129 241.768 166.129 241.768L157.255 234.781L154.451 204.809Z" fill="#17171D" /><path d="M114.293 253.959C114.293 253.959 119.96 210.014 132.99 202.476C141.376 197.623 154.319 201.892 157.208 208.262C162.844 220.687 166.131 253.908 166.131 253.908C166.131 253.908 136 260.225 114.293 253.959Z" fill="#E93E72" /><path d="M147.481 194.698C147.481 194.698 147.331 199.676 147.162 200.796C147.111 201.138 146.409 202.199 145.816 202.602C143.727 201.103 141.996 201.456 141.34 200.796C141.848 199.397 142.11 197.352 142.11 194.698C142.11 192.187 147.481 194.698 147.481 194.698Z" fill="#4C5072" /><path d="M141.43 190.66C141.43 190.66 142.594 197.424 146.868 197.556C151.14 197.689 148.465 188.346 147.824 188.089C147.181 187.83 143.013 186.924 141.43 190.66Z" fill="#4C5072" /><path d="M136.115 203.494C136.115 203.494 142.428 209.592 142.303 215.74C142.18 221.89 134.883 232.312 136.03 241.38C137.177 250.448 145.333 256.488 145.333 256.488C145.333 256.488 128.631 257.374 119.667 255.422C110.703 253.47 119.223 229.253 119.223 229.253L136.115 203.494Z" fill="#D32A6B" /><path d="M136.117 203.494C146.874 213.587 130.775 233.399 122.249 241.48C113.723 249.561 104.011 237.709 104.799 234.338C105.587 230.969 128.552 196.392 136.117 203.494Z" fill="#EDF1F4" /><path d="M129.343 276.541C128.161 275.596 125.709 274.152 124.376 273.5C124.291 273.342 124.215 273.201 124.115 273.028C121.267 268.149 119.447 262.146 119.718 256.504C119.725 256.35 119.686 256.222 119.62 256.112C119.546 255.771 119.256 255.471 118.703 255.436C115.314 255.222 111.923 255.009 108.532 254.795C107.822 254.75 107.208 255.41 107.333 255.918C108.517 260.732 110.098 265.534 112.123 270.105C112.682 271.369 117.592 278.064 117.57 279.33C117.606 280.649 117.873 282.12 118.887 282.807C119.327 283.106 120.05 282.857 120.198 282.335C120.499 282.674 120.897 282.893 121.457 282.857C122.019 282.82 122.32 282.564 122.478 282.205C122.883 282.7 123.413 282.933 124.12 282.573C124.453 282.404 124.635 282.146 124.759 281.86C125.153 282.23 125.671 282.361 126.363 282.043C128.091 281.243 126.453 277.94 125.89 276.761C126.032 276.864 127.994 277.985 128.131 278.096C129.377 279.093 130.6 277.546 129.343 276.541Z" fill="#4C5072" /><path d="M127.362 270.189C128.302 259.54 124.285 238.728 121.101 233.027C117.917 227.326 105.037 232.201 104.638 234.346C104.238 236.493 103.842 261.296 110.429 273.726C110.429 273.726 127.177 272.275 127.362 270.189Z" fill="#EDF1F4" /><path d="M140.283 186.556L139.283 186.441C138.492 186.352 138.482 185.1 139.283 185.19C139.794 185.249 140.306 185.307 140.819 185.366C140.757 185.15 140.709 184.928 140.684 184.695C140.597 183.895 141.848 183.902 141.934 184.695C141.953 184.871 141.996 185.035 142.052 185.196C142.641 184.59 143.537 184.356 144.516 184.154C146.382 183.768 149.067 184.069 150.528 185.495C151.49 186.434 151.708 187.706 150.561 188.628C149.803 189.237 148.737 189.212 147.819 189.259C146.566 189.321 145.333 189.286 144.092 189.141C143.703 189.613 143.279 190.034 143.061 190.569C142.506 191.94 142.941 193.722 142.441 195.2C142.242 195.787 141.48 195.72 141.264 195.307C141.185 195.276 141.11 195.228 141.041 195.142C140.939 195.011 140.829 194.866 140.721 194.716C140.67 194.689 140.616 194.67 140.567 194.627C138.007 192.398 138.041 188.766 140.283 186.556Z" fill="#17171D" /><path d="M143.632 191.891C143.632 191.891 142.983 190.644 141.803 190.823C140.622 191.001 140.349 193.815 142.349 194.06C144.348 194.304 143.632 191.891 143.632 191.891Z" fill="#4C5072" /><path d="M123.772 208.572C123.772 208.572 108.577 222.469 104.638 234.345C100.7 246.222 108.589 271.418 110.429 273.725C110.429 273.725 105.806 241.532 108.517 235.591C111.227 229.65 123.772 208.572 123.772 208.572Z" fill="#E4EAEF" /><path d="M145.815 202.603L144.376 205.535L140.533 200.402L141.54 200.16L145.815 202.603Z" fill="#F2F8FF" /><path d="M145.814 202.602L147.981 204.164V201.4L147.16 200.795L145.814 202.602Z" fill="#F2F8FF" /><path d="M227.87 224.352L187.447 225.679L187.505 227.449L227.928 226.122L227.87 224.352Z" fill="#AABFCE" /><path d="M187.45 227.375L169.09 225.155L169.031 223.385L187.392 225.605L187.45 227.375Z" fill="#BED0E2" /><path d="M169.031 223.385L214.855 220.534L227.811 224.278L187.392 225.605L169.031 223.385Z" fill="#DCE8EF" /><path d="M226.676 224.314L186.494 225.207L190.903 200.631L230.588 199.307L231.98 200.211L226.676 224.314Z" fill="#DCE8EF" /><path d="M227.655 224.283L187.395 225.605L191.536 201.962L231.98 200.211L227.655 224.283Z" fill="#BED0E2" /><path d="M249.674 236.465C249.62 236.441 249.566 236.431 249.514 236.404C248.746 236.017 249.405 234.552 250.177 234.939C250.231 234.966 250.289 234.969 250.343 234.992C250.226 234.557 250.512 233.871 251.369 233.991C251.615 234.026 255.124 234.564 257.919 233.333C257.25 233.147 256.129 232.851 255.327 232.901C254.476 232.954 254.308 231.616 255.165 231.571C255.299 231.564 256.411 231.533 256.564 231.576C260.503 231.707 264.588 233.168 268.047 235.091C268.635 235.361 269.214 235.653 269.781 235.994C269.982 236.115 270.06 236.401 270.037 236.619C269.921 237.722 269.101 240.037 268.64 241.043C268.594 241.143 268.523 241.218 268.445 241.281C268.878 241.837 268.155 242.695 267.527 242.201C265.851 240.882 262.47 238.95 262.439 238.94C258.738 239.672 255.14 240.32 251.388 239.741C250.632 239.623 250.626 238.403 251.249 238.262C251.249 238.262 251.256 238.249 251.262 238.242C251.251 238.241 251.239 238.237 251.239 238.237C251.004 238.22 249.988 237.974 249.693 237.851C249.121 237.618 249.283 236.724 249.674 236.465Z" fill="#565B82" /><path d="M254.441 235.573C252.208 235.573 250.336 235.152 250.307 235.145C250.223 235.125 250.171 235.042 250.189 234.958C250.208 234.874 250.291 234.825 250.377 234.84C250.417 234.849 254.573 235.783 257.838 234.838C257.918 234.815 258.009 234.86 258.032 234.944C258.057 235.027 258.008 235.114 257.925 235.138C256.801 235.464 255.575 235.573 254.441 235.573Z" fill="#2A2B3C" /><path d="M255.199 237.263C252.608 237.263 249.804 236.654 249.642 236.618C249.558 236.599 249.505 236.515 249.523 236.432C249.542 236.35 249.617 236.299 249.709 236.313C249.763 236.325 255.24 237.516 257.915 236.602C257.994 236.574 258.085 236.617 258.113 236.699C258.14 236.779 258.097 236.869 258.015 236.897C257.231 237.167 256.232 237.263 255.199 237.263Z" fill="#2A2B3C" /><path d="M254.993 238.629C253.146 238.629 251.348 238.434 251.23 238.42C251.145 238.41 251.083 238.334 251.093 238.248C251.103 238.161 251.188 238.101 251.265 238.11C251.31 238.114 255.763 238.6 257.849 238.057C257.928 238.031 258.018 238.085 258.039 238.17C258.062 238.253 258.012 238.339 257.927 238.36C257.144 238.563 256.059 238.629 254.993 238.629Z" fill="#2A2B3C" /><path d="M322.211 204.916C319.081 201.895 293.579 220.731 287.176 230.58C280.775 240.428 292.163 246.789 295.336 245.405C298.509 244.02 328.641 211.127 322.211 204.916Z" fill="#4093F6" /><path d="M261.848 229.196C272.273 228.783 286.856 226.467 293.273 227.672C299.689 228.878 296.593 243.813 294.687 244.876C292.781 245.938 273.526 249.174 263.173 245.846C263.173 245.846 262.629 235.346 261.848 229.196Z" fill="#4093F6" /><path d="M293.491 241.391C290.118 242.778 278.38 246.15 271.07 247.185C279.15 248.046 294.205 245.966 295.335 245.404C298.588 243.788 305.374 237.495 315.909 222.208C315.909 222.208 300.204 238.629 293.491 241.391Z" fill="#2483E2" /><path d="M312.901 207.301L310.359 230.106C310.359 230.106 306.937 235.804 303.252 238.543C307.84 224.751 307.676 211.573 312.901 207.301Z" fill="#2A2B3C" /><path d="M303.92 249.904C303.576 249.966 304.688 287.25 304.127 303.263C303.673 316.083 302.005 342.398 295.79 350.38C295.525 350.719 295.476 351.337 295.976 351.439C302.368 352.824 308.295 353.366 313.482 353.401C313.52 353.407 313.571 353.398 313.611 353.404C326.477 353.481 334.824 350.545 334.651 350.284C326.331 337.414 331.088 301.955 333.95 281.28C334.907 274.469 335.562 268.408 335.351 263.835C334.614 247.797 319.464 252.976 303.92 249.904Z" fill="#3F4261" /><path d="M333.951 281.28C331.089 301.955 329.008 336.992 334.651 350.283C334.774 350.571 326.478 353.48 313.611 353.404C313.535 353.404 313.482 353.4 313.482 353.4C317.976 346.192 324.022 323.994 324.45 315.639C324.88 307.281 320.584 261.262 320.584 261.262L333.701 270.083L333.951 281.28Z" fill="#343751" /><path d="M295.604 351.052C295.123 349.918 302.537 348.964 311.041 348.566C311.507 348.547 311.974 348.53 312.453 348.507C315.431 348.4 318.509 348.352 321.387 348.39C321.912 348.412 322.448 348.418 322.957 348.43C328.854 348.595 336.062 349.725 334.653 350.287C318.434 356.755 296.913 354.224 295.604 351.052Z" fill="#2A2B3B" /><path d="M331.462 307.988C340.604 307.745 348.768 305.33 357.018 301.655C354.45 291.988 353.618 280.931 352.032 273.243C350.653 266.504 349.244 260.575 347.516 256.335C341.453 241.467 334.267 250.671 318.592 252.976C316.994 261.03 331.182 307.071 331.462 307.988Z" fill="#3F4261" /><path d="M352.874 296.568C347.299 303.651 339.372 303.465 331.465 307.988C338.988 319.059 357.467 340.404 358.99 349.428C359.063 349.854 359.484 350.306 359.898 350.006C365.239 346.23 369.642 342.229 373.175 338.429C373.205 338.404 373.233 338.362 373.262 338.338C382.015 328.906 385.492 320.769 385.183 320.72C375.994 319.159 363.92 308.387 352.874 296.568Z" fill="#3F4261" /><path d="M385.182 320.719C377.546 318.013 357.538 302.071 357.018 299.672C356.256 296.163 354.037 282.997 352.431 274.149C350.478 263.38 346.803 252.977 346.803 252.977L330.127 255.02C330.127 255.02 346.594 298.64 352.752 304.824C358.655 310.753 370.896 330.246 373.172 338.428C373.172 338.428 373.209 338.393 373.26 338.337C382.013 328.905 385.477 320.824 385.182 320.719Z" fill="#343751" /><path d="M359.356 350.021C358.196 349.609 362.504 343.499 367.956 336.964C368.259 336.607 368.559 336.251 368.868 335.883C370.803 333.615 372.848 331.315 374.819 329.219C375.191 328.847 375.557 328.458 375.91 328.091C380.016 323.855 385.722 319.308 385.184 320.725C378.989 337.046 362.579 351.199 359.356 350.021Z" fill="#2A2B3B" /><path d="M351.173 255.717C351.173 255.717 339.804 207.885 328.519 204.242C319.298 201.264 311.265 204.555 310.463 214.095C309.723 222.904 306.193 236.026 304.852 240.501C303.509 244.976 299.414 253.256 299.414 253.256C299.414 253.256 329.467 261.982 351.173 255.717Z" fill="#4093F6" /><path d="M314.754 198.596C314.754 198.596 316.426 203.714 316.594 204.832C316.645 205.175 321.597 204.908 322.253 204.246C321.747 202.848 320.626 201.058 320.123 198.595C319.621 196.135 314.754 198.596 314.754 198.596Z" fill="#4C5072" /><path d="M321.917 194.456C321.917 194.456 319.848 201.002 315.594 200.554C311.344 200.107 315.259 191.212 315.932 191.043C316.603 190.877 320.854 190.54 321.917 194.456Z" fill="#4C5072" /><path d="M317.569 188.961C316.375 188.808 315.258 188.823 314.364 189.529C313.378 190.304 312.979 192.138 313.218 193.601C313.415 193.621 313.621 193.64 313.823 193.66C313.99 193.168 314.068 192.651 314.15 192.138C314.276 191.344 314.385 193.27 314.273 193.682C314.809 193.694 316.17 193.729 316.677 193.637C317.552 193.481 318.351 192.938 319.186 192.568C319.199 193.045 319.243 193.522 319.33 194.006C319.487 194.861 319.612 196.278 320.326 196.892C321.764 198.125 323.131 196.009 323.38 194.792C324.098 191.258 320.79 188.377 317.569 188.961Z" fill="#2A2B3C" /><path d="M319.628 197.953L319.615 197.64C320.961 197.59 321.999 197.133 322.702 196.282C324.138 194.538 323.713 191.692 323.709 191.664L324.017 191.615C324.037 191.738 324.469 194.627 322.945 196.481C322.183 197.404 321.066 197.899 319.628 197.953Z" fill="#2A2B3C" /><path d="M319.564 195.378C319.564 195.378 320.374 194.231 321.523 194.568C322.668 194.903 322.557 197.728 320.543 197.7C318.531 197.672 319.564 195.378 319.564 195.378Z" fill="#4C5072" /><path d="M320.076 197.156C320.293 196.975 320.608 197.286 320.388 197.47C320.047 197.754 319.563 198.618 320.166 198.896C320.707 199.144 321.625 198.495 321.155 197.913C320.976 197.694 321.286 197.378 321.468 197.6C322.163 198.458 321.238 199.505 320.268 199.376C319.071 199.218 319.389 197.727 320.076 197.156Z" fill="#FFD357" /><path d="M327.631 207.301C327.631 207.301 320.669 222.251 319.753 236.437C318.839 250.624 305.793 254.82 305.793 254.82C305.793 254.82 329.743 261.552 351.175 255.717C351.175 255.717 340.508 216.005 327.631 207.301Z" fill="#2483E2" /><path d="M320.727 269.236L331.464 307.988L330.959 320.801L320.727 269.236Z" fill="#2A2B3B" /><path d="M326.052 207.301C326.052 207.301 333.005 236.307 336.339 240.789C339.675 245.271 317.686 248.045 317.686 248.045L329.252 239.226C329.252 239.226 323.06 219.358 326.052 207.301Z" fill="#2A2B3C" /><path d="M303.254 261.232L347.406 277.116L348.573 276.995L357.09 248.393L312.129 232.193L310.215 232.709L303.254 261.232Z" fill="#BED0E2" /><path d="M302.152 260.836L347.405 277.117L355.52 249.543L310.215 232.709L302.152 260.836Z" fill="#EDF1F4" /><path d="M326.094 257.979C328.184 257.979 329.878 256.285 329.878 254.196C329.878 252.106 328.184 250.412 326.094 250.412C324.005 250.412 322.311 252.106 322.311 254.196C322.311 256.285 324.005 257.979 326.094 257.979Z" fill="#BED0E2" /><path d="M340.933 206.184C339.698 205.372 339.628 204.274 339.542 202.883C339.52 202.543 339.498 202.179 339.457 201.795C339.353 200.827 338.544 200.483 337.76 200.153C337.067 199.86 336.413 199.583 336.433 198.878C336.473 197.49 335.552 195.736 334.087 194.414C333.142 193.559 333.098 193.416 333.028 192.794C332.981 192.374 332.908 191.739 332.429 190.389C331.34 187.321 328.155 187.874 328.125 187.885L328.066 187.578C328.101 187.573 331.547 186.967 332.725 190.284C333.217 191.668 333.293 192.35 333.339 192.759C333.401 193.298 333.411 193.38 334.299 194.183C335.829 195.564 336.789 197.412 336.746 198.889C336.733 199.356 337.169 199.565 337.882 199.865C338.668 200.198 339.644 200.61 339.768 201.762C339.81 202.154 339.833 202.519 339.855 202.865C339.94 204.219 340.001 205.197 341.105 205.923L340.933 206.184Z" fill="#2A2B3C" /><path d="M322.075 271.423C322.366 271.814 323.097 271.823 323.184 271.213L323.187 271.19C323.422 271.663 324.247 271.722 324.35 271.071C324.565 269.727 324.759 268.287 325.726 267.21C326.53 266.312 327.841 265.901 328.873 265.362C329.757 264.899 330.505 264.419 331.272 263.792C334.047 261.528 336.681 259.014 339.12 256.395C339.376 256.119 339.314 255.567 338.935 255.418C337.123 254.708 335.31 253.996 333.497 253.286C333.203 253.17 332.94 253.28 332.771 253.469C332.695 253.52 332.627 253.587 332.572 253.681C330.564 257.163 327.348 260.344 324.035 262.591C321.673 264.191 320.019 266.051 318.955 268.724C318.66 269.467 319.776 270.033 320.075 269.284C320.663 267.803 321.473 266.713 322.406 265.768C322.424 265.802 322.431 265.838 322.45 265.871C321.55 267.504 321.043 269.192 320.884 271.059C320.817 271.812 321.899 272.076 322.075 271.423Z" fill="#4C5072" /><path d="M321.521 268.121C321.514 268.121 321.505 268.121 321.505 268.121C321.411 268.106 321.354 268.026 321.367 267.939C321.452 267.389 322.277 265.863 322.31 265.798C322.353 265.721 322.448 265.697 322.523 265.734C322.599 265.776 322.627 265.871 322.587 265.947C322.354 266.375 321.74 267.574 321.675 267.988C321.665 268.066 321.597 268.121 321.521 268.121Z" fill="#2A2B3C" /><path d="M322.075 271.58H322.065C321.978 271.573 321.913 271.5 321.918 271.413C321.921 271.385 322.117 268.523 323.513 266.071C323.554 265.994 323.652 265.969 323.725 266.013C323.802 266.055 323.827 266.15 323.784 266.225C322.426 268.613 322.232 271.405 322.231 271.432C322.225 271.516 322.156 271.58 322.075 271.58Z" fill="#2A2B3C" /><path d="M323.186 271.348C323.179 271.348 323.173 271.348 323.167 271.347C323.081 271.337 323.019 271.259 323.031 271.173C323.046 271.051 323.405 268.175 324.526 266.702C324.578 266.632 324.674 266.622 324.747 266.673C324.815 266.725 324.828 266.823 324.775 266.893C323.704 268.299 323.343 271.183 323.341 271.211C323.332 271.289 323.265 271.348 323.186 271.348Z" fill="#2A2B3C" /><path d="M327.6 203.983C323.566 205.613 326.827 230.842 333.217 240.698C339.605 250.555 353.619 248.471 353.645 245.009C353.67 241.548 335.889 200.639 327.6 203.983Z" fill="#4093F6" /><path d="M319.01 260.144C324.267 251.133 333.672 243.973 338.14 239.211C342.608 234.45 351.951 239.464 351.821 241.641C351.691 243.82 344.062 261.792 335.69 268.731C335.69 268.731 317.956 261.952 319.01 260.144Z" fill="#4093F6" /><path d="M340.83 216.773C340.83 216.773 347.729 236.837 347.104 242.465C346.478 248.093 340.909 261.62 335.689 268.73C344.502 262.486 353.89 246.245 353.645 245.008C353.4 243.769 350.506 232.618 340.83 216.773Z" fill="#2483E2" /><path d="M339.016 205.187C338.923 204.966 338.851 204.728 338.828 204.451C338.936 203.465 338.936 202.461 338.334 201.61C338.059 201.221 337.693 201.044 337.367 200.74C336.471 199.898 335.315 200.141 335.558 197.951C335.532 197.276 335.456 196.805 334.851 196.172C333.522 194.787 332.359 194.69 332.168 192.392C332.118 191.797 332.182 191.159 332.054 190.567C331.764 189.228 331.136 188.301 329.884 187.702C327.1 186.367 323.329 187.337 321.358 189.561C321.289 189.638 321.245 189.718 321.221 189.799C321.06 190.07 321.068 190.455 321.404 190.677C322.611 191.477 324.157 192.331 325.141 193.385C326.518 194.862 326.241 196.498 325.749 198.241C325.368 199.59 325.329 200.831 326.136 202.034C326.448 202.499 326.915 202.746 327.248 203.177C328.588 204.91 328.102 205.365 327.435 207.147C327.044 208.193 326.815 209.39 327.238 210.469C327.425 210.952 327.709 211.303 328.048 211.57C328.357 211.961 328.778 212.298 329.371 212.543C331.828 213.557 335.582 213.576 338.12 212.978C339.891 212.56 341.919 211.525 341.904 209.429C341.89 207.729 340.238 206.506 339.016 205.187Z" fill="#2A2B3C" /><path d="M320.333 365.734C320.87 364.278 321.057 363.099 320.723 360.825C320.731 360.8 320.721 360.786 320.721 360.786C320.452 359.02 320.074 350.109 319.88 348.379C317.037 348.302 312.137 348.495 310.342 348.601C310.39 350.985 310.664 359.372 310.068 360.599C309.977 360.796 309.862 360.99 309.721 361.175C307.906 363.672 303.047 364.797 300.879 366.338C300.28 366.731 299.891 367.166 299.803 367.654C299.326 370.132 319.016 369.224 320.333 365.734Z" fill="#E93E72" /><path d="M299.911 367.378C299.855 367.471 299.835 367.549 299.818 367.652C299.249 370.299 319.385 369.454 320.646 366.08L320.657 366.067C320.758 365.893 320.832 365.697 320.891 365.49C321.416 363.746 320.811 361.179 320.717 360.818C320.73 360.804 320.716 360.793 320.716 360.793C315.296 363.271 309.724 361.167 309.724 361.167C308.131 363.361 304.207 364.504 301.805 365.77C300.847 366.2 300.152 366.736 299.911 367.378Z" fill="#4093F6" /><path d="M299.911 367.378C299.855 367.47 299.835 367.549 299.818 367.652C299.249 370.298 319.385 369.454 320.646 366.08L320.657 366.067C320.758 365.893 320.832 365.697 320.891 365.489C319.774 366.136 317.473 367.229 314.051 367.648C309.624 368.195 304.968 368.571 299.911 367.378Z" fill="#2A2B3B" /><path d="M387.402 341.233C386.673 339.864 385.916 338.939 383.995 337.678C383.981 337.655 383.964 337.653 383.964 337.653C382.468 336.68 375.559 331.037 374.138 330.032C372.19 332.105 369.077 335.893 367.963 337.304C369.774 338.854 376.222 344.224 376.742 345.484C376.829 345.684 376.896 345.898 376.942 346.127C377.599 349.142 375.21 353.521 374.92 356.164C374.814 356.873 374.883 357.452 375.189 357.842C376.722 359.849 389.135 344.536 387.402 341.233Z" fill="#E93E72" /><path d="M375.053 357.58C375.086 357.683 375.132 357.75 375.197 357.831C376.797 360.015 389.552 344.412 387.87 341.229L387.867 341.21C387.805 341.02 387.707 340.835 387.592 340.652C386.639 339.102 384.318 337.847 383.986 337.675C383.984 337.658 383.966 337.66 383.966 337.66C382.215 343.356 376.938 346.119 376.938 346.119C377.517 348.768 375.764 352.459 375.111 355.097C374.797 356.096 374.737 356.973 375.053 357.58Z" fill="#4093F6" /><path d="M375.055 357.58C375.087 357.684 375.133 357.75 375.199 357.831C376.798 360.015 389.553 344.412 387.871 341.229L387.869 341.21C387.806 341.02 387.708 340.835 387.593 340.652C387.332 341.917 386.619 344.363 384.657 347.196C382.124 350.867 379.31 354.594 375.055 357.58Z" fill="#2A2B3B" /><path d="M224.839 298.408C225.158 298.575 225.705 298.375 225.647 297.944C225.436 296.354 224.303 295.194 222.953 294.229C223.101 292.33 223.417 290.489 223.862 288.839C226.734 278.183 234.68 270.097 243.099 263.442C243.354 263.241 243.767 263.213 243.943 263.551C247.055 269.497 250.305 275.394 253.257 281.421C251.694 283.031 250.029 284.546 248.837 286.472C248.571 286.902 249.132 287.541 249.572 287.207C251.147 286.009 252.898 284.995 254.253 283.553C256.072 287.649 257.377 292.026 256.772 296.549C256.145 301.215 253.565 305.155 249.188 307.055C243.827 309.385 237.316 309.602 231.584 310.467C231.596 310.804 231.337 311.143 230.935 310.996C225.079 308.865 222.99 302.953 222.869 297.02C223.461 297.563 224.11 298.022 224.839 298.408Z" fill="#92CEFF" /><path d="M200.117 325.106C200.416 324.907 200.466 324.531 200.226 324.262C199.52 323.468 198.584 322.975 197.596 322.618C197.23 322.012 196.892 321.404 196.599 320.81C192.534 312.507 193.083 303.027 194.723 294.189C194.772 293.92 195.018 293.676 195.316 293.792C199.849 295.55 204.421 297.238 208.931 299.064C208.316 302.161 208.783 305.446 209.542 308.48C209.676 309.018 210.419 308.965 210.577 308.48C211.454 305.803 211.477 303.01 211.792 300.249C215.575 301.894 219.274 304.011 221.603 307.524C223.78 310.811 224.327 314.719 222.617 318.33C220.52 322.756 216.535 326.484 213.398 330.189C213.589 330.394 213.613 330.751 213.279 330.881C207.958 332.939 202.984 329.672 199.583 325.465C199.761 325.345 199.939 325.226 200.117 325.106Z" fill="#92CEFF" /><path d="M249.293 308.541C254.037 306.117 259.2 305.226 264.419 305.186C264.199 306.883 264.174 308.593 264.173 310.307C264.173 310.81 264.942 311.079 265.175 310.579C265.982 308.845 266.295 307.05 266.421 305.212C269.596 305.314 272.777 305.695 275.88 306.215C276.149 306.261 276.397 306.503 276.286 306.801C274.339 312.083 272.503 317.42 270.416 322.648C268.793 326.711 266.697 330.774 263.001 333.315C260.181 335.253 256.875 335.964 253.672 335.043C253.244 333.53 252.586 332.083 251.365 331.166C251.035 330.921 250.542 331.253 250.555 331.631C250.584 332.419 250.734 333.152 250.96 333.868C247.034 331.735 243.6 328.273 240.199 325.494C239.996 325.689 239.642 325.719 239.506 325.387C236.59 318.219 243.477 311.512 249.293 308.541Z" fill="#92CEFF" /><path d="M204.5 318.366C208.732 327.807 216.522 334.692 224.261 341.262C225.909 323.562 229.558 306.067 237.83 290.164C238.149 289.551 239.055 290.083 238.758 290.708C225.081 319.599 224.522 349.588 224.191 360.932C224.171 361.623 223.096 361.625 223.116 360.932C223.295 354.815 223.603 348.661 224.139 342.529C224.101 342.509 224.061 342.496 224.024 342.464C216.047 335.702 207.936 328.643 203.572 318.907C203.291 318.282 204.216 317.735 204.5 318.366Z" fill="#343751" /><path d="M226.07 330.5C230.843 329.995 235.212 327.8 239.444 325.587C244.198 323.104 248.827 320.395 253.344 317.501C253.927 317.127 254.413 318.086 253.835 318.458C248.771 321.702 243.564 324.714 238.202 327.438C234.137 329.502 229.975 331.333 225.412 331.654C225.627 331.267 225.847 330.881 226.07 330.5Z" fill="#343751" /><path d="M213.216 369.742H233.127L238.852 347.068H207.492L213.216 369.742Z" fill="#BED0E2" /></svg> 