<svg width="560" height="560" viewBox="0 0 560 560" fill="none" xmlns="http://www.w3.org/2000/svg"><rect width="560" height="560" fill="#EFF5FA" /><path d="M280 402.259C407.026 402.259 510 399.631 510 396.389C510 393.146 407.026 390.518 280 390.518C152.975 390.518 50 393.146 50 396.389C50 399.631 152.975 402.259 280 402.259Z" fill="#F1CBFF" /><path d="M280.58 303.089H294.025L296.526 284.844H278.078L280.58 303.089Z" fill="#4093F6" /><path d="M280.349 288.223C281.873 288.719 281.22 291.134 279.683 290.636C277.316 289.868 276.348 292.012 276.365 294.028C276.373 294.916 276.493 295.997 277.139 296.67C278.082 297.649 279.758 297.78 279.8 296.082C279.84 294.474 282.341 294.468 282.301 296.082C282.25 298.124 281.409 300.005 279.067 299.995C276.818 299.986 274.872 298.501 274.203 296.389C272.911 292.322 275.308 286.589 280.349 288.223Z" fill="#4093F6" /><path d="M287.302 285.854C292.397 285.854 296.526 285.402 296.526 284.844C296.526 284.285 292.397 283.833 287.302 283.833C282.208 283.833 278.078 284.285 278.078 284.844C278.078 285.402 282.208 285.854 287.302 285.854Z" fill="#2483E2" /><path d="M287.116 271.175C287.41 267.784 290.882 266.213 289.455 262.561C288.868 261.061 291.286 260.41 291.866 261.895C292.646 263.89 292.804 265.536 291.674 267.42C290.064 270.106 288.378 272.525 291.117 275.322C292.243 276.475 290.477 278.245 289.349 277.092C287.774 275.483 286.918 273.451 287.116 271.175Z" fill="#EDF1F4" /><path d="M280.569 271.159C280.576 269.059 281.554 267.326 283.309 266.216C284.674 265.354 285.931 267.516 284.572 268.376C280.496 270.955 286.151 276.591 284.842 280.304C284.311 281.811 281.893 281.163 282.43 279.64C283.349 277.03 280.556 273.944 280.569 271.159Z" fill="#EDF1F4" /><path d="M245.438 299.266H241.53L252.473 270.816H256.382L245.438 299.266Z" fill="#BED0E2" /><path d="M245.438 299.266H203.731V302.7H245.438V299.266Z" fill="#BED0E2" /><path opacity="0.34" d="M296.975 202.358L266.047 302.046H355.987L326.757 202.358H296.975Z" fill="url(#paint0_linear_435_1338)" /><path d="M311.483 212.15C314.548 212.15 317.033 209.665 317.033 206.6C317.033 203.535 314.548 201.051 311.483 201.051C308.418 201.051 305.934 203.535 305.934 206.6C305.934 209.665 308.418 212.15 311.483 212.15Z" fill="#FFD357" /><path d="M311.609 185.025C311.609 185.025 304.73 195.136 289.514 206.601H333.706C318.488 195.136 311.609 185.025 311.609 185.025Z" fill="#4093F5" /><path d="M313.028 160.314H310.186V187.114H313.028V160.314Z" fill="url(#paint1_linear_435_1338)" /><path d="M209.028 233.072C206.053 234.458 203.58 235.896 201.223 238.023C201.715 237.254 202.36 235.61 202.921 234.787C203.629 233.75 202.113 233.065 200.971 234.441C199.257 236.503 196.462 241.322 195.425 243.659C193.232 246.837 192.154 247.337 189.091 249.945C187.894 250.964 194.041 254.709 195.237 254.924C196.671 255.184 196.548 253.936 197.185 252.738C198.489 250.28 200.634 248.696 203.177 247.378C205.548 246.147 206.697 244.425 208.426 242.849C209.95 241.876 209.332 241.23 208.798 240.512C208.733 240.425 208.645 240.373 208.565 240.304C208.719 239.965 208.755 239.605 208.588 239.258C208.323 238.711 207.792 238.484 207.187 238.443C207.254 237.725 206.86 237.062 205.936 236.918C206.488 236.518 209.151 234.932 209.733 234.661C210.94 234.099 210.24 232.508 209.028 233.072Z" fill="#4C5072" /><path d="M203.511 241.341C203.264 241.341 203.053 241.263 202.884 241.111C202.652 240.902 202.544 240.627 202.565 240.317C202.662 238.911 205.489 236.951 205.811 236.732C205.913 236.665 206.053 236.69 206.125 236.792C206.195 236.896 206.167 237.035 206.065 237.106C205.24 237.666 203.085 239.341 203.015 240.349C203.003 240.524 203.058 240.659 203.188 240.777C203.279 240.859 203.395 240.902 203.555 240.89C204.557 240.834 206.396 238.997 207.021 238.294C207.103 238.199 207.248 238.193 207.339 238.274C207.433 238.357 207.441 238.499 207.359 238.592C207.263 238.702 204.975 241.263 203.58 241.34C203.555 241.341 203.533 241.341 203.511 241.341Z" fill="#2A2B3C" /><path d="M204.606 243.112C204.112 243.112 203.664 242.898 203.449 242.567C203.306 242.347 202.951 241.552 204.4 240.604C204.502 240.533 204.642 240.564 204.711 240.669C204.78 240.773 204.75 240.913 204.646 240.981C203.903 241.469 203.598 241.969 203.828 242.322C204.052 242.666 204.756 242.806 205.299 242.456C206.472 241.7 208.408 240.144 208.428 240.129C208.523 240.053 208.666 240.067 208.746 240.163C208.825 240.26 208.808 240.402 208.712 240.481C208.632 240.546 206.737 242.067 205.544 242.834C205.245 243.027 204.916 243.112 204.606 243.112Z" fill="#2A2B3C" /><path d="M206.529 243.96C206.385 243.96 206.253 243.93 206.139 243.863C205.842 243.685 205.662 243.455 205.601 243.174C205.502 242.712 205.784 242.302 205.796 242.284C205.869 242.182 206.01 242.157 206.11 242.229C206.211 242.301 206.238 242.441 206.165 242.543C206.165 242.543 205.983 242.813 206.043 243.082C206.075 243.234 206.185 243.366 206.369 243.474C206.804 243.75 208.268 242.691 209.112 241.899C209.201 241.815 209.345 241.819 209.431 241.91C209.515 242 209.511 242.144 209.42 242.229C209.081 242.548 207.516 243.96 206.529 243.96Z" fill="#2A2B3C" /><path d="M201.787 244.838C201.755 244.838 201.722 244.831 201.692 244.816C201.578 244.763 201.53 244.63 201.583 244.517C202.068 243.481 200.541 241.566 199.912 240.915L199.862 240.864L199.851 240.791C199.782 240.336 201.054 237.869 201.603 236.831C201.66 236.721 201.799 236.679 201.907 236.737C202.017 236.796 202.059 236.931 202.001 237.041C201.205 238.546 200.386 240.252 200.304 240.673C200.707 241.107 202.647 243.305 201.991 244.707C201.953 244.788 201.87 244.838 201.787 244.838Z" fill="#2A2B3C" /><path d="M132.506 253.175C143.894 243.802 162.513 256.598 172.118 263.361C181.723 270.123 179.444 278.271 174.492 278.786C158.956 280.402 125.604 258.856 132.506 253.175Z" fill="#D32A6B" /><path d="M190.676 243.213C181.446 248.607 168.124 259.835 165.316 265.73C162.509 271.625 173.937 279.309 175.918 278.395C177.9 277.48 195.535 266.819 201.862 254.256C201.862 254.256 192.484 242.156 190.676 243.213Z" fill="#D32A6B" /><path d="M151.193 251.555C151.193 251.555 156.537 254.797 159.038 261.259C161.539 267.722 162.834 277.036 162.834 277.036L159.976 276.164L151.193 251.555Z" fill="#17171D" /><path d="M208.994 391.322C207.757 390.386 206.96 389.494 206.016 387.4C205.997 387.383 205.996 387.365 205.996 387.365C205.269 385.735 202.914 381.836 202.145 380.275C203.579 377.884 208.082 378.319 211.036 376.73C212.284 378.763 213.699 380.745 214.861 381.456C215.043 381.575 215.246 381.673 215.462 381.755C218.339 382.875 223.038 381.201 225.695 381.326C226.411 381.333 226.973 381.49 227.311 381.852C229.05 383.682 211.985 393.549 208.994 391.322Z" fill="#4C5072" /><path d="M227.068 381.681C227.166 381.728 227.223 381.783 227.294 381.861C229.202 383.783 211.797 393.943 208.915 391.784L208.897 391.779C208.718 391.688 208.552 391.561 208.389 391.419C207.007 390.236 206.129 387.747 206.013 387.393C205.996 387.388 206.001 387.37 206.001 387.37C211.9 386.531 215.455 381.751 215.455 381.751C217.981 382.736 221.901 381.581 224.607 381.35C225.643 381.194 226.516 381.272 227.068 381.681Z" fill="#4093F6" /><path d="M227.069 381.681C227.167 381.728 227.224 381.783 227.295 381.861C229.203 383.783 211.798 393.943 208.916 391.784L208.898 391.779C208.72 391.688 208.553 391.561 208.391 391.419C209.68 391.359 212.208 391.036 215.313 389.543C219.335 387.613 223.456 385.414 227.069 381.681Z" fill="#2A2B3B" /><path d="M194.771 322.398C193.288 310.233 153.019 297.876 147.054 295.436C142.839 293.724 136.372 295.59 131.668 296.379C122.827 297.866 118.523 303.194 119.638 315.927C120.363 324.094 131.256 326.209 138.786 328.698C148.079 331.775 174.723 333.617 175.423 333.78C183.775 335.706 196.089 333.224 194.771 322.398Z" fill="#343751" /><path d="M168.2 331.463C169.32 333.435 170.513 335.388 171.73 337.313C175.456 343.265 179.42 349.08 182.42 355.425C186.74 364.524 194.068 384.762 194.252 384.034C204.123 383.092 213.087 379.34 217.555 373.319C215.328 361.91 197.734 324.936 193.453 319.242C188.421 312.545 164.918 325.665 168.2 331.463Z" fill="#343751" /><path d="M93.832 290.736C93.832 290.736 111.392 287.078 126.271 297.067C141.15 307.057 145.719 331.801 145.719 331.801L98.2722 301.28L93.832 290.736Z" fill="#BED0E2" /><path d="M159.199 305.521C159.199 305.521 188.835 311.184 191.187 320.877C193.537 330.57 182.422 355.426 182.422 355.426L185.563 323.535L159.199 305.521Z" fill="#17171D" /><path d="M189.309 322.765C189.296 322.74 189.296 322.715 189.296 322.688C187.807 310.531 145.558 302.428 139.593 299.989C135.378 298.275 130.886 295.886 126.184 296.674C121.281 297.5 117.779 299.502 115.829 303.291C114.239 306.343 113.653 310.546 114.152 316.223C114.877 324.391 125.771 326.506 133.302 328.995C138.992 330.883 151.187 332.297 159.955 333.16C162.794 333.435 165.27 333.647 167.046 333.81C168.747 333.96 169.811 334.046 169.948 334.073C177.015 335.699 186.908 334.185 188.984 327.119C189.272 326.206 189.409 325.191 189.397 324.078C189.384 323.665 189.358 323.215 189.309 322.765Z" fill="#3F4261" /><path d="M189.308 322.765C187.594 315.048 163.291 310.821 162.165 317.099C161.766 319.338 161.441 321.603 161.152 323.853C161.14 323.916 161.14 323.978 161.127 324.04C160.714 327.08 160.364 330.131 159.952 333.159C159.414 337.023 158.788 340.849 157.813 344.628C155.586 353.408 149.47 370.693 148.707 373.733C148.632 374.083 148.607 374.245 148.671 374.195C157.726 376.271 167.557 377.597 173.448 380.824C178.425 371.706 186.981 339.05 188.982 327.119C189.209 325.854 189.345 324.83 189.395 324.078C189.395 323.992 189.408 323.903 189.408 323.816C189.42 323.453 189.395 323.103 189.308 322.765Z" fill="#3F4261" /><path d="M162.151 376.956C162.128 376.956 162.107 376.952 162.085 376.946C161.966 376.91 161.9 376.784 161.935 376.664C162.058 376.261 174.251 336.269 175.131 328.459C175.316 326.813 175.014 325.531 174.206 324.544C171.983 321.829 166.088 321.319 157.167 320.547C154.613 320.325 151.72 320.075 148.643 319.745C131.25 317.875 125.322 302.555 125.264 302.401C125.221 302.284 125.281 302.155 125.396 302.111C125.515 302.07 125.642 302.127 125.686 302.242C125.742 302.395 131.581 317.458 148.692 319.296C151.762 319.628 154.655 319.878 157.207 320.098C166.243 320.881 172.212 321.397 174.556 324.259C175.445 325.345 175.78 326.735 175.579 328.51C174.695 336.36 162.49 376.392 162.367 376.795C162.337 376.894 162.249 376.956 162.151 376.956Z" fill="#2A2B3C" /><path d="M168.208 328.831C167.994 329.757 167.583 331.509 167.043 333.809C164.392 345.202 158.714 370.155 159.427 376.034C159.427 376.034 150.021 374.008 148.67 374.195L148.706 373.732C149.469 370.693 155.586 353.408 157.812 344.628C158.787 340.849 159.413 337.023 159.951 333.159C151.183 332.296 138.988 330.882 133.297 328.994C125.767 326.505 114.874 324.39 114.147 316.222C113.648 310.545 114.235 306.343 115.825 303.29L119.463 301.001C119.463 301.001 128.193 318.275 143.715 321.402C150.831 322.84 156.835 323.365 161.126 324.039C166.194 324.841 168.883 325.854 168.208 328.831Z" fill="#343751" /><path d="M113.039 302.133C113.039 302.133 118.706 258.188 131.735 250.65C140.122 245.797 153.065 250.066 155.954 256.436C161.59 268.859 164.877 302.081 164.877 302.081C164.877 302.081 134.744 308.399 113.039 302.133Z" fill="#E93E72" /><path d="M146.227 242.872C146.227 242.872 146.076 247.85 145.908 248.969C145.857 249.31 145.155 250.374 144.563 250.775C142.473 249.277 140.743 249.629 140.086 248.969C140.594 247.571 140.857 245.526 140.857 242.872C140.857 240.359 146.227 242.872 146.227 242.872Z" fill="#4C5072" /><path d="M140.176 238.832C140.176 238.832 141.341 245.598 145.614 245.731C149.888 245.862 147.211 236.519 146.57 236.263C145.927 236.004 141.76 235.096 140.176 238.832Z" fill="#4C5072" /><path d="M144.561 250.776L143.672 247.779L140.343 248.122L137.541 248.709L144.561 250.776Z" fill="#F2F8FF" /><path d="M144.561 250.776L145.672 247.779L147.049 249.472L144.561 250.776Z" fill="#F2F8FF" /><path d="M109.131 326.976L107.9 326.754L95.4076 395.939L96.6385 396.161L109.131 326.976Z" fill="#2A2B3B" /><path d="M150.593 395.849L138.086 326.671L136.855 326.893L149.362 396.071L150.593 395.849Z" fill="#2A2B3B" /><path d="M139.595 395.85L127.088 326.672L125.857 326.894L138.364 396.072L139.595 395.85Z" fill="#2A2B3B" /><path d="M93.8303 290.736C93.8303 290.736 123.243 307.801 145.716 331.802C145.716 331.802 118.801 336.796 105.483 325.419C92.1656 314.043 93.8303 290.736 93.8303 290.736Z" fill="#EDF1F4" /><path d="M142.483 353.017H103.67V354.267H142.483V353.017Z" fill="#2A2B3B" /><path d="M144.354 233.463C142.88 233.713 141.476 233.473 140.121 233.989C138.907 234.452 138.159 235.325 137.86 236.609C137.192 239.487 138.368 243.448 141.613 243.95C142.04 244.016 142.342 243.642 142.317 243.246C142.254 242.214 142.146 241.196 141.992 240.173C141.977 240.08 141.946 240.001 141.905 239.934C142.087 239.121 142.199 238.27 142.062 237.501C144.813 237.988 147.514 238.838 148.472 235.55C149.385 232.419 146.206 233.146 144.354 233.463Z" fill="#17171D" /><path d="M142.38 240.065C142.38 240.065 141.731 238.819 140.549 238.996C139.368 239.174 139.095 241.989 141.095 242.233C143.094 242.478 142.38 240.065 142.38 240.065Z" fill="#4C5072" /><path d="M148.668 374.2C148.649 373.07 173.16 379.028 173.448 380.825C173.838 383.268 148.722 377.502 148.668 374.2Z" fill="#17171D" /><path d="M150.639 384.872C150.805 383.33 151.159 382.188 152.47 380.301C152.475 380.276 152.49 380.267 152.49 380.267C153.514 378.804 154.387 377.643 155.33 376.18C158.119 376.18 161.322 377.399 164.204 379.116C163.103 381.231 162.132 383.465 162.119 384.827C162.113 385.046 162.132 385.27 162.174 385.498C162.693 388.541 166.547 391.708 167.805 394.05C168.168 394.668 168.323 395.231 168.185 395.706C167.511 398.14 150.27 388.584 150.639 384.872Z" fill="#4C5072" /><path d="M168.206 395.412C168.216 395.52 168.199 395.597 168.169 395.699C167.503 398.324 149.837 388.628 150.204 385.044L150.199 385.026C150.186 384.827 150.208 384.618 150.246 384.405C150.548 382.611 152.233 380.579 152.475 380.296C152.471 380.278 152.488 380.273 152.488 380.273C156.243 384.901 162.171 385.489 162.171 385.489C162.624 388.163 165.633 390.93 167.224 393.13C167.89 393.94 168.275 394.729 168.206 395.412Z" fill="#4093F6" /><path d="M168.206 395.412C168.216 395.52 168.199 395.597 168.169 395.698C167.503 398.324 149.837 388.628 150.204 385.043L150.199 385.026C150.186 384.827 150.208 384.618 150.246 384.404C150.96 385.479 152.538 387.481 155.418 389.376C159.14 391.832 163.145 394.235 168.206 395.412Z" fill="#2A2B3B" /><path d="M128.654 258.985C128.654 258.985 144.592 292.584 149.523 295.552C154.453 298.52 164.878 299.458 164.878 299.458C164.878 299.458 148.714 299.216 146.227 297.195C137.467 290.082 128.654 258.985 128.654 258.985Z" fill="#17171D" /><path d="M205.869 298.523C204.491 295.977 202.784 294.033 200.606 292.562C200.612 292.495 200.599 292.435 200.599 292.371C202.386 292.811 204.108 293.585 205.789 295.144C206.641 295.933 207.714 294.002 206.869 293.219C203.831 290.402 200.544 289.354 196.519 289.384C190.868 289.424 184.757 288.012 179.999 284.966C179.87 284.884 179.74 284.855 179.61 284.855C179.277 284.75 178.872 284.853 178.568 285.314C176.693 288.148 174.82 290.981 172.946 293.814C172.553 294.409 172.82 295.271 173.324 295.415C178.088 296.785 183.04 297.806 188.01 298.327C189.386 298.471 190.643 298.423 192.065 298.214C193.723 297.97 195.661 297.261 197.25 297.761C199.164 298.362 200.317 300.254 201.436 301.989C201.976 302.829 202.994 301.923 202.998 301.006C203.004 301.016 203.011 301.023 203.018 301.032C203.51 301.833 204.44 301.091 204.567 300.234C205.204 301.005 206.423 299.546 205.869 298.523Z" fill="#4C5072" /><path d="M203.105 294.917C203.025 294.917 202.945 294.877 202.897 294.803C202.558 294.274 201.027 293.154 200.466 292.766C200.353 292.688 200.326 292.535 200.402 292.425C200.479 292.311 200.632 292.284 200.743 292.361C200.83 292.42 202.851 293.818 203.312 294.537C203.386 294.652 203.351 294.805 203.237 294.877C203.197 294.903 203.151 294.917 203.105 294.917Z" fill="#2A2B3C" /><path d="M204.569 300.481C204.481 300.481 204.393 300.432 204.35 300.347C204.329 300.308 202.334 296.466 199.11 294.366C198.996 294.291 198.964 294.138 199.037 294.026C199.114 293.913 199.267 293.882 199.378 293.953C202.714 296.127 204.704 299.96 204.787 300.123C204.849 300.244 204.802 300.393 204.681 300.454C204.647 300.471 204.608 300.481 204.569 300.481Z" fill="#2A2B3C" /><path d="M202.999 301.252C202.916 301.252 202.833 301.208 202.787 301.129C202.764 301.092 200.5 297.282 198.268 296.32C198.143 296.266 198.085 296.123 198.139 295.996C198.193 295.87 198.338 295.815 198.463 295.867C200.843 296.892 203.116 300.717 203.212 300.879C203.281 300.997 203.241 301.147 203.124 301.217C203.084 301.241 203.042 301.252 202.999 301.252Z" fill="#2A2B3C" /><path d="M130.47 255.302C144.996 252.738 156.724 270.411 161.765 281.021C166.804 291.632 152.524 297.191 149.564 295.397C146.604 293.603 121.666 256.855 130.47 255.302Z" fill="#D32A6B" /><path d="M190.643 285.061C180.811 280.866 159.777 278.232 153.369 279.491C146.963 280.751 147.606 294.507 149.521 295.553C151.436 296.599 174.896 304.665 188.755 302.254C188.755 302.254 192.567 285.882 190.643 285.061Z" fill="#D32A6B" /><path d="M227.444 235.712C246.248 235.712 261.491 220.469 261.491 201.665C261.491 182.861 246.248 167.617 227.444 167.617C208.64 167.617 193.396 182.861 193.396 201.665C193.396 220.469 208.64 235.712 227.444 235.712Z" fill="#F1CBFF" /><path d="M227.445 231.848C244.114 231.848 257.627 218.335 257.627 201.665C257.627 184.996 244.114 171.482 227.445 171.482C210.775 171.482 197.262 184.996 197.262 201.665C197.262 218.335 210.775 231.848 227.445 231.848Z" fill="white" /><path d="M228.067 173.712H226.824V178.895H228.067V173.712Z" fill="#BED0E2" /><path d="M239.122 180.292L240.199 180.913L241.985 177.819L240.908 177.198L239.122 180.292Z" fill="#BED0E2" /><path d="M248.295 188.967L248.916 190.044L252.011 188.258L251.39 187.181L248.295 188.967Z" fill="#BED0E2" /><path d="M255.402 201.043H250.219V202.286H255.402V201.043Z" fill="#BED0E2" /><path d="M248.927 213.286L248.305 214.362L251.399 216.15L252.021 215.074L248.927 213.286Z" fill="#BED0E2" /><path d="M240.141 222.512L239.064 223.133L240.85 226.228L241.927 225.606L240.141 222.512Z" fill="#BED0E2" /><path d="M228.067 224.324H226.824V229.616H228.067V224.324Z" fill="#BED0E2" /><path d="M215.772 223.036L214.696 222.415L212.91 225.509L213.987 226.13L215.772 223.036Z" fill="#BED0E2" /><path d="M206.692 214.431L206.07 213.354L202.977 215.142L203.599 216.218L206.692 214.431Z" fill="#BED0E2" /><path d="M204.786 201.043H199.494V202.286H204.786V201.043Z" fill="#BED0E2" /><path d="M206.072 189.991L206.693 188.914L203.6 187.129L202.978 188.205L206.072 189.991Z" fill="#BED0E2" /><path d="M214.749 180.818L215.826 180.196L214.04 177.101L212.963 177.723L214.749 180.818Z" fill="#BED0E2" /><path d="M245.207 185.62L243.631 184.046L225.89 201.802L227.466 203.377L245.207 185.62Z" fill="#4C5072" /><path d="M241.946 215.086L242.799 213.945L229.169 203.759L228.316 204.9L241.946 215.086Z" fill="#4C5072" /><path d="M227.443 206.183C229.71 206.183 231.548 204.346 231.548 202.079C231.548 199.811 229.71 197.974 227.443 197.974C225.176 197.974 223.338 199.811 223.338 202.079C223.338 204.346 225.176 206.183 227.443 206.183Z" fill="#4093F5" /><path d="M227.442 204.255C228.644 204.255 229.618 203.281 229.618 202.079C229.618 200.877 228.644 199.902 227.442 199.902C226.24 199.902 225.266 200.877 225.266 202.079C225.266 203.281 226.24 204.255 227.442 204.255Z" fill="white" /><path d="M344.241 302.7H192.484V306.036H344.241V302.7Z" fill="#2A2B3B" /><path d="M192.696 397.549C192.669 397.549 192.64 397.548 192.611 397.543C192.27 397.498 192.03 397.182 192.076 396.838L204.583 304.284C204.628 303.941 204.927 303.686 205.287 303.749C205.629 303.794 205.869 304.109 205.823 304.453L193.315 397.007C193.273 397.322 193.004 397.549 192.696 397.549Z" fill="#2A2B3C" /><path d="M246.658 397.548C246.35 397.548 246.081 397.321 246.04 397.007L233.533 304.452C233.487 304.11 233.725 303.794 234.068 303.748C234.41 303.684 234.725 303.939 234.772 304.283L247.28 396.838C247.326 397.18 247.087 397.496 246.744 397.542C246.714 397.547 246.686 397.548 246.658 397.548Z" fill="#2A2B3C" /><path d="M282.065 397.548C282.038 397.548 282.009 397.547 281.98 397.542C281.639 397.497 281.399 397.181 281.445 396.837L293.952 304.283C293.997 303.94 294.302 303.685 294.656 303.748C294.998 303.793 295.238 304.108 295.192 304.452L282.684 397.006C282.642 397.321 282.373 397.548 282.065 397.548Z" fill="#2A2B3C" /><path d="M336.031 397.548C335.723 397.548 335.454 397.321 335.413 397.007L322.906 304.452C322.86 304.11 323.098 303.794 323.441 303.748C323.789 303.684 324.099 303.939 324.145 304.283L336.653 396.838C336.699 397.18 336.46 397.496 336.117 397.542C336.087 397.547 336.059 397.548 336.031 397.548Z" fill="#2A2B3C" /><path d="M144.684 240.557C144.165 240.557 143.297 240.557 143.297 239.591C143.297 239.318 143.366 239.117 143.506 238.977C143.753 238.731 144.162 238.723 144.606 238.733H144.763C145.218 238.727 145.617 238.731 145.863 238.977C146.003 239.117 146.072 239.318 146.072 239.591C146.071 240.557 145.203 240.557 144.684 240.557ZM144.529 239.039C144.171 239.039 143.868 239.049 143.722 239.193C143.642 239.273 143.602 239.403 143.602 239.59C143.602 240.149 143.95 240.248 144.681 240.248C145.413 240.248 145.761 240.149 145.761 239.59C145.761 239.403 145.722 239.273 145.641 239.193C145.486 239.041 145.163 239.051 144.759 239.039H144.603C144.58 239.039 144.554 239.039 144.529 239.039Z" fill="#EDF1F4" /><path d="M147.909 240.557C147.39 240.557 146.521 240.557 146.521 239.591C146.521 239.318 146.59 239.117 146.73 238.977C146.977 238.731 147.382 238.723 147.831 238.733H147.987C148.436 238.727 148.842 238.731 149.088 238.977C149.228 239.117 149.297 239.318 149.297 239.591C149.296 240.557 148.428 240.557 147.909 240.557ZM147.755 239.039C147.397 239.039 147.094 239.049 146.948 239.193C146.868 239.273 146.828 239.403 146.828 239.59C146.828 240.149 147.176 240.248 147.907 240.248C148.639 240.248 148.987 240.149 148.987 239.59C148.987 239.403 148.948 239.273 148.867 239.193C148.722 239.049 148.419 239.039 148.06 239.039C148.035 239.039 148.01 239.039 147.984 239.039H147.827C147.805 239.039 147.779 239.039 147.755 239.039Z" fill="#EDF1F4" /><path d="M145.933 239.735L145.828 239.445C145.849 239.437 146.367 239.254 146.765 239.452L146.629 239.729C146.35 239.594 145.936 239.734 145.933 239.735Z" fill="#EDF1F4" /><path d="M392.19 336.076C391.262 337.738 393.527 338.933 394.631 339.582C396.402 340.623 398.336 341.214 400.338 341.471C400.144 345.489 400.138 349.522 400.223 353.521C400.243 354.514 401.732 354.514 401.71 353.521C401.625 349.51 401.638 345.473 401.84 341.452C401.954 341.361 402.015 341.227 402.054 341.085C402.538 341.013 403.017 340.924 403.486 340.803C403.599 341.149 408.244 340.181 409.055 338.774C409.686 337.68 408.987 336.39 407.924 335.977C406.528 335.435 404.457 336.04 403.176 336.654C402.81 336.83 402.468 337.045 402.153 337.292C402.348 335.011 402.591 332.735 402.955 330.482C407.496 331.646 420.065 332.407 418.369 325.728C417.658 322.932 413.63 323.146 411.559 323.421C408.491 323.829 405.746 325.25 403.519 327.386C404.084 324.577 404.793 321.794 405.734 319.069C406.212 317.684 406.743 316.325 407.319 314.988C408.424 316.173 410.472 316.915 411.799 317.629C413.662 318.631 415.526 319.649 417.653 319.85C420.289 320.101 423.758 319.147 425.315 316.744C426.552 314.835 425.681 312.709 423.761 311.759C420.214 310.007 414.265 311.629 410.613 312.46C410.435 312.5 410.32 312.595 410.233 312.707C409.534 312.789 408.819 312.913 408.174 313.164C409.652 310.02 411.36 307.005 413.32 304.171C413.323 304.175 413.328 304.179 413.333 304.182C413.41 304.239 413.485 304.266 413.559 304.29C415.721 307.281 418.994 308.096 422.577 308.053C425.379 308.022 431.138 308.086 432.44 304.62C435.176 297.328 417.976 301.301 415.053 301.817C417.323 298.833 419.827 296.034 422.585 293.492C425.768 293.89 428.56 292.362 430.725 289.969C432.136 288.411 435.635 285.027 433.117 283.041C430.842 281.245 427.48 282.302 425.438 283.944C423.142 285.79 421.871 288.591 421.792 291.578C421.786 291.789 421.858 291.944 421.96 292.067C421.891 292.098 421.823 292.129 421.757 292.188C419.099 294.613 416.664 297.262 414.448 300.086C414.031 294.945 412.306 280.767 406.085 285.339C400.064 289.765 407.756 299.332 412.144 303.211C409.981 306.34 408.099 309.673 406.507 313.173C406.428 313.129 406.352 313.081 406.273 313.038C406.265 312.956 406.258 312.873 406.222 312.787C404.719 309.157 402.94 304.596 400.127 301.802C398.59 300.278 394.948 299.321 393.273 301.224C391.335 303.425 395.098 306.499 396.387 307.726C399.25 310.45 402.456 312.716 405.893 314.585C405.481 315.549 405.073 316.516 404.709 317.507C403.661 320.359 402.842 323.271 402.204 326.225C400.411 321.264 395.779 309.587 391.542 312.966C389.536 314.566 390.825 317.324 392.051 318.896C394.911 322.562 398.283 325.904 401.42 329.337C401.413 329.504 401.449 329.666 401.533 329.814C401.059 332.662 400.736 335.541 400.523 338.433C399.314 336.894 397.887 335.208 396.305 334.528C394.9 333.916 392.964 334.688 392.19 336.076Z" fill="#92CEFF" /><path d="M399.046 340.186C399.673 341.382 398.142 342.241 397.396 342.708C396.199 343.457 394.892 343.881 393.539 344.067C393.671 346.958 393.674 349.857 393.618 352.735C393.603 353.448 392.599 353.449 392.612 352.735C392.67 349.849 392.66 346.945 392.524 344.053C392.447 343.987 392.405 343.892 392.38 343.79C392.052 343.738 391.728 343.673 391.412 343.587C391.335 343.836 388.197 343.139 387.648 342.127C387.222 341.341 387.694 340.414 388.412 340.116C389.355 339.726 390.756 340.16 391.621 340.603C391.868 340.73 392.101 340.885 392.313 341.062C392.181 339.419 392.018 337.785 391.771 336.163C388.701 336.999 380.206 337.547 381.353 332.743C381.834 330.733 384.555 330.886 385.957 331.085C388.031 331.378 389.886 332.4 391.39 333.937C391.009 331.916 390.53 329.915 389.893 327.954C389.571 326.957 389.21 325.98 388.823 325.019C388.076 325.872 386.694 326.404 385.795 326.918C384.535 327.64 383.276 328.372 381.837 328.517C380.056 328.697 377.711 328.012 376.658 326.283C375.823 324.907 376.413 323.38 377.711 322.697C380.108 321.435 384.129 322.605 386.596 323.2C386.716 323.229 386.795 323.297 386.853 323.379C387.326 323.438 387.808 323.526 388.245 323.708C387.246 321.445 386.091 319.278 384.767 317.239C384.764 317.241 384.76 317.244 384.758 317.246C384.705 317.286 384.655 317.308 384.605 317.324C383.144 319.476 380.931 320.062 378.509 320.032C376.616 320.008 372.725 320.056 371.844 317.56C369.994 312.316 381.62 315.174 383.596 315.545C382.061 313.399 380.369 311.386 378.504 309.557C376.353 309.843 374.466 308.744 373.002 307.023C372.049 305.902 369.685 303.468 371.386 302.04C372.925 300.748 375.196 301.508 376.577 302.69C378.129 304.019 378.987 306.032 379.041 308.181C379.046 308.332 378.997 308.445 378.927 308.531C378.973 308.555 379.021 308.576 379.064 308.619C380.86 310.364 382.506 312.269 384.004 314.301C384.285 310.601 385.451 300.404 389.657 303.693C393.726 306.877 388.526 313.758 385.561 316.547C387.024 318.799 388.297 321.196 389.372 323.713C389.426 323.681 389.477 323.646 389.529 323.615C389.536 323.556 389.541 323.496 389.564 323.434C390.58 320.822 391.782 317.543 393.683 315.533C394.721 314.437 397.184 313.748 398.317 315.118C399.627 316.7 397.084 318.911 396.211 319.794C394.276 321.752 392.11 323.384 389.786 324.727C390.065 325.421 390.34 326.117 390.586 326.83C391.294 328.882 391.848 330.976 392.28 333.101C393.493 329.531 396.622 321.134 399.488 323.564C400.843 324.715 399.973 326.699 399.144 327.829C397.211 330.465 394.931 332.869 392.811 335.34C392.816 335.46 392.79 335.575 392.734 335.681C393.054 337.731 393.273 339.801 393.417 341.881C394.232 340.773 395.198 339.562 396.267 339.072C397.214 338.634 398.522 339.188 399.046 340.186Z" fill="#343751" /><path d="M405.619 341.306C404.597 342.27 406.109 343.567 406.834 344.246C407.997 345.334 409.366 346.146 410.852 346.738C409.95 349.487 409.191 352.287 408.506 355.081C408.336 355.775 409.476 356.083 409.645 355.389C410.333 352.586 411.1 349.786 412.009 347.034C412.113 346.994 412.185 346.914 412.243 346.824C412.627 346.874 413.01 346.912 413.392 346.924C413.414 347.188 417.153 347.476 418.039 346.666C418.728 346.037 418.434 344.998 417.698 344.491C416.729 343.826 415.028 343.817 413.932 343.979C413.619 344.025 413.316 344.104 413.028 344.21C413.606 342.668 414.217 341.137 414.92 339.647C418.18 341.395 427.667 344.521 427.621 339.533C427.6 337.445 424.474 336.759 422.834 336.524C420.408 336.173 418.038 336.592 415.929 337.615C416.891 335.78 417.954 333.995 419.186 332.295C419.812 331.434 420.474 330.599 421.166 329.79C421.79 330.842 423.219 331.78 424.104 332.551C425.343 333.632 426.581 334.724 428.174 335.305C430.146 336.023 432.983 336.079 434.626 334.731C435.933 333.661 435.662 332.004 434.369 330.948C431.981 328.997 427.117 328.895 424.164 328.716C424.021 328.707 423.915 328.748 423.826 328.808C423.276 328.722 422.705 328.66 422.163 328.7C423.885 326.823 425.758 325.082 427.792 323.519C427.795 323.523 427.798 323.525 427.801 323.529C427.847 323.584 427.901 323.619 427.953 323.65C429.049 326.176 431.404 327.418 434.158 328.129C436.311 328.686 440.71 329.923 442.358 327.784C445.823 323.286 431.898 322.49 429.561 322.242C431.861 320.64 434.305 319.213 436.894 318.018C439.259 318.953 441.684 318.469 443.793 317.255C445.165 316.464 448.481 314.838 446.923 312.939C445.515 311.222 442.742 311.259 440.869 311.977C438.762 312.785 437.266 314.466 436.645 316.524C436.601 316.669 436.627 316.793 436.682 316.898C436.622 316.906 436.563 316.913 436.502 316.94C434.013 318.075 431.649 319.41 429.422 320.915C430.069 317.257 431.403 307.054 425.778 308.944C420.335 310.773 424.438 319.008 427.073 322.608C424.828 324.335 422.76 326.259 420.886 328.361C420.833 328.314 420.784 328.266 420.732 328.219C420.742 328.16 420.752 328.1 420.739 328.034C420.27 325.203 419.76 321.668 418.128 319.146C417.237 317.769 414.624 316.352 412.983 317.327C411.087 318.455 413.395 321.367 414.154 322.487C415.838 324.97 417.867 327.207 420.151 329.216C419.656 329.801 419.162 330.389 418.698 331C417.36 332.764 416.185 334.618 415.144 336.537C414.7 332.722 413.339 323.654 409.458 325.125C407.622 325.822 408.091 328.003 408.736 329.349C410.241 332.486 412.199 335.504 413.959 338.537C413.923 338.65 413.92 338.772 413.956 338.891C413.058 340.772 412.273 342.704 411.568 344.666C410.93 343.348 410.151 341.882 409.066 341.083C408.101 340.368 406.473 340.504 405.619 341.306Z" fill="#343751" /><path d="M393.125 396.721H413.575L419.452 349.856H387.248L393.125 396.721Z" fill="white" /><path d="M450.101 167.391L450.083 174.767L422.57 174.667L422.59 167.291L450.101 167.391Z" fill="#FFD357" /><path d="M451.93 167.391L451.913 174.767L424.4 174.667L424.419 167.291L451.93 167.391Z" fill="white" /><path d="M453.345 167.291H422.59V168.514H453.345V167.291Z" fill="#FFD357" /><path d="M453.345 173.422H422.59V174.645H453.345V173.422Z" fill="#FFD357" /><path d="M452.76 174.661L452.741 182.037L425.229 181.939L425.249 174.561L452.76 174.661Z" fill="#EA3E72" /><path d="M454.589 174.661L454.571 182.037L427.059 181.939L427.077 174.561L454.589 174.661Z" fill="white" /><path d="M456.004 174.561H425.248V175.784H456.004V174.561Z" fill="#EA3E72" /><path d="M456.004 180.691H425.248V181.915H456.004V180.691Z" fill="#EA3E72" /><path d="M424.792 181.603L424.77 188.979L457.838 189.078L457.86 181.702L424.792 181.603Z" fill="#4093F6" /><path d="M426.989 181.604L426.967 188.979L460.036 189.079L460.058 181.703L426.989 181.604Z" fill="white" /><path d="M461.73 181.607H424.762V182.831H461.73V181.607Z" fill="#4093F6" /><path d="M461.73 187.738H424.762V188.962H461.73V187.738Z" fill="#4093F6" /><path d="M476.293 157H469.832V255.328H476.293V157Z" fill="#BED0E2" /><path d="M473.584 157H465.801V255.328H473.584V157Z" fill="white" /><path d="M385.821 157H378.039V255.328H385.821V157Z" fill="white" /><path d="M473.583 157H378.039V160.311H473.583V157Z" fill="white" /><path d="M473.583 188.686H378.039V191.995H473.583V188.686Z" fill="white" /><path d="M473.583 220.371H378.039V223.681H473.583V220.371Z" fill="white" /><path d="M473.583 252.056H378.039V255.366H473.583V252.056Z" fill="white" /><path d="M443.949 196.547H437.703V220.43H443.949V196.547Z" fill="#92CEFF" /><path d="M437.7 196.547H436.336V220.43H437.7V196.547Z" fill="white" /><path d="M451.824 220.635L457.803 218.826L450.887 195.967L444.908 197.776L451.824 220.635Z" fill="#92CEFF" /><path d="M445.054 197.827L443.748 198.222L450.655 221.085L451.961 220.69L445.054 197.827Z" fill="white" /><path d="M422.442 229.763L422.424 237.138L394.912 237.04L394.931 229.664L422.442 229.763Z" fill="#EA3E72" /><path d="M424.271 229.763L424.253 237.138L396.74 237.04L396.758 229.664L424.271 229.763Z" fill="white" /><path d="M425.688 229.664H394.932V230.886H425.688V229.664Z" fill="#EA3E72" /><path d="M425.688 235.794H394.932V237.017H425.688V235.794Z" fill="#EA3E72" /><path d="M394.475 236.706L394.453 244.083L427.523 244.182L427.545 236.805L394.475 236.706Z" fill="#4093F6" /><path d="M396.671 236.706L396.648 244.083L429.717 244.182L429.739 236.805L396.671 236.706Z" fill="white" /><path d="M431.411 236.709H394.443V237.932H431.411V236.709Z" fill="#4093F6" /><path d="M431.411 242.84H394.443V244.063H431.411V242.84Z" fill="#4093F6" /><path d="M425.614 244.087L425.597 252.055L399.637 251.977L399.655 244.008L425.614 244.087Z" fill="white" /><path d="M427.339 244.087L427.322 252.055L401.361 251.977L401.379 244.008L427.339 244.087Z" fill="#92CEFF" /><path d="M403.215 244.008H399.656V244.967H403.215V244.008Z" fill="#92CEFF" /><path d="M403.215 251H399.656V251.959H403.215V251Z" fill="#92CEFF" /><path d="M432.881 196.899C432.112 195.433 426.663 190.615 423.261 191.058C420.467 191.422 413.523 197.348 411.238 199.46C412.079 197.825 413.89 193.967 414.714 192.363C416.639 188.616 418.699 180.186 418.525 180.351C415.487 183.269 412.882 186.708 411.498 190.725C410.717 192.995 409.924 197.543 409.5 199.895C409.487 199.964 409.791 192.176 408.799 189.437C406.967 184.376 402.961 180.649 398.972 177.232C398.75 177.042 404.056 187.737 404.962 190.248C406.248 193.818 406.896 197.561 407.363 201.32C406.835 199.824 405.766 192.789 402.125 189.448C398.274 185.916 389.648 185.185 386.759 185.988C386.456 186.072 395.086 187.872 399.715 192.009C401.381 193.497 404.61 200.458 404.863 200.901C404.169 200.043 399.521 194.693 397.115 194.291C387.772 192.724 381.621 199.032 381.712 199.18C381.694 199.394 389.343 197.045 396.247 198.01C402.403 198.871 404.286 203.945 408.204 206.069C408.244 206.198 409.433 206.305 409.7 206.189C422.103 200.691 430.891 202.803 430.657 202.614C427.513 200.073 423.954 198.846 419.789 199.988C416.267 200.952 413.487 202.479 410.44 204.571C411.215 203.332 411.84 201.965 412.913 200.937C424.658 189.674 433.04 197.202 432.881 196.899Z" fill="#92CEFF" /><path d="M431.059 202.783C428.265 199.754 423.989 198.329 419.947 199.305C416.763 200.073 413.29 201.665 410.561 203.849C410.7 202.259 410.699 200.643 410.729 199.107C410.789 196.114 410.627 193.058 409.713 190.188C408.866 187.533 407.294 185.356 405.541 183.23C403.457 180.704 401.351 178.201 398.805 176.122C398.51 175.881 398.104 176.175 398.275 176.531C401.04 182.261 403.835 188.063 405.298 194.285C405.987 197.21 406.096 200.14 406.485 203.099C406.751 205.118 407.307 206.997 408.732 208.5C408.953 208.731 409.263 208.536 409.299 208.294C409.448 208.309 409.608 208.247 409.676 208.072C409.819 207.697 409.939 207.313 410.046 206.923C416.323 203.358 423.617 202.086 430.729 203.347C431.057 203.405 431.299 203.043 431.059 202.783Z" fill="#343751" /><path d="M414.881 220.684H402.377L398.783 203.889H418.475L414.881 220.684Z" fill="#BED0E2" /><defs><linearGradient id="paint0_linear_435_1338" x1="311.017" y1="302.045" x2="311.017" y2="202.358" gradientUnits="userSpaceOnUse"><stop stop-color="white" stop-opacity="0" /><stop offset="1" stop-color="#F8CB3D" /></linearGradient><linearGradient id="paint1_linear_435_1338" x1="311.607" y1="187.114" x2="311.607" y2="160.315" gradientUnits="userSpaceOnUse"><stop stop-color="#4093F5" /><stop offset="1" stop-color="white" stop-opacity="0" /></linearGradient></defs></svg> 