<svg width="560" height="560" viewBox="0 0 560 560" fill="none" xmlns="http://www.w3.org/2000/svg"><rect width="560" height="560" fill="#E6EFF7" /><path d="M280 395.479C407.026 395.479 510 392.851 510 389.608C510 386.366 407.026 383.737 280 383.737C152.975 383.737 50 386.366 50 389.608C50 392.851 152.975 395.479 280 395.479Z" fill="#ACE9C0" /><path d="M98.0634 236.548C98.0146 236.517 97.9633 236.495 97.917 236.46C97.2278 235.943 98.1159 234.613 98.8088 235.133C98.8551 235.17 98.9139 235.183 98.9627 235.215C98.9214 234.764 99.3128 234.139 100.133 234.41C100.37 234.489 103.718 235.645 106.661 234.93C106.035 234.626 104.987 234.134 104.192 234.04C103.348 233.943 103.404 232.591 104.252 232.701C104.386 232.718 105.48 232.885 105.625 232.956C109.461 233.788 111.191 234.182 114.134 236.843C116.203 238.714 117.836 244.28 118.334 244.716C118.513 244.873 112.576 247.504 112.041 246.905C110.617 245.307 110.192 241.282 110.163 241.264C106.414 241.327 102.785 241.323 99.2028 240.084C98.4799 239.835 98.6762 238.627 99.3091 238.6C99.3154 238.595 99.3203 238.588 99.3253 238.583C99.3153 238.58 99.3042 238.574 99.2941 238.57C99.0765 238.515 98.1208 238.09 97.8532 237.918C97.3316 237.587 97.6382 236.734 98.0634 236.548Z" fill="#EA3E72" /><path d="M104.588 236.651C101.581 236.651 98.9996 235.446 98.8795 235.388C98.7832 235.343 98.7432 235.228 98.7882 235.133C98.8345 235.037 98.952 234.993 99.0434 235.042C99.0746 235.057 102.305 236.565 105.642 236.214C105.75 236.222 105.841 236.281 105.854 236.386C105.865 236.491 105.787 236.585 105.681 236.597C105.313 236.634 104.947 236.651 104.588 236.651Z" fill="#2A2B3C" /><path d="M104.461 238.525C101.667 238.525 98.142 236.8 97.9782 236.72C97.8831 236.674 97.8444 236.558 97.8919 236.463C97.9382 236.367 98.0558 236.33 98.1496 236.376C98.1921 236.399 102.516 238.52 105.255 238.085C105.362 238.075 105.458 238.141 105.475 238.246C105.491 238.351 105.419 238.449 105.314 238.466C105.041 238.506 104.756 238.525 104.461 238.525Z" fill="#2A2B3C" /><path d="M104.777 239.949C102.567 239.949 99.3865 238.834 99.2439 238.783C99.1438 238.748 99.0913 238.639 99.1263 238.539C99.1601 238.439 99.2738 238.383 99.3702 238.422C99.4077 238.434 103.067 239.716 105.169 239.55C105.269 239.565 105.367 239.622 105.375 239.727C105.382 239.834 105.304 239.925 105.197 239.934C105.064 239.944 104.921 239.949 104.777 239.949Z" fill="#2A2B3C" /><path d="M107.807 238.218C107.764 238.218 107.72 238.205 107.684 238.175C106.551 237.238 106.47 235.026 106.467 234.934C106.463 234.828 106.546 234.739 106.652 234.736C106.759 234.756 106.847 234.815 106.85 234.921C106.851 234.944 106.929 237.051 107.927 237.878C108.008 237.946 108.021 238.066 107.953 238.148C107.917 238.196 107.862 238.218 107.807 238.218Z" fill="#2A2B3C" /><path d="M258.567 295.071H254.658L265.602 266.62H269.511L258.567 295.071Z" fill="#BED0E2" /><path d="M258.566 295.07H216.859V298.505H258.566V295.07Z" fill="#BED0E2" /><path d="M165.421 380.11C165.264 378.567 165.374 377.375 166.263 375.258C166.263 375.231 166.276 375.22 166.276 375.22C166.975 373.577 168.223 369.198 168.842 367.571C171.573 366.991 174.32 370.582 177.496 371.664C176.858 373.962 176.37 376.348 176.641 377.684C176.679 377.899 176.743 378.113 176.833 378.329C177.971 381.197 182.399 383.496 184.116 385.527C184.599 386.056 184.868 386.574 184.83 387.068C184.676 389.586 165.829 383.818 165.421 380.11Z" fill="#EA3E72" /><path d="M184.796 386.773C184.827 386.876 184.826 386.956 184.818 387.06C184.711 389.766 165.417 383.947 165.034 380.365L165.027 380.349C164.97 380.156 164.948 379.949 164.943 379.732C164.867 377.914 166.092 375.577 166.271 375.25C166.264 375.233 166.28 375.225 166.28 375.225C170.913 378.972 176.834 378.318 176.834 378.318C177.833 380.839 181.349 382.92 183.362 384.744C184.18 385.398 184.72 386.092 184.796 386.773Z" fill="#FFD357" /><path d="M184.794 386.773C184.826 386.877 184.824 386.957 184.817 387.06C184.709 389.766 165.415 383.947 165.033 380.365L165.025 380.349C164.969 380.156 164.946 379.949 164.941 379.732C165.863 380.635 167.823 382.265 171.031 383.521C175.181 385.153 179.599 386.673 184.794 386.773Z" fill="#2A2B3B" /><path d="M205.959 386.333C204.864 385.232 204.201 384.238 203.56 382.033C203.545 382.013 203.546 381.996 203.546 381.996C203.056 380.28 201.273 376.088 200.73 374.434C202.486 372.267 206.884 373.33 210.033 372.175C210.983 374.361 212.103 376.525 213.155 377.392C213.319 377.533 213.504 377.661 213.709 377.772C216.399 379.286 221.286 378.288 223.898 378.787C224.606 378.895 225.141 379.129 225.424 379.537C226.888 381.59 208.606 388.96 205.959 386.333Z" fill="#EA3E72" /><path d="M225.21 379.33C225.3 379.393 225.348 379.454 225.407 379.542C227.027 381.71 208.366 389.322 205.816 386.78L205.798 386.772C205.636 386.656 205.487 386.508 205.347 386.344C204.145 384.979 203.627 382.391 203.559 382.024C203.543 382.017 203.551 382.001 203.551 382.001C209.509 381.999 213.7 377.766 213.7 377.766C216.063 379.096 220.105 378.505 222.817 378.656C223.869 378.65 224.724 378.849 225.21 379.33Z" fill="#FFD357" /><path d="M225.21 379.33C225.3 379.393 225.349 379.454 225.408 379.541C227.028 381.71 208.367 389.322 205.816 386.779L205.799 386.772C205.636 386.656 205.487 386.508 205.347 386.344C206.632 386.467 209.18 386.503 212.464 385.46C216.719 384.115 221.109 382.519 225.21 379.33Z" fill="#2A2B3B" /><path d="M207.892 318.203C206.409 306.04 166.141 293.682 160.175 291.242C155.96 289.529 149.494 291.396 144.791 292.184C135.949 293.672 131.646 299.001 132.758 311.733C133.484 319.9 144.379 322.014 151.908 324.503C161.201 327.58 187.844 329.422 188.545 329.585C196.898 331.51 209.21 329.031 207.892 318.203Z" fill="#4093F6" /><path d="M181.775 311.991C181.096 314.155 180.48 316.358 179.899 318.561C178.082 325.344 176.526 332.207 173.924 338.726C170.206 348.086 160.385 367.24 161.043 366.877C168.456 373.462 177.31 377.467 184.763 376.635C191.596 367.234 207.443 329.115 207.989 320.315C208.51 311.955 183.785 305.637 181.775 311.991Z" fill="#4093F6" /><path d="M106.955 286.54C106.955 286.54 124.517 282.881 139.394 292.871C154.273 302.859 158.842 327.605 158.842 327.605L111.394 297.085L106.955 286.54Z" fill="#343751" /><path d="M172.322 301.327C172.322 301.327 201.958 306.988 204.31 316.681C206.66 326.374 195.545 351.23 195.545 351.23L198.686 319.339L172.322 301.327Z" fill="#17171D" /><path d="M202.426 318.566C202.414 318.541 202.413 318.517 202.413 318.49C202.213 316.865 201.288 315.314 199.812 313.838C190.268 304.27 157.875 297.903 152.709 295.79C148.494 294.076 144.003 291.687 139.3 292.475C134.397 293.301 130.895 295.302 128.945 299.092C127.356 302.143 126.769 306.346 127.269 312.024C127.995 320.191 138.888 322.305 146.418 324.794C146.894 324.957 147.419 325.107 147.982 325.257C148.168 325.307 148.357 325.357 148.544 325.407C148.87 325.495 149.195 325.57 149.531 325.643C149.758 325.707 149.995 325.756 150.244 325.807C150.521 325.869 150.794 325.932 151.082 325.994C151.308 326.031 151.546 326.081 151.771 326.131C151.871 326.144 151.971 326.168 152.071 326.18C152.484 326.268 152.922 326.344 153.359 326.431C154.998 326.718 156.762 327.006 158.587 327.256C159.676 327.418 160.788 327.568 161.914 327.706C162.101 327.742 162.303 327.768 162.503 327.782C163.414 327.895 164.327 328.007 165.229 328.12C166.88 328.32 168.519 328.495 170.082 328.658C170.332 328.683 170.581 328.708 170.834 328.734C170.97 328.747 171.095 328.759 171.233 328.77C171.858 328.834 172.471 328.897 173.071 328.958C174.711 329.12 176.224 329.258 177.549 329.371C178.524 329.458 179.413 329.533 180.163 329.607C181.864 329.757 182.928 329.845 183.065 329.871C184.905 330.296 186.93 330.509 188.969 330.459C194.747 330.332 200.564 328.144 202.102 322.917C202.389 322.004 202.527 320.991 202.515 319.878C202.501 319.466 202.476 319.016 202.426 318.566Z" fill="#4093F6" /><path d="M203.475 318.703C202.986 317.529 202.549 316.591 202.174 315.927C202.137 315.851 202.099 315.777 202.048 315.702C201.861 315.389 201.649 315.101 201.397 314.864C200.96 314.437 200.434 314.101 199.809 313.838C194.229 311.512 181.935 315.827 177.208 320.417C175.681 321.905 174.943 323.419 175.495 324.757C176.146 326.308 176.82 327.848 177.546 329.372C177.771 329.91 178.035 330.447 178.284 330.986C178.31 331.048 178.348 331.098 178.371 331.161C179.66 333.939 181.01 336.702 182.3 339.467C183.938 343.006 185.476 346.571 186.69 350.273C189.567 358.866 193.744 376.725 194.743 379.692C194.869 380.029 194.931 380.18 194.956 380.103C198.985 378.654 203.073 376.976 206.964 375.563C211.505 373.887 215.782 372.549 219.397 372.3C218.659 361.941 208.228 329.835 203.475 318.703Z" fill="#4093F6" /><path d="M210.817 373.972C206.927 375.386 198.987 378.651 194.958 380.101C194.933 380.177 194.87 380.026 194.745 379.69C193.745 376.724 189.567 358.865 186.692 350.271C185.477 346.569 183.94 343.004 182.302 339.465C181.014 336.699 177.773 329.908 177.548 329.371C176.222 329.259 174.709 329.121 173.07 328.959C172.471 328.896 171.857 328.833 171.232 328.771C171.094 328.758 170.969 328.746 170.832 328.735C170.806 328.747 170.769 328.76 170.745 328.76C170.432 328.76 170.245 328.735 170.082 328.66C168.519 328.497 166.88 328.322 165.229 328.122C164.327 328.009 163.416 327.897 162.503 327.784C162.303 327.77 162.102 327.745 161.914 327.708C160.788 327.57 159.676 327.42 158.587 327.258C156.762 327.007 154.998 326.72 153.359 326.433C152.921 326.346 152.484 326.269 152.071 326.182C151.971 326.169 151.871 326.146 151.771 326.133C151.534 326.083 151.308 326.033 151.082 325.996C150.796 325.933 150.521 325.869 150.244 325.809C149.995 325.758 149.756 325.709 149.531 325.645C149.194 325.57 148.87 325.497 148.544 325.409C148.357 325.359 148.168 325.309 147.982 325.259C147.419 325.109 146.894 324.959 146.418 324.796C138.888 322.307 127.996 320.193 127.269 312.026C126.769 306.348 127.356 302.147 128.945 299.094L132.585 296.805C132.585 296.805 141.314 314.077 156.837 317.204C163.954 318.642 175.206 317.554 182.19 322.684C192.203 330.037 196.074 350.375 198.299 356.902C200.525 363.391 204.043 369.457 210.817 373.972Z" fill="#2483E2" /><path d="M122.264 322.791L121.033 322.568L108.541 391.753L109.772 391.975L122.264 322.791Z" fill="#2A2B3B" /><path d="M163.714 391.629L151.207 322.451L149.976 322.674L162.483 391.851L163.714 391.629Z" fill="#2A2B3B" /><path d="M152.716 391.629L140.209 322.451L138.979 322.674L151.486 391.851L152.716 391.629Z" fill="#2A2B3B" /><path d="M106.956 286.54C106.956 286.54 136.368 303.605 158.841 327.605C158.841 327.605 131.926 332.6 118.608 321.223C105.291 309.846 106.956 286.54 106.956 286.54Z" fill="#92CEFF" /><path d="M155.608 348.821H116.797V350.072H155.608V348.821Z" fill="#2A2B3B" /><path d="M227.857 285.216C224.092 281.267 219.793 281.19 214.778 279.869C214.04 279.674 213.715 280.737 214.345 281.025C213.7 283.11 213.138 285.22 212.525 287.316C213.129 287.535 213.73 287.767 214.34 287.97C215.651 288.407 216.891 288.632 218.324 288.733C218.777 288.766 219.258 288.77 219.748 288.775C220.659 289.396 222.035 290.753 222.759 291.386C223.727 292.23 224.286 291.112 223.947 290.617C223.927 290.588 223.366 289.778 222.678 289.08C222.96 289.165 223.234 289.266 223.486 289.413C224.873 290.211 225.608 291.708 226.215 293.262C226.349 293.761 226.525 294.229 226.723 294.549C227.317 295.4 228.396 294.616 228.41 293.849C228.436 292.462 227.976 291.753 227.563 290.461C228.266 290.377 228.799 289.913 228.86 289.257C229.275 289.179 229.628 288.905 229.774 288.394C230.111 287.23 228.515 285.904 227.857 285.216Z" fill="#EA3E72" /><path d="M160.172 245.471C174.894 244.55 182.481 265.828 186.301 276.937C190.12 288.045 183.5 293.313 179.186 290.828C165.647 283.035 151.249 246.03 160.172 245.471Z" fill="#D32A6B" /><path d="M216.858 279.405C203.782 275.966 185.131 271.742 179.402 274.873C173.673 278.005 178.428 290.928 180.57 291.349C182.712 291.769 195.497 296.788 211.6 298.126C211.597 298.126 218.882 279.938 216.858 279.405Z" fill="#D32A6B" /><path d="M165.633 248.244C170.905 250.305 179.035 272.037 178.458 290.383C173.094 287.381 170.761 282.577 170.761 282.577L168.958 280.195C168.958 280.195 158.164 251.196 165.633 248.244Z" fill="#17171D" /><path d="M126.162 297.939C126.162 297.939 131.829 253.995 144.858 246.456C153.244 241.602 166.188 245.871 169.077 252.241C174.713 264.666 178 297.888 178 297.888C178 297.888 147.867 304.203 126.162 297.939Z" fill="#EA3E72" /><path d="M159.348 238.676C159.348 238.676 159.197 243.656 159.028 244.775C158.977 245.116 158.277 246.178 157.685 246.581C155.593 245.083 153.864 245.434 153.207 244.775C153.715 243.377 153.976 241.332 153.976 238.676C153.976 236.164 159.348 238.676 159.348 238.676Z" fill="#EA3E72" /><path d="M153.299 234.637C153.299 234.637 154.465 241.402 158.737 241.534C163.011 241.666 160.334 232.324 159.693 232.066C159.05 231.809 154.882 230.901 153.299 234.637Z" fill="#EA3E72" /><path d="M157.686 246.581L156.795 243.584L153.464 243.928L150.664 244.513L157.686 246.581Z" fill="#F2F8FF" /><path d="M157.686 246.581L158.796 243.584L160.173 245.276L157.686 246.581Z" fill="#F2F8FF" /><path d="M150.664 250.765C150.664 250.765 151.56 259.61 141.821 272.535C138.357 277.13 128.062 286.539 128.062 286.539C128.062 286.539 129.418 279.614 129.001 277.216C127.067 266.097 150.664 250.765 150.664 250.765Z" fill="#17171D" /><path d="M150.386 248.918C148.268 240.05 124.056 258.149 117.011 267.549C109.968 276.95 122.86 285.231 126.118 284.06C129.376 282.888 153.297 261.109 150.386 248.918Z" fill="#D32A6B" /><path d="M120.949 241.907C126.509 251.038 132.128 271.478 131.798 277.997C131.468 284.518 117.761 285.851 116.451 284.106C115.143 282.36 103.803 260.298 104.202 246.236C104.202 246.236 119.86 240.118 120.949 241.907Z" fill="#D32A6B" /><path d="M161.428 228.758C160.796 228.475 160.373 228.598 160.116 228.914C159.36 228.574 158.402 228.663 157.889 229.109C157.316 228.833 156.658 228.708 156.054 228.951C155.903 229.013 155.785 229.098 155.685 229.196C154.502 228.539 153.023 228.873 152.319 230.15C152.278 230.223 152.263 230.293 152.251 230.361C151.83 230.693 151.495 231.099 151.264 231.6C150.84 232 150.474 232.463 150.401 233.065C150.342 233.534 150.471 233.977 150.748 234.321C150.548 234.675 150.444 235.045 150.523 235.454C150.59 235.793 150.801 235.97 150.97 236.192C150.696 237.059 151.175 237.731 151.968 238.195C152.192 238.954 152.866 239.564 153.565 239.434C153.852 239.878 154.309 240.138 154.845 239.743C155.207 239.731 155.46 239.407 155.439 239.05C155.432 238.961 155.416 238.873 155.411 238.784C155.491 238.327 155.419 237.826 155.265 237.394C155.212 236.923 155.186 236.449 155.113 235.977C155.1 235.883 155.067 235.805 155.027 235.738C155.177 235.072 155.27 234.382 155.227 233.732C155.561 233.772 155.898 233.745 156.229 233.648C156.656 234.2 157.552 234.125 158.212 233.832C158.577 234.192 159.068 234.419 159.596 234.369C160.336 234.299 160.664 233.737 160.715 233.097C161.011 232.967 161.287 232.799 161.498 232.533C161.786 232.172 161.826 231.807 161.704 231.496C162.368 230.58 162.663 229.31 161.428 228.758Z" fill="#17171D" /><path d="M155.502 235.87C155.502 235.87 154.853 234.624 153.672 234.802C152.49 234.979 152.219 237.795 154.218 238.038C156.216 238.281 155.502 235.87 155.502 235.87Z" fill="#EA3E72" /><path d="M341.503 298.438H189.746V301.773H341.503V298.438Z" fill="#2A2B3B" /><path d="M189.956 393.284C189.929 393.284 189.9 393.283 189.871 393.278C189.53 393.233 189.29 392.918 189.336 392.574L201.843 300.02C201.888 299.678 202.195 299.421 202.547 299.484C202.889 299.529 203.129 299.845 203.083 300.189L190.575 392.743C190.533 393.057 190.264 393.284 189.956 393.284Z" fill="#2A2B3C" /><path d="M243.916 393.284C243.608 393.284 243.34 393.057 243.298 392.743L230.791 300.189C230.745 299.846 230.983 299.531 231.326 299.484C231.676 299.417 231.984 299.677 232.03 300.02L244.538 392.574C244.584 392.917 244.345 393.232 244.002 393.278C243.972 393.283 243.945 393.284 243.916 393.284Z" fill="#2A2B3C" /><path d="M279.325 393.284C279.298 393.284 279.269 393.283 279.24 393.278C278.899 393.233 278.659 392.918 278.705 392.574L291.212 300.02C291.259 299.678 291.57 299.421 291.916 299.484C292.258 299.529 292.498 299.845 292.452 300.189L279.944 392.743C279.902 393.057 279.633 393.284 279.325 393.284Z" fill="#2A2B3C" /><path d="M333.287 393.284C332.98 393.284 332.711 393.057 332.669 392.743L320.162 300.189C320.116 299.846 320.355 299.531 320.697 299.484C321.039 299.417 321.354 299.677 321.401 300.02L333.909 392.574C333.955 392.917 333.716 393.232 333.373 393.278C333.343 393.283 333.316 393.284 333.287 393.284Z" fill="#2A2B3C" /><path d="M293.949 174.389L293.931 181.767L266.42 181.667L266.436 174.29L293.949 174.389Z" fill="#FFD357" /><path d="M295.775 174.389L295.757 181.767L268.244 181.667L268.263 174.29L295.775 174.389Z" fill="white" /><path d="M297.196 174.29H266.438V175.512H297.196V174.29Z" fill="#FFD357" /><path d="M297.196 180.421H266.438V181.644H297.196V180.421Z" fill="#FFD357" /><path d="M296.605 181.659L296.587 189.036L269.076 188.936L269.092 181.561L296.605 181.659Z" fill="#EA3E72" /><path d="M298.432 181.659L298.413 189.036L270.9 188.936L270.919 181.561L298.432 181.659Z" fill="white" /><path d="M299.852 181.561H269.094V182.783H299.852V181.561Z" fill="#EA3E72" /><path d="M299.852 187.691H269.094V188.913H299.852V187.691Z" fill="#EA3E72" /><path d="M268.643 188.602L268.621 195.978L301.689 196.077L301.711 188.701L268.643 188.602Z" fill="#4093F6" /><path d="M270.84 188.601L270.818 195.977L303.887 196.076L303.909 188.7L270.84 188.601Z" fill="white" /><path d="M305.575 188.605H268.607V189.827H305.575V188.605Z" fill="#4093F6" /><path d="M305.575 194.738H268.607V195.96H305.575V194.738Z" fill="#4093F6" /><path d="M320.14 164H313.676V230.68H320.14V164Z" fill="#BED0E2" /><path d="M317.428 164H309.646V230.68H317.428V164Z" fill="white" /><path d="M229.67 164H221.887V230.68H229.67V164Z" fill="white" /><path d="M317.429 164H221.887V167.309H317.429V164Z" fill="white" /><path d="M317.429 195.685H221.887V198.995H317.429V195.685Z" fill="white" /><path d="M317.429 227.37H221.887V230.681H317.429V227.37Z" fill="white" /><path d="M287.795 203.546H281.548V227.429H287.795V203.546Z" fill="#92CEFF" /><path d="M281.549 203.546H280.185V227.429H281.549V203.546Z" fill="white" /><path d="M295.761 227.605L301.74 225.797L294.828 202.936L288.849 204.744L295.761 227.605Z" fill="#92CEFF" /><path d="M288.917 204.84L287.611 205.234L294.518 228.096L295.824 227.702L288.917 204.84Z" fill="white" /><path d="M276.724 203.899C275.958 202.433 270.51 197.615 267.105 198.058C264.311 198.421 257.368 204.348 255.083 206.459C255.925 204.826 257.735 200.967 258.56 199.362C260.485 195.615 262.542 187.187 262.371 187.35C259.332 190.267 256.725 193.705 255.343 197.723C254.562 199.994 253.767 204.54 253.345 206.893C253.332 206.962 253.636 199.175 252.644 196.436C250.813 191.374 246.807 187.647 242.818 184.231C242.594 184.04 247.901 194.735 248.807 197.246C250.093 200.816 250.74 204.559 251.209 208.319C250.682 206.823 249.612 199.786 245.97 196.446C242.12 192.914 233.492 192.183 230.602 192.987C230.3 193.071 238.932 194.87 243.561 199.007C245.225 200.494 248.457 207.457 248.708 207.899C248.014 207.041 243.366 201.691 240.96 201.289C231.616 199.721 225.464 206.03 225.556 206.179C225.541 206.392 233.188 204.043 240.09 205.008C246.248 205.87 248.13 210.943 252.049 213.067C252.088 213.196 253.278 213.304 253.543 213.187C265.948 207.689 274.737 209.802 274.503 209.613C271.358 207.071 267.8 205.844 263.633 206.986C260.112 207.951 257.332 209.477 254.286 211.57C255.061 210.33 255.686 208.964 256.759 207.936C268.503 196.675 276.885 204.202 276.724 203.899Z" fill="#92CEFF" /><path d="M274.904 209.781C272.111 206.753 267.834 205.328 263.793 206.304C260.61 207.071 257.136 208.664 254.407 210.847C254.546 209.257 254.544 207.641 254.574 206.105C254.632 203.112 254.474 200.057 253.558 197.186C252.711 194.531 251.138 192.355 249.386 190.228C247.303 187.702 245.196 185.199 242.652 183.119C242.355 182.878 241.949 183.173 242.121 183.528C244.887 189.258 247.678 195.06 249.144 201.284C249.833 204.208 249.941 207.137 250.331 210.097C250.597 212.116 251.152 213.994 252.579 215.498C252.798 215.73 253.109 215.534 253.144 215.291C253.292 215.306 253.453 215.245 253.522 215.07C253.666 214.695 253.786 214.311 253.891 213.921C260.167 210.355 267.464 209.084 274.574 210.344C274.902 210.404 275.144 210.042 274.904 209.781Z" fill="#343751" /><path d="M258.728 227.682H246.222L242.627 210.889H262.321L258.728 227.682Z" fill="#BED0E2" /><path d="M407.925 225.284C407.039 221.837 405.759 216.823 403.707 212.713C401.305 212.999 400.403 212.488 398.05 213.048C398.325 221.808 395.115 230.502 393.841 239.16C393.797 239.457 393.912 239.878 394.279 239.928C396.775 240.273 399.272 240.621 401.768 240.966C402.159 241.02 402.562 240.811 402.56 240.363C402.534 236.314 402.437 232.267 402.311 228.221C403.101 232.157 403.39 236.172 403.58 240.219C403.602 240.647 403.963 240.903 404.373 240.821C406.951 240.313 409.564 240.732 409.939 237.806C410.462 233.716 408.928 229.181 407.925 225.284Z" fill="#2A2B3C" /><path d="M395.496 372.987C395.163 377.025 393.82 380.737 393.878 381.426C393.878 381.426 393.894 381.436 393.884 381.462C394.046 383.733 393.768 384.899 393.137 386.294C391.129 383.117 388.87 382.768 384.784 383.655C380.943 384.485 373.376 386.369 374.001 386.029C376.273 384.649 380.893 383.339 382.879 380.993C383.038 380.813 383.172 380.637 383.277 380.442C383.518 380.018 384.73 377.719 386.24 372.182C386.706 372.163 391.665 372.884 395.496 372.987Z" fill="#E93E72" /><path d="M392.675 387.638C392.545 387.81 392.416 387.905 392.316 387.915C391.188 387.951 390.922 384.714 390.2 384.966C380.539 388.309 372.819 388.688 372.066 388.012C371.895 387.856 371.827 387.678 371.844 387.492C371.926 386.555 373.833 385.293 374.644 384.982C377.145 383.902 379.228 383.033 382.887 380.979C382.887 380.979 388.283 383.501 393.885 381.435C393.885 381.435 393.897 381.449 393.885 381.461C394.236 384.388 393.316 386.847 392.675 387.638Z" fill="#3F4261" /><path d="M383.612 379.731C381.676 382.294 377.061 383.929 377.061 383.929C377.061 383.929 380.501 385.377 393.879 381.428C393.879 381.428 385.269 377.537 383.612 379.731Z" fill="#E93E72" /><path d="M392.316 387.915C391.188 387.952 390.922 384.715 390.2 384.966C380.539 388.309 372.819 388.688 372.066 388.013C371.895 387.857 371.827 387.679 371.844 387.493C377.096 388.203 381.739 386.473 386.668 385.086C390.407 384.034 390.661 383.165 392.059 386.985C392.14 387.111 392.416 387.905 392.316 387.915Z" fill="#2A2B3B" /><path d="M417.016 272.917C413.951 264.487 404.534 262.435 396.741 264.661C396.453 264.386 396.003 264.273 395.615 264.624C389.538 270.127 387.612 277.906 386.523 285.761C385.172 295.454 384.121 305.247 383.508 315.016C382.92 324.271 376.054 373.788 376.617 373.289C380.069 374.752 383.708 375.639 387.235 376.178C392.764 377.028 398.028 377.028 401.98 377.028C406.346 366.26 407.447 354.79 408.121 343.285C408.847 330.601 409.973 318.144 412.324 305.636C412.474 304.861 412.624 304.087 412.774 303.31C413.837 297.769 415.026 292.241 416.176 286.713C417.102 282.259 418.641 277.407 417.016 272.917Z" fill="#3F4261" /><path d="M412.773 303.307C412.623 304.084 412.473 304.858 412.323 305.633C409.972 318.141 408.846 330.598 408.121 343.282C407.446 354.787 406.344 366.256 401.979 377.025C398.027 377.025 392.763 377.025 387.234 376.175C387.234 376.175 401.105 352.397 401.943 334.049C402.769 315.714 404.857 292.275 404.857 292.275L412.773 303.307Z" fill="#343751" /><path d="M404.055 286.918C404.055 286.918 406.825 318.942 409.15 325.977L411.947 309.718L404.055 286.918Z" fill="#2A2B3B" /><path d="M429.959 372.987C430.294 377.025 431.636 380.737 431.579 381.426C431.579 381.426 431.564 381.436 431.571 381.462C431.411 383.733 431.689 384.899 432.318 386.294C434.327 383.117 436.587 382.768 440.671 383.655C444.514 384.485 452.081 386.369 451.455 386.029C449.184 384.649 444.563 383.339 442.576 380.993C442.418 380.813 442.285 380.637 442.18 380.442C441.937 380.018 440.725 377.719 439.217 372.182C438.752 372.163 433.79 372.884 429.959 372.987Z" fill="#E93E72" /><path d="M432.782 387.638C432.913 387.81 433.042 387.905 433.142 387.915C434.269 387.951 434.535 384.714 435.258 384.966C444.919 388.309 452.638 388.688 453.394 388.012C453.563 387.856 453.632 387.678 453.614 387.492C453.533 386.555 451.625 385.293 450.815 384.982C448.313 383.902 446.232 383.033 442.57 380.979C442.57 380.979 437.174 383.501 431.572 381.435C431.572 381.435 431.56 381.449 431.574 381.461C431.222 384.388 432.143 386.847 432.782 387.638Z" fill="#3F4261" /><path d="M441.845 379.731C443.782 382.294 448.397 383.929 448.397 383.929C448.397 383.929 444.955 385.377 431.578 381.428C431.578 381.428 440.187 377.537 441.845 379.731Z" fill="#E93E72" /><path d="M433.141 387.915C434.268 387.952 434.534 384.715 435.257 384.966C444.918 388.309 452.637 388.688 453.393 388.013C453.562 387.857 453.63 387.679 453.613 387.493C448.361 388.203 443.717 386.473 438.789 385.086C435.049 384.034 434.797 383.165 433.398 386.985C433.316 387.111 433.041 387.905 433.141 387.915Z" fill="#2A2B3B" /><path d="M443.392 340.144C440.115 327.861 437.276 315.678 435.589 303.071C434.737 296.681 434.051 290.276 433.324 283.884C433.061 281.57 432.924 279.107 432.436 276.755C431.986 274.504 431.235 272.365 429.797 270.528C424.245 263.472 414.663 264.487 407.96 269.039C407.596 268.853 407.135 268.889 406.871 269.352C402.819 276.481 403.431 284.473 404.859 292.278C406.622 301.896 408.686 311.527 411.161 320.995C413.501 329.975 417.066 338.668 418.753 347.798C420.593 357.704 422.493 379.154 422.855 378.491C429.259 378.505 435.024 378.003 439.74 376.99C443.105 376.29 445.944 375.314 448.12 374.101C448.896 362.518 446.357 351.261 443.392 340.144Z" fill="#3F4261" /><path d="M448.118 374.1C445.942 375.313 443.103 376.289 439.738 376.989C438.814 369.06 435.361 342.181 429.959 329.475C423.579 314.466 428.296 276.356 428.296 276.356L432.435 276.755C432.923 279.107 433.061 281.572 433.324 283.885C434.049 290.275 434.737 296.68 435.589 303.071C437.277 315.678 440.115 327.86 443.392 340.144C446.355 351.262 448.894 362.518 448.118 374.1Z" fill="#343751" /><path d="M398.546 226.567C394.704 224.528 387.785 236.961 376.437 261.155C371.449 271.79 386.219 275.388 388.884 273.179C391.55 270.971 406.445 230.756 398.546 226.567Z" fill="#EDF1F4" /><path d="M344.362 266.963C344.318 266.951 344.272 266.947 344.228 266.932C343.574 266.697 343.975 265.45 344.632 265.685C344.677 265.701 344.726 265.699 344.771 265.711C344.638 265.373 344.806 264.792 345.51 264.801C345.713 264.805 348.59 264.88 350.738 263.607C350.181 263.524 349.252 263.4 348.608 263.523C347.926 263.653 347.67 262.591 348.358 262.468C348.467 262.448 349.361 262.311 349.49 262.331C352.68 262.037 356.106 262.799 359.069 263.994C359.566 264.151 360.061 264.328 360.549 264.543C360.723 264.621 360.81 264.843 360.811 265.021C360.816 265.922 360.361 267.868 360.08 268.723C360.051 268.81 360 268.877 359.943 268.936C360.341 269.34 359.833 270.104 359.284 269.77C357.813 268.88 354.913 267.668 354.887 267.661C351.962 268.626 349.118 269.511 346.039 269.427C345.417 269.41 345.304 268.427 345.795 268.253C345.798 268.247 345.8 268.24 345.803 268.235C345.794 268.235 345.785 268.233 345.776 268.233C345.594 268.244 344.752 268.148 344.501 268.079C344.019 267.948 344.072 267.212 344.362 266.963Z" fill="#EA3E72" /><path d="M353.782 262.909C357.469 253.897 374.157 257.033 380.686 257.037C387.214 257.04 389.232 270.663 387.553 272.057C385.875 273.452 361.583 278.233 353.652 267.687C353.652 267.687 352.989 264.847 353.782 262.909Z" fill="#EDF1F4" /><path d="M402.469 235.292C402.469 235.292 404.73 248.941 389.172 272.483C387.903 274.404 372.805 274.521 365.537 273.801C365.537 273.801 382.803 273.363 385.295 269.066C389.115 262.475 402.469 235.292 402.469 235.292Z" fill="#E4EAEF" /><path d="M436.97 277.211C436.97 277.211 423.099 229.379 411.814 225.734C402.595 222.758 394.561 226.048 393.758 235.589C393.019 244.397 391.991 257.519 390.649 261.994C389.306 266.47 385.211 274.749 385.211 274.749C385.211 274.749 415.263 283.477 436.97 277.211Z" fill="#4093F6" /><path d="M398.049 220.09C398.049 220.09 399.559 224.621 399.727 225.74C399.779 226.082 400.48 227.144 401.073 227.546C403.163 226.048 404.893 226.399 405.55 225.74C405.042 224.342 403.924 222.551 403.421 220.09C402.914 217.629 398.049 220.09 398.049 220.09Z" fill="#E93E72" /><path d="M405.207 215.951C405.207 215.951 403.139 222.496 398.886 222.049C394.635 221.602 398.55 212.706 399.223 212.538C399.896 212.37 404.146 212.034 405.207 215.951Z" fill="#E93E72" /><path d="M401.925 210.401C399.259 209.87 396.043 210.432 395.64 213.359C395.595 213.692 395.716 214.033 396.078 214.128C398.21 214.687 400.335 214.757 402.495 214.391C402.52 214.759 402.558 215.126 402.625 215.5C402.781 216.355 402.907 217.77 403.622 218.386C405.06 219.618 406.427 217.503 406.675 216.286C407.313 213.143 404.764 210.53 401.925 210.401Z" fill="#2A2B3C" /><path d="M401.072 227.546L401.961 224.549H405.042L408.093 224.934L401.072 227.546Z" fill="#F2F8FF" /><path d="M401.073 227.547L399.961 224.55L398.781 226.437L401.073 227.547Z" fill="#F2F8FF" /><path d="M410.925 228.793C410.925 228.793 406.465 243.743 405.549 257.93C404.634 272.117 391.59 276.313 391.59 276.313C391.59 276.313 415.539 283.045 436.97 277.21C436.97 277.21 423.803 237.498 410.925 228.793Z" fill="#2483E2" /><path d="M410.924 228.794C406.89 230.424 410.152 255.652 416.541 265.508C422.929 275.365 436.943 273.281 436.969 269.819C436.995 266.357 419.215 225.449 410.924 228.794Z" fill="#EDF1F4" /><path d="M414.504 230.117C412.765 223.364 409.526 210.598 401.925 210.401C401.519 210.39 403.629 211.488 403.507 211.891C402.957 213.716 403.668 215.157 403.741 217.007C403.609 217.107 403.135 218.375 403.142 218.596C403.444 227.421 401.703 235.281 400.419 243.991C400.374 244.289 400.491 244.709 400.856 244.759C403.351 245.104 405.848 245.452 408.344 245.797C408.737 245.851 409.14 245.642 409.137 245.194C409.111 241.146 409.016 237.098 408.888 233.052C409.679 236.988 409.969 241.003 410.158 245.051C410.178 245.478 410.539 245.735 410.949 245.653C413.528 245.144 416.142 245.563 416.516 242.638C417.037 238.548 415.506 234.013 414.504 230.117Z" fill="#2A2B3C" /><path d="M402.86 216.873C402.86 216.873 403.67 215.727 404.817 216.062C405.964 216.399 405.853 219.223 403.838 219.196C401.825 219.167 402.86 216.873 402.86 216.873Z" fill="#E93E72" /><path d="M396.147 284.254C396.33 284.706 397.035 284.902 397.272 284.333C397.275 284.326 397.279 284.319 397.282 284.312C397.389 284.828 398.171 285.095 398.437 284.493C398.985 283.249 399.542 281.905 400.75 281.109C401.756 280.447 403.127 280.382 404.264 280.123C405.235 279.901 406.082 279.627 406.982 279.215C410.241 277.732 413.43 275.971 416.453 274.06C416.772 273.858 416.852 273.308 416.523 273.067C414.952 271.918 413.381 270.769 411.808 269.621C411.551 269.434 411.27 269.473 411.06 269.612C410.973 269.641 410.888 269.69 410.813 269.767C407.983 272.621 404.064 274.881 400.29 276.21C397.599 277.158 395.524 278.535 393.816 280.85C393.342 281.494 394.277 282.324 394.756 281.675C395.702 280.395 396.763 279.545 397.906 278.87C397.913 278.906 397.911 278.944 397.923 278.98C396.636 280.331 395.717 281.834 395.087 283.599C394.831 284.311 395.812 284.841 396.147 284.254Z" fill="#EA3E72" /><path d="M396.492 280.925C396.471 280.925 396.45 280.921 396.43 280.911C396.351 280.877 396.314 280.785 396.35 280.706C396.572 280.194 397.757 278.927 397.808 278.873C397.867 278.813 397.966 278.807 398.03 278.867C398.092 278.926 398.096 279.025 398.036 279.089C397.703 279.443 396.804 280.447 396.636 280.831C396.609 280.89 396.551 280.925 396.492 280.925Z" fill="#2A2B3C" /><path d="M396.148 284.41C396.132 284.41 396.116 284.408 396.098 284.402C396.017 284.375 395.972 284.287 396.001 284.205C396.01 284.178 396.93 281.461 398.903 279.445C398.964 279.386 399.063 279.383 399.124 279.444C399.185 279.504 399.186 279.603 399.125 279.665C397.205 281.626 396.306 284.278 396.296 284.303C396.276 284.369 396.215 284.41 396.148 284.41Z" fill="#2A2B3C" /><path d="M397.283 284.47C397.263 284.47 397.245 284.466 397.226 284.458C397.146 284.427 397.106 284.334 397.138 284.256C397.183 284.141 398.263 281.451 399.722 280.313C399.792 280.262 399.889 280.273 399.942 280.34C399.995 280.408 399.983 280.507 399.916 280.56C398.524 281.645 397.441 284.343 397.43 284.371C397.405 284.432 397.346 284.47 397.283 284.47Z" fill="#2A2B3C" /><path d="M417.895 243.362C417.187 231.81 412.268 217.696 408.667 213.713C405.101 209.767 401.515 210.816 401.481 210.826L401.389 210.528C401.426 210.514 405.2 209.412 408.899 213.503C412.533 217.524 417.496 231.73 418.207 243.342L417.895 243.362Z" fill="#2A2B3C" /><path d="M401.938 275.262C401.849 265.524 418.449 261.955 424.47 259.433C430.49 256.906 437.626 268.685 436.618 270.622C435.61 272.558 415.064 286.37 403.668 279.716C403.668 279.716 401.958 277.354 401.938 275.262Z" fill="#EDF1F4" /><path d="M424.156 241.584C424.156 241.584 431.054 261.647 430.429 267.275C429.804 272.904 415.107 281.141 415.107 281.141C415.107 281.141 419.126 281.045 428.295 276.348C437.464 271.653 437.215 271.056 436.971 269.818C436.726 268.58 433.831 257.428 424.156 241.584Z" fill="#E4EAEF" /><path d="M402.577 276.672C402.56 276.672 402.545 276.669 402.528 276.664C402.447 276.638 402.4 276.549 402.428 276.467C402.497 276.259 404.118 271.35 406.464 269.906C406.539 269.863 406.635 269.884 406.679 269.958C406.724 270.031 406.702 270.128 406.628 270.173C404.379 271.556 402.743 276.514 402.727 276.564C402.703 276.629 402.643 276.672 402.577 276.672Z" fill="#D3E0EA" /><path d="M402.958 277.684C402.928 277.684 402.896 277.676 402.87 277.657C402.798 277.607 402.782 277.511 402.831 277.439C402.913 277.321 404.887 274.526 407.097 273.736C407.176 273.708 407.267 273.751 407.297 273.831C407.325 273.912 407.283 274.002 407.202 274.031C405.086 274.787 403.107 277.589 403.087 277.617C403.057 277.662 403.008 277.684 402.958 277.684Z" fill="#D3E0EA" /><path d="M403.295 278.373C403.216 278.373 403.15 278.316 403.14 278.237C403.129 278.152 403.19 278.073 403.275 278.062C403.3 278.058 405.732 277.751 406.665 277.043C406.735 276.993 406.832 277.004 406.884 277.073C406.936 277.141 406.922 277.239 406.853 277.291C405.854 278.051 403.418 278.36 403.315 278.372C403.308 278.373 403.301 278.373 403.295 278.373Z" fill="#D3E0EA" /><path d="M407.115 279.337C405.129 279.337 403.733 279.135 403.709 279.133C403.624 279.119 403.565 279.04 403.578 278.954C403.592 278.87 403.659 278.81 403.757 278.823C403.788 278.829 407.119 279.308 410.803 278.77C410.881 278.754 410.967 278.816 410.981 278.903C410.994 278.987 410.933 279.067 410.848 279.08C409.511 279.275 408.221 279.337 407.115 279.337Z" fill="#D3E0EA" /><path d="M340.088 266.946L380.512 268.272L380.57 266.502L340.146 265.176L340.088 266.946Z" fill="#AABFCE" /><path d="M380.594 268.226L398.952 266.005L399.01 264.235L380.65 266.457L380.594 268.226Z" fill="#BED0E2" /><path d="M399.01 264.235L353.188 261.385L340.23 265.128L380.65 266.456L399.01 264.235Z" fill="#DCE8EF" /><path d="M341.37 265.164L381.552 266.059L377.143 241.482L337.459 240.157L336.066 241.061L341.37 265.164Z" fill="#DCE8EF" /><path d="M340.391 265.133L380.651 266.456L376.51 242.813L336.066 241.062L340.391 265.133Z" fill="#BED0E2" /></svg> 