<svg width="560" height="560" viewBox="0 0 560 560" fill="none" xmlns="http://www.w3.org/2000/svg"><rect width="560" height="560" fill="#E6EFF7" /><path d="M280 404.357C407.026 404.357 510 401.729 510 398.486C510 395.244 407.026 392.615 280 392.615C152.975 392.615 50 395.244 50 398.486C50 401.729 152.975 404.357 280 404.357Z" fill="#BBEFEF" /><path opacity="0.34" d="M280.541 198.043L249.611 297.73H339.553L310.323 198.043H280.541Z" fill="url(#paint0_linear_435_1337)" /><path d="M295.048 207.836C298.112 207.836 300.597 205.352 300.597 202.287C300.597 199.222 298.112 196.737 295.048 196.737C291.983 196.737 289.498 199.222 289.498 202.287C289.498 205.352 291.983 207.836 295.048 207.836Z" fill="#FFD357" /><path d="M295.175 180.712C295.175 180.712 288.296 190.822 273.078 202.287H317.272C302.054 190.822 295.175 180.712 295.175 180.712Z" fill="#4093F5" /><path d="M296.596 156H293.752V182.799H296.596V156Z" fill="url(#paint1_linear_435_1337)" /><path d="M188.651 260.914C207.455 260.914 222.699 245.671 222.699 226.867C222.699 208.063 207.455 192.819 188.651 192.819C169.847 192.819 154.604 208.063 154.604 226.867C154.604 245.671 169.847 260.914 188.651 260.914Z" fill="#BBEFEF" /><path d="M188.651 257.05C205.321 257.05 218.834 243.537 218.834 226.867C218.834 210.198 205.321 196.685 188.651 196.685C171.982 196.685 158.469 210.198 158.469 226.867C158.469 243.537 171.982 257.05 188.651 257.05Z" fill="white" /><path d="M189.275 198.914H188.031V204.097H189.275V198.914Z" fill="#BED0E2" /><path d="M200.318 205.474L201.395 206.096L203.18 203.002L202.103 202.381L200.318 205.474Z" fill="#BED0E2" /><path d="M209.427 214.113L210.049 215.189L213.143 213.402L212.521 212.325L209.427 214.113Z" fill="#BED0E2" /><path d="M216.607 226.245H211.424V227.488H216.607V226.245Z" fill="#BED0E2" /><path d="M210.112 238.503L209.49 239.579L212.585 241.367L213.207 240.29L210.112 238.503Z" fill="#BED0E2" /><path d="M201.36 247.693L200.283 248.314L202.069 251.409L203.146 250.788L201.36 247.693Z" fill="#BED0E2" /><path d="M189.275 249.526H188.031V254.817H189.275V249.526Z" fill="#BED0E2" /><path d="M177.016 248.325L175.94 247.703L174.152 250.797L175.229 251.419L177.016 248.325Z" fill="#BED0E2" /><path d="M167.878 239.618L167.256 238.542L164.162 240.33L164.784 241.406L167.878 239.618Z" fill="#BED0E2" /><path d="M165.993 226.245H160.701V227.488H165.993V226.245Z" fill="#BED0E2" /><path d="M167.199 215.229L167.821 214.152L164.726 212.365L164.104 213.441L167.199 215.229Z" fill="#BED0E2" /><path d="M175.902 206.091L176.979 205.469L175.191 202.375L174.114 202.997L175.902 206.091Z" fill="#BED0E2" /><path d="M206.385 210.863L204.809 209.287L187.059 227.037L188.635 228.613L206.385 210.863Z" fill="#4C5072" /><path d="M203.138 240.305L203.99 239.164L190.36 228.978L189.508 230.119L203.138 240.305Z" fill="#4C5072" /><path d="M188.65 231.386C190.917 231.386 192.755 229.548 192.755 227.281C192.755 225.014 190.917 223.176 188.65 223.176C186.383 223.176 184.545 225.014 184.545 227.281C184.545 229.548 186.383 231.386 188.65 231.386Z" fill="#4093F5" /><path d="M188.651 229.457C189.853 229.457 190.827 228.483 190.827 227.281C190.827 226.079 189.853 225.104 188.651 225.104C187.449 225.104 186.475 226.079 186.475 227.281C186.475 228.483 187.449 229.457 188.651 229.457Z" fill="white" /><path d="M122.556 301.474C121.439 301.955 120.431 303.145 119.577 304.232C119.426 302.19 119.198 300.156 118.864 298.145C118.922 298.041 118.949 297.926 118.942 297.809C121.157 295.383 123.54 293.023 125.56 290.434C126.427 289.324 127.336 287.376 125.92 286.245C122.926 283.858 119.655 292.106 118.388 295.61C117.939 293.524 117.36 291.466 116.62 289.451C116.363 288.752 116.074 288.069 115.784 287.387C118.211 286.068 120.476 284.466 122.497 282.543C123.409 281.677 126.067 279.504 124.698 277.951C123.514 276.606 120.941 277.283 119.857 278.358C117.869 280.332 116.612 283.553 115.552 286.117C115.525 286.178 115.522 286.237 115.515 286.296C115.46 286.326 115.407 286.361 115.35 286.391C114.227 283.918 112.896 281.565 111.368 279.354C114.468 276.615 119.9 269.857 115.648 266.73C111.253 263.501 110.036 273.514 109.742 277.146C108.176 275.151 106.455 273.28 104.579 271.567C104.533 271.526 104.484 271.504 104.435 271.482C104.508 271.397 104.558 271.287 104.554 271.138C104.498 269.028 103.601 267.05 101.979 265.746C100.537 264.587 98.1614 263.841 96.5542 265.108C94.7756 266.51 97.2484 268.9 98.2439 270.001C99.7736 271.692 101.746 272.771 103.994 272.49C105.943 274.286 107.712 276.263 109.315 278.371C107.25 278.006 95.1021 275.2 97.0345 280.35C97.9538 282.798 102.021 282.752 104 282.775C106.53 282.805 108.843 282.228 110.37 280.117C110.422 280.101 110.475 280.081 110.53 280.039C110.532 280.038 110.536 280.034 110.539 280.033C111.923 282.036 113.13 284.164 114.173 286.384C113.719 286.207 113.213 286.12 112.72 286.062C112.659 285.983 112.577 285.915 112.451 285.887C109.872 285.3 105.67 284.153 103.166 285.391C101.809 286.062 101.192 287.563 102.066 288.912C103.167 290.609 105.616 291.283 107.477 291.106C108.98 290.965 110.297 290.245 111.613 289.537C112.552 289.032 113.997 288.509 114.777 287.671C115.184 288.614 115.559 289.574 115.898 290.554C116.562 292.479 117.064 294.444 117.463 296.429C115.889 294.919 113.951 293.916 111.784 293.629C110.32 293.433 107.476 293.283 106.974 295.257C105.776 299.975 114.654 299.438 117.859 298.617C118.117 300.209 118.288 301.816 118.426 303.427C118.204 303.253 117.963 303.102 117.703 302.978C116.8 302.543 115.335 302.116 114.35 302.499C113.598 302.79 113.105 303.702 113.55 304.475C114.123 305.468 117.404 306.153 117.484 305.908C117.815 305.993 118.153 306.056 118.496 306.107C118.522 306.207 118.567 306.301 118.646 306.366C118.79 309.206 118.8 312.058 118.74 314.891C118.723 315.593 119.775 315.593 119.79 314.891C119.85 312.064 119.845 309.219 119.709 306.38C121.124 306.197 122.489 305.781 123.74 305.045C124.521 304.588 126.12 303.745 125.465 302.57C124.915 301.593 123.548 301.048 122.556 301.474Z" fill="#92CEFF" /><path d="M122.587 304.685C123.343 305.03 124.022 305.887 124.6 306.669C124.702 305.2 124.855 303.737 125.082 302.29C125.042 302.215 125.025 302.132 125.029 302.05C123.532 300.304 121.922 298.607 120.556 296.744C119.969 295.946 119.355 294.544 120.313 293.732C122.336 292.015 124.548 297.947 125.403 300.468C125.708 298.968 126.099 297.488 126.6 296.039C126.773 295.536 126.967 295.044 127.164 294.554C125.523 293.605 123.993 292.452 122.626 291.07C122.011 290.446 120.213 288.883 121.139 287.765C121.939 286.798 123.678 287.285 124.412 288.059C125.754 289.479 126.605 291.795 127.321 293.64C127.339 293.682 127.343 293.725 127.346 293.768C127.384 293.791 127.421 293.815 127.458 293.836C128.217 292.059 129.116 290.367 130.149 288.776C128.054 286.805 124.382 281.944 127.256 279.695C130.225 277.373 131.048 284.575 131.247 287.187C132.305 285.753 133.467 284.407 134.737 283.174C134.767 283.145 134.801 283.129 134.833 283.112C134.784 283.051 134.751 282.971 134.753 282.865C134.792 281.348 135.399 279.924 136.495 278.986C137.47 278.152 139.074 277.616 140.161 278.527C141.365 279.538 139.692 281.256 139.019 282.047C137.986 283.264 136.653 284.041 135.135 283.838C133.816 285.13 132.621 286.552 131.537 288.068C132.933 287.805 141.146 285.788 139.839 289.492C139.217 291.254 136.468 291.221 135.131 291.239C133.42 291.26 131.858 290.846 130.826 289.326C130.791 289.314 130.753 289.3 130.718 289.271C130.716 289.27 130.712 289.266 130.712 289.266C129.775 290.706 128.961 292.238 128.254 293.835C128.562 293.706 128.903 293.645 129.236 293.601C129.277 293.544 129.334 293.496 129.419 293.475C131.162 293.053 134.003 292.229 135.696 293.121C136.612 293.602 137.028 294.682 136.439 295.652C135.694 296.874 134.039 297.357 132.781 297.231C131.765 297.129 130.876 296.612 129.985 296.103C129.351 295.74 128.374 295.362 127.848 294.761C127.573 295.44 127.319 296.13 127.091 296.834C126.642 298.219 126.303 299.632 126.033 301.061C127.096 299.975 128.406 299.253 129.87 299.046C130.86 298.906 132.783 298.798 133.122 300.219C133.931 303.612 127.933 303.224 125.764 302.634C125.59 303.78 125.475 304.935 125.38 306.095C125.53 305.968 125.694 305.86 125.87 305.771C126.48 305.458 127.469 305.152 128.137 305.428C128.645 305.638 128.978 306.292 128.677 306.849C128.289 307.563 126.073 308.056 126.019 307.88C125.794 307.941 125.568 307.986 125.335 308.022C125.316 308.095 125.288 308.161 125.234 308.207C125.137 310.252 125.13 312.301 125.17 314.34C125.18 314.844 124.47 314.844 124.461 314.34C124.421 312.307 124.423 310.258 124.515 308.217C123.559 308.087 122.637 307.786 121.791 307.257C121.264 306.926 120.182 306.321 120.625 305.476C120.993 304.771 121.917 304.379 122.587 304.685Z" fill="#343751" /><path d="M113.546 306.106C112.781 306.67 112.23 307.705 111.78 308.637C111.282 307.251 110.726 305.885 110.092 304.557C110.118 304.473 110.117 304.387 110.09 304.307C111.334 302.164 112.717 300.033 113.779 297.818C114.234 296.867 114.567 295.326 113.27 294.833C110.528 293.795 109.568 300.2 109.254 302.894C108.517 301.539 107.689 300.23 106.743 298.983C106.416 298.551 106.067 298.137 105.717 297.723C107.329 296.306 108.765 294.725 109.953 292.97C110.489 292.179 112.118 290.122 110.778 289.326C109.619 288.636 107.775 289.639 107.145 290.611C105.992 292.392 105.633 294.889 105.3 296.89C105.291 296.936 105.298 296.978 105.305 297.02C105.269 297.052 105.234 297.087 105.197 297.12C103.872 295.635 102.412 294.276 100.827 293.056C102.688 290.513 105.585 284.696 101.74 283.406C97.7668 282.071 98.7111 289.276 99.1664 291.86C97.593 290.799 95.9233 289.856 94.1648 289.054C94.121 289.034 94.0809 289.029 94.0371 289.024C94.0772 288.95 94.0947 288.864 94.0634 288.761C93.6231 287.308 92.5675 286.12 91.0792 285.549C89.7559 285.043 87.7985 285.015 86.8029 286.228C85.7035 287.57 88.0462 288.719 89.0155 289.278C90.5039 290.136 92.2186 290.477 93.8883 289.817C95.7182 290.661 97.4442 291.667 99.0676 292.801C97.4179 292.975 87.5821 293.538 90.0286 296.715C91.193 298.225 94.2998 297.352 95.8207 296.958C97.7656 296.456 99.4291 295.578 100.203 293.795C100.24 293.773 100.278 293.749 100.311 293.71C100.313 293.708 100.316 293.705 100.318 293.703C101.753 294.807 103.076 296.035 104.294 297.362C103.91 297.335 103.508 297.377 103.12 297.44C103.057 297.397 102.982 297.367 102.881 297.374C100.796 297.5 97.3604 297.573 95.6731 298.951C94.7601 299.699 94.5688 300.867 95.4905 301.624C96.6525 302.576 98.6549 302.535 100.049 302.029C101.174 301.619 102.048 300.847 102.924 300.083C103.549 299.537 104.558 298.876 104.999 298.132C105.486 298.703 105.955 299.292 106.397 299.903C107.266 301.102 108.019 302.363 108.697 303.66C107.21 302.937 105.536 302.642 103.822 302.888C102.662 303.056 100.455 303.54 100.441 305.014C100.407 308.538 107.109 306.329 109.412 305.095C109.908 306.146 110.341 307.227 110.747 308.318C110.546 308.241 110.33 308.188 110.109 308.154C109.336 308.04 108.134 308.046 107.45 308.515C106.928 308.874 106.722 309.608 107.209 310.052C107.834 310.624 110.474 310.42 110.491 310.235C110.761 310.225 111.032 310.2 111.302 310.164C111.341 310.228 111.392 310.284 111.466 310.313C112.109 312.255 112.651 314.234 113.136 316.214C113.256 316.704 114.06 316.486 113.941 315.996C113.457 314.021 112.921 312.045 112.284 310.102C113.334 309.683 114.3 309.111 115.123 308.343C115.635 307.862 116.703 306.947 115.981 306.266C115.376 305.7 114.227 305.605 113.546 306.106Z" fill="#343751" /><path d="M128.599 336.841H109.281L103.729 312.241H134.153L128.599 336.841Z" fill="#BED0E2" /><path d="M180.302 318.279L180.278 327.658L145.295 327.531L145.319 318.151L180.302 318.279Z" fill="#EA3E72" /><path d="M182.624 318.279L182.601 327.658L147.617 327.531L147.641 318.151L182.624 318.279Z" fill="#EDF1F4" /><path d="M184.429 318.151H145.32V319.705H184.429V318.151Z" fill="#EA3E72" /><path d="M184.429 325.947H145.32V327.501H184.429V325.947Z" fill="#EA3E72" /><path d="M144.704 327.108L144.676 336.488L186.723 336.614L186.751 327.234L144.704 327.108Z" fill="#4093F6" /><path d="M147.474 327.098L147.445 336.479L189.492 336.609L189.522 327.228L147.474 327.098Z" fill="#EDF1F4" /><path d="M191.704 327.111H144.697V328.665H191.704V327.111Z" fill="#4093F6" /><path d="M191.704 334.907H144.697V336.461H191.704V334.907Z" fill="#4093F6" /><path d="M192.9 336.068H100.771V339.403H192.9V336.068Z" fill="#2A2B3B" /><path d="M96.1786 397.731C96.1486 397.731 96.116 397.729 96.086 397.724C95.7445 397.674 95.5082 397.356 95.5595 397.014L104.4 337.417C104.45 337.077 104.777 336.837 105.109 336.89C105.45 336.94 105.687 337.258 105.635 337.6L96.7952 397.197C96.7502 397.507 96.4825 397.731 96.1786 397.731Z" fill="#2A2B3C" /><path d="M134.321 397.73C134.017 397.73 133.749 397.507 133.704 397.196L124.864 337.599C124.813 337.257 125.048 336.94 125.391 336.89C125.728 336.835 126.05 337.075 126.1 337.416L134.94 397.014C134.991 397.355 134.756 397.673 134.414 397.723C134.384 397.728 134.351 397.73 134.321 397.73Z" fill="#2A2B3C" /><path d="M159.35 397.731C159.32 397.731 159.288 397.729 159.258 397.724C158.916 397.674 158.68 397.356 158.731 397.014L167.572 337.417C167.622 337.077 167.952 336.837 168.281 336.89C168.622 336.94 168.859 337.258 168.807 337.6L159.967 397.197C159.922 397.507 159.654 397.731 159.35 397.731Z" fill="#2A2B3C" /><path d="M197.491 397.73C197.187 397.73 196.919 397.507 196.874 397.196L188.034 337.599C187.983 337.257 188.218 336.94 188.561 336.89C188.9 336.835 189.22 337.075 189.27 337.416L198.11 397.014C198.161 397.355 197.926 397.673 197.583 397.723C197.553 397.728 197.521 397.73 197.491 397.73Z" fill="#2A2B3C" /><path d="M440.987 197.108L440.968 204.483L413.457 204.383L413.475 197.008L440.987 197.108Z" fill="#FFD357" /><path d="M442.815 197.108L442.796 204.483L415.285 204.383L415.303 197.008L442.815 197.108Z" fill="#D4D4D4" /><path d="M444.231 197.008H413.475V198.23H444.231V197.008Z" fill="#FFD357" /><path d="M444.231 203.139H413.475V204.361H444.231V203.139Z" fill="#FFD357" /><path d="M443.645 204.377L443.626 211.754L416.115 211.654L416.133 204.277L443.645 204.377Z" fill="#EA3E72" /><path d="M445.473 204.377L445.455 211.754L417.943 211.654L417.961 204.277L445.473 204.377Z" fill="#D4D4D4" /><path d="M446.89 204.277H416.133V205.499H446.89V204.277Z" fill="#EA3E72" /><path d="M446.89 210.408H416.133V211.63H446.89V210.408Z" fill="#EA3E72" /><path d="M415.665 211.324L415.643 218.699L448.711 218.798L448.733 211.423L415.665 211.324Z" fill="#4093F6" /><path d="M417.864 211.324L417.842 218.699L450.91 218.798L450.932 211.423L417.864 211.324Z" fill="#D4D4D4" /><path d="M452.613 211.323H415.645V212.546H452.613V211.323Z" fill="#4093F6" /><path d="M452.613 217.455H415.645V218.677H452.613V217.455Z" fill="#4093F6" /><path d="M384.82 312.358L390.686 314.506L398.896 292.081L393.031 289.934L384.82 312.358Z" fill="#92CEFF" /><path d="M392.915 289.957L391.633 289.489L383.441 311.922L384.723 312.39L392.915 289.957Z" fill="#D4D4D4" /><path d="M406.137 290.05H399.891V313.931H406.137V290.05Z" fill="#92CEFF" /><path d="M399.892 290.05H398.527V313.931H399.892V290.05Z" fill="#D4D4D4" /><path d="M414.431 296.8H408.744V313.931H414.431V296.8Z" fill="#EA3E72" /><path d="M408.743 296.8H407.502V313.931H408.743V296.8Z" fill="#D4D4D4" /><path d="M467.174 313.605H371.631V397.33H467.174V313.605Z" fill="#BED0E2" /><path d="M467.177 186.717H460.713V397.33H467.177V186.717Z" fill="#BED0E2" /><path d="M464.465 313.604H368.922V397.329H464.465V313.604Z" fill="#D4D4D4" /><path d="M464.468 186.717H456.686V315.002H464.468V186.717Z" fill="#D4D4D4" /><path d="M376.705 186.717H368.922V315.002H376.705V186.717Z" fill="#D4D4D4" /><path d="M460.714 317.698H372.475V333.415H460.714V317.698Z" fill="white" /><path d="M461.816 317.698H460.713V333.415H461.816V317.698Z" fill="#BED0E2" /><path d="M460.714 336.476H372.475V352.192H460.714V336.476Z" fill="white" /><path d="M461.816 336.477H460.713V352.193H461.816V336.477Z" fill="#BED0E2" /><path d="M460.714 358.574H372.475V374.291H460.714V358.574Z" fill="white" /><path d="M461.816 358.574H460.713V374.291H461.816V358.574Z" fill="#BED0E2" /><path d="M460.714 377.353H372.475V393.069H460.714V377.353Z" fill="white" /><path d="M461.816 377.353H460.713V393.069H461.816V377.353Z" fill="#BED0E2" /><path d="M416.594 328.269C418.092 328.269 419.306 327.055 419.306 325.557C419.306 324.058 418.092 322.844 416.594 322.844C415.095 322.844 413.881 324.058 413.881 325.557C413.881 327.055 415.095 328.269 416.594 328.269Z" fill="#BED0E2" /><path d="M416.594 347.049C418.092 347.049 419.306 345.834 419.306 344.336C419.306 342.838 418.092 341.623 416.594 341.623C415.095 341.623 413.881 342.838 413.881 344.336C413.881 345.834 415.095 347.049 416.594 347.049Z" fill="#BED0E2" /><path d="M416.594 369.301C418.092 369.301 419.306 368.086 419.306 366.588C419.306 365.09 418.092 363.875 416.594 363.875C415.095 363.875 413.881 365.09 413.881 366.588C413.881 368.086 415.095 369.301 416.594 369.301Z" fill="#BED0E2" /><path d="M416.594 388.077C418.092 388.077 419.306 386.862 419.306 385.364C419.306 383.866 418.092 382.651 416.594 382.651C415.095 382.651 413.881 383.866 413.881 385.364C413.881 386.862 415.095 388.077 416.594 388.077Z" fill="#BED0E2" /><path d="M464.465 186.717H368.922V190.027H464.465V186.717Z" fill="#D4D4D4" /><path d="M464.465 218.401H368.922V221.712H464.465V218.401Z" fill="#D4D4D4" /><path d="M464.465 250.088H368.922V253.397H464.465V250.088Z" fill="#D4D4D4" /><path d="M464.465 281.772H368.922V285.083H464.465V281.772Z" fill="#D4D4D4" /><path d="M427.478 226.264H421.232V250.145H427.478V226.264Z" fill="#92CEFF" /><path d="M421.233 226.264H419.869V250.145H421.233V226.264Z" fill="#D4D4D4" /><path d="M435.441 250.33L441.42 248.522L434.508 225.663L428.53 227.471L435.441 250.33Z" fill="#92CEFF" /><path d="M428.562 227.525L427.255 227.92L434.162 250.782L435.468 250.387L428.562 227.525Z" fill="#D4D4D4" /><path d="M419.015 233.014H413.328V250.145H419.015V233.014Z" fill="#EA3E72" /><path d="M413.33 233.014H412.088V250.145H413.33V233.014Z" fill="#D4D4D4" /><path d="M408.738 259.479L408.719 266.855L381.207 266.754L381.226 259.379L408.738 259.479Z" fill="#EA3E72" /><path d="M410.566 259.479L410.548 266.855L383.035 266.754L383.055 259.379L410.566 259.479Z" fill="#D4D4D4" /><path d="M411.983 259.379H381.227V260.602H411.983V259.379Z" fill="#EA3E72" /><path d="M411.983 265.51H381.227V266.733H411.983V265.51Z" fill="#EA3E72" /><path d="M380.695 266.411L380.672 273.786L413.74 273.889L413.763 266.513L380.695 266.411Z" fill="#4093F6" /><path d="M382.89 266.41L382.867 273.785L415.935 273.888L415.958 266.512L382.89 266.41Z" fill="#D4D4D4" /><path d="M417.707 266.426H380.738V267.649H417.707V266.426Z" fill="#4093F6" /><path d="M417.707 272.557H380.738V273.779H417.707V272.557Z" fill="#4093F6" /><path d="M411.909 273.804L411.893 281.772L385.934 281.695L385.951 273.724L411.909 273.804Z" fill="#D4D4D4" /><path d="M413.633 273.804L413.617 281.772L387.658 281.695L387.676 273.724L413.633 273.804Z" fill="#92CEFF" /><path d="M389.51 273.724H385.951V274.684H389.51V273.724Z" fill="#92CEFF" /><path d="M389.51 280.717H385.951V281.676H389.51V280.717Z" fill="#92CEFF" /><path d="M297.158 273.21C296.731 270.991 295.145 270.122 296.22 267.509C297.478 264.454 295.282 263.908 295.019 260.842C294.981 260.414 294.476 260.256 294.137 260.39C292.718 260.947 291.742 261.718 290.859 262.918C290.669 262.893 290.474 262.959 290.346 263.189C289.647 264.446 288.975 265.452 287.866 266.437C287.506 266.758 286.69 267.19 286.365 267.629C285.741 268.47 285.717 268.876 285.847 269.851C286.006 271.048 286.368 272.456 285.307 273.341C285.023 273.577 283.097 274.882 284.487 276.523C284.902 277.014 285.611 276.972 286.224 276.966C287.854 276.95 287.711 276.314 289.445 277.254C290.164 277.644 290.106 278.226 291.188 278.243C291.89 278.254 292.297 277.734 292.93 277.595C293.966 277.369 295.115 277.574 296.108 277.868C296.387 277.948 296.651 277.867 296.831 277.639C297.369 276.955 297.335 274.128 297.158 273.21Z" fill="#2A2B3C" /><path d="M291.94 273.231C288.444 270.643 273.586 290.289 260.55 300.293C251.231 307.443 267.602 318.659 270.567 316.872C273.533 315.085 299.124 278.55 291.94 273.231Z" fill="#4093F5" /><path d="M239.105 310.652C247.304 304.202 258.679 300.993 264.584 298.205C270.487 295.416 277.336 303.508 276.417 305.487C275.496 307.465 261.801 321.382 251.467 324.763C251.467 324.763 237.459 311.948 239.105 310.652Z" fill="#4093F5" /><path d="M287.156 277.529C287.156 277.529 271.396 308.008 266.272 310.416C261.145 312.824 245.39 308.878 256.413 313.597C266.341 317.847 269.729 317.818 270.563 316.871C289.932 294.917 285.112 297.391 287.156 277.529Z" fill="#2483E2" /><path d="M209.506 394.069C211.881 392.758 216.326 391.816 218.142 389.54C218.291 389.361 218.415 389.173 218.515 388.981C219.164 387.783 219.307 387.192 219.368 384.81C222 384.112 225.807 384.319 228.692 385.382C228.81 387.12 228.96 387.869 229.149 389.645C229.149 389.645 229.156 389.661 229.149 389.684C229.333 391.491 228.75 393.577 228.396 394.67C222.096 394.966 215.838 394.873 209.506 394.069Z" fill="#EA3E72" /><path d="M207.488 396.545C207.594 397.655 227.337 397.573 228.368 395.912L228.379 395.897C228.444 395.814 228.483 395.72 228.533 395.625C228.571 395.532 228.611 395.44 228.647 395.333C229.242 393.616 229.22 390.043 229.146 389.674C229.157 389.659 229.142 389.648 229.142 389.648C223.619 391.883 218.154 389.531 218.154 389.531C216.463 391.656 212.49 392.618 210.03 393.771C207.594 394.653 207.493 396.495 207.488 396.545Z" fill="#FFD357" /><path d="M207.447 396.935C207.553 398.044 227.196 398.071 228.228 396.41C228.228 396.41 228.483 395.72 228.533 395.625C222.128 396.971 212.578 396.737 207.532 396.4C207.515 396.453 207.453 396.883 207.447 396.935Z" fill="#2A2B3B" /><path d="M347.798 317.944C344.221 306.413 340.131 293.216 330.213 285.488C329.624 285.025 329.037 284.6 328.423 284.199C318.68 277.746 307.21 278.934 298.593 287.264C292.788 292.88 289.349 300.284 284.658 306.738C279.757 313.49 273.452 318.668 266.111 322.408C252.678 328.437 236.356 343.721 238.72 369.548C238.908 371.611 239.319 373.7 239.958 375.776C242.622 384.545 249.263 392.837 259.706 395.612C274.34 399.502 283.082 398.276 298.104 398.226C310.986 398.189 324.758 397.651 335.414 389.521C344.406 382.68 349.997 372.061 352.173 361.105C355.051 346.661 352.113 331.777 347.798 317.944Z" fill="#EA3E72" /><path d="M347.798 317.944C344.221 306.412 340.131 293.216 330.213 285.487C329.624 285.025 329.037 284.599 328.423 284.199C328.361 284.562 328.423 284.951 328.65 285.35C337.042 300.234 343.069 316.745 342.77 334.028C342.507 348.951 336.955 372.151 320.606 377.066C311.977 379.643 302.295 380.568 293.403 381.581C285.148 382.519 276.718 383.394 268.388 383.057C260.408 382.732 253.506 380.306 246.075 377.667C244.512 377.104 242.123 376.027 239.959 375.777C242.623 384.546 249.263 392.838 259.707 395.613C274.34 399.503 283.083 398.277 298.104 398.227C310.987 398.19 324.759 397.652 335.415 389.522C344.406 382.681 349.997 372.062 352.173 361.106C355.051 346.661 352.113 331.777 347.798 317.944Z" fill="#D32A6B" /><path d="M295.2 322.894C293.39 319.034 289.963 316.904 285.096 315.897C280.425 314.936 275.849 317.158 271.574 318.714C266.028 320.749 240.877 324.209 233.364 334.443C233.351 334.442 233.338 334.48 233.298 334.527C233.245 334.588 233.193 334.673 233.126 334.771C233.113 334.784 233.113 334.796 233.1 334.807C232.556 335.638 232.2 336.488 232.053 337.371C232.053 337.398 232.052 337.423 232.038 337.448C231.972 337.894 227.818 351.475 233.345 351.966C235.603 352.162 237.909 352.047 239.978 351.648C240.104 351.627 240.982 351.586 242.411 351.513C242.561 351.507 242.723 351.501 242.887 351.493C244.668 351.397 247.15 351.276 249.999 351.106C258.791 350.567 271.03 349.607 276.787 347.93C277.382 347.764 277.989 347.587 278.609 347.422C279.999 347.047 281.465 346.664 282.932 346.255C283.906 345.978 284.88 345.689 285.83 345.374C286.311 345.216 286.782 345.046 287.252 344.863C287.708 344.692 288.165 344.509 288.611 344.313C288.611 344.313 288.623 344.327 288.624 344.314C289.005 344.153 289.399 343.979 289.77 343.793C290.037 343.665 290.306 343.525 290.561 343.385C291.353 342.963 292.083 342.489 292.754 341.964C293.307 341.546 293.813 341.076 294.257 340.567C294.4 340.411 294.532 340.239 294.664 340.082C294.794 339.912 294.913 339.741 295.033 339.558C295.139 339.411 295.232 339.265 295.313 339.105C295.473 338.847 295.607 338.59 295.718 338.306C295.786 338.158 295.853 338.01 295.909 337.85C296.145 337.232 296.306 336.587 296.396 335.878C297.105 330.222 296.675 326.001 295.2 322.894Z" fill="#343751" /><path d="M233.103 334.809C225.418 343.558 206.781 380.783 218.623 386.169C225.139 385.599 229.244 387.22 229.485 387.273C239.157 382.34 238.171 354.746 239.221 350.988C239.529 349.924 240.23 348.218 241.002 346.449C242.368 343.324 243.95 340.062 243.95 340.021C244.442 338.358 244.913 336.673 245.352 334.974C245.484 334.457 245.616 333.939 245.736 333.426C247.232 327.23 237.416 329.898 233.103 334.809Z" fill="#343751" /><path d="M314.614 320.458C312.663 316.668 309.162 314.667 304.259 313.841C299.555 313.053 295.065 315.442 290.85 317.156C285.386 319.393 249.476 326.373 242.348 336.88C242.334 336.88 242.321 336.917 242.284 336.968C242.235 337.03 242.184 337.116 242.121 337.216C242.109 337.23 242.109 337.243 242.096 337.254C241.584 338.106 241.257 338.967 241.146 339.855C241.146 339.882 241.146 339.905 241.132 339.931C241.082 340.381 241.057 340.832 241.046 341.245C241.032 342.358 241.171 343.37 241.458 344.284C242.934 349.3 248.338 351.514 253.878 351.801C256.142 351.914 258.442 351.715 260.495 351.24C260.62 351.213 261.495 351.14 262.92 351.013C263.07 351.001 263.233 350.988 263.395 350.976C265.172 350.814 267.648 350.601 270.488 350.325C279.256 349.464 291.45 348.049 297.141 346.16C297.729 345.973 298.329 345.773 298.942 345.585C300.318 345.16 301.769 344.722 303.22 344.259C304.183 343.947 305.146 343.621 306.084 343.271C306.559 343.095 307.022 342.908 307.484 342.708C307.934 342.521 308.385 342.319 308.822 342.108C308.822 342.108 308.836 342.121 308.836 342.108C309.211 341.933 309.597 341.747 309.96 341.546C310.223 341.409 310.485 341.259 310.735 341.107C311.511 340.657 312.223 340.157 312.874 339.607C313.412 339.169 313.9 338.681 314.325 338.156C314.463 337.994 314.588 337.818 314.713 337.657C314.839 337.482 314.95 337.306 315.063 337.118C315.163 336.969 315.251 336.819 315.326 336.656C315.476 336.393 315.601 336.131 315.701 335.843C315.763 335.693 315.827 335.543 315.877 335.38C316.09 334.755 316.226 334.105 316.289 333.392C316.791 327.712 316.204 323.51 314.614 320.458Z" fill="#3F4261" /><path d="M243.724 335.236C235.137 344.624 228.506 379.289 240.074 385.243C246.61 384.989 242.097 384.721 250.189 386.709C250.396 386.755 250.632 386.806 250.87 386.87C260.77 382.412 260.909 350.198 262.141 346.495C262.5 345.447 269.355 329.776 269.499 329.269C271.294 323.15 248.708 329.785 243.724 335.236Z" fill="#3F4261" /><path d="M315.023 337.038C315.023 337.038 322.4 324.344 332.719 319.49C332.719 319.49 316.459 327.143 309.58 339.025L315.023 337.038Z" fill="#17171D" /><path d="M314.616 320.458L310.976 318.169C310.976 318.169 302.248 335.442 286.725 338.568C284.148 339.094 277.557 339.506 270.651 341.483C264.398 343.246 257.895 346.285 253.88 351.801C252.967 353.052 252.179 354.44 251.554 355.966C246.889 367.41 252.512 373.717 247.783 385.136C247.971 385.236 250.659 386.745 250.871 386.871C261.602 385.221 260.646 357.038 261.671 353.273C262.193 351.358 267.651 350.6 270.491 350.327C279.259 349.465 291.454 348.05 297.145 346.162C297.732 345.974 298.333 345.774 298.946 345.586C300.321 345.161 301.772 344.723 303.223 344.261C304.186 343.948 305.149 343.623 306.087 343.272C306.563 343.096 307.025 342.91 307.487 342.71C307.937 342.522 308.389 342.321 308.825 342.109C308.825 342.109 308.839 342.122 308.839 342.109C309.227 341.934 309.601 341.748 309.963 341.548C310.226 341.41 310.489 341.26 310.739 341.109C311.514 340.658 312.226 340.158 312.878 339.608C313.415 339.17 313.903 338.682 314.328 338.157C314.466 337.996 314.591 337.819 314.716 337.658C314.842 337.483 314.954 337.308 315.066 337.119C315.166 336.97 315.254 336.82 315.329 336.657C315.479 336.395 315.604 336.132 315.704 335.844C315.767 335.694 315.83 335.544 315.881 335.382C316.093 334.756 316.229 334.106 316.292 333.393C316.794 327.712 316.206 323.51 314.616 320.458Z" fill="#343751" /><path d="M239.46 384.254C239.737 381.53 254.01 383.145 250.871 386.872C249.649 388.323 239.243 386.418 239.46 384.254Z" fill="#17171D" /><path d="M249.517 395.497C250.112 394.064 250.35 392.892 250.107 390.608C250.115 390.583 250.107 390.569 250.107 390.569C249.911 388.793 249.592 387.545 249.467 385.808C247.021 384.468 243.714 384.583 240.363 384.704C240.312 387.088 240.115 388.743 239.471 389.942C239.372 390.138 239.249 390.325 239.101 390.505C237.185 392.925 232.283 393.851 230.054 395.302C229.439 395.67 229.034 396.089 228.926 396.573C228.347 399.03 248.059 398.93 249.517 395.497Z" fill="#E93E72" /><path d="M229.044 396.301C228.985 396.392 228.963 396.47 228.94 396.572C228.265 399.194 248.416 399.174 249.815 395.854L249.827 395.842C249.935 395.673 250.015 395.48 250.084 395.274C250.68 393.555 250.179 390.965 250.104 390.6C250.115 390.586 250.101 390.574 250.101 390.574C244.587 392.83 239.104 390.496 239.104 390.496C237.421 392.624 233.454 393.605 231.003 394.772C230.028 395.163 229.313 395.67 229.044 396.301Z" fill="#FFD357" /><path d="M229.044 396.301C228.985 396.393 228.963 396.47 228.94 396.573C228.265 399.194 248.416 399.174 249.815 395.855L249.827 395.842C249.935 395.673 250.015 395.481 250.084 395.274C248.941 395.874 246.597 396.873 243.161 397.152C238.717 397.517 234.049 397.702 229.044 396.301Z" fill="#2A2B3B" /><path d="M329.122 336.323C307.939 335.946 293.32 343.401 283.626 356.693C282.688 356.764 284.966 372.633 299.626 372.592C315.172 372.548 326.595 374.172 330.685 357.733C332.18 351.726 334.49 336.418 329.122 336.323Z" fill="#EA3E72" /><path d="M283.627 356.693C283.627 356.693 301.853 336.085 329.122 336.324C329.122 336.324 302.743 331.454 283.627 356.693Z" fill="#17171D" /><path d="M320.416 326.472C320.416 326.472 314.709 277.917 303.804 273.256C294.894 269.448 286.588 271.99 284.924 281.419C283.397 290.072 280.541 301.353 278.755 305.829C277.024 310.169 271.574 318.715 271.574 318.715C271.574 318.715 298.228 330.729 320.416 326.472Z" fill="#4093F5" /><path d="M290.631 266.486C290.631 266.486 291.834 271.109 291.927 272.237C291.953 272.582 292.581 273.688 293.147 274.131C295.334 272.776 297.035 273.244 297.736 272.63C297.323 271.199 296.327 269.338 295.99 266.849C295.652 264.359 290.631 266.486 290.631 266.486Z" fill="#E93E72" /><path d="M298.052 262.838C298.052 262.838 295.548 269.229 291.336 268.496C287.125 267.763 291.629 259.152 292.309 259.031C292.991 258.909 297.256 258.861 298.052 262.838Z" fill="#E93E72" /><path d="M294.579 257.04C294.07 256.884 293.564 256.768 293.118 256.684C291.421 256.365 289.263 256.1 288.88 258.211C288.6 259.762 289.504 261.032 291.077 261.211C292.152 261.333 293.118 260.868 294.188 260.972C294.639 261.014 295.051 260.993 295.453 260.918C295.443 261.346 295.454 261.777 295.504 262.218C295.602 263.079 295.632 264.501 296.303 265.162C297.657 266.49 299.163 264.469 299.492 263.272C300.397 259.971 298.052 256.059 294.579 257.04Z" fill="#2A2B3C" /><path d="M296.037 265.41C296.268 265.243 296.56 265.576 296.329 265.744C295.969 266.004 295.426 266.834 296.011 267.152C296.534 267.436 297.495 266.849 297.063 266.238C296.9 266.006 297.233 265.714 297.397 265.946C298.034 266.849 297.039 267.834 296.081 267.64C294.897 267.397 295.316 265.932 296.037 265.41Z" fill="#FFD357" /><path d="M293.146 274.131L294.234 271.2L297.31 271.407L300.328 271.997L293.146 274.131Z" fill="#FFD357" /><path d="M293.147 274.131L292.24 271.066L290.935 272.87L293.147 274.131Z" fill="#FFD357" /><path d="M302.64 276.223C302.64 276.223 293.094 290.361 290.888 304.403C288.682 318.447 278.756 321.483 278.756 321.483C278.756 321.483 298.542 330.326 320.418 326.472C320.418 326.472 314.668 286.067 302.64 276.223Z" fill="#2483E2" /><path d="M238.292 332.276L278.658 334.787L278.768 333.019L238.402 330.508L238.292 332.276Z" fill="#AABFCE" /><path d="M278.68 334.799L297.098 333.116L297.207 331.35L278.79 333.031L278.68 334.799Z" fill="#BED0E2" /><path d="M297.21 331.35L251.49 327.157L238.428 330.522L278.793 333.031L297.21 331.35Z" fill="#DCE8EF" /><path d="M239.563 330.59L279.7 332.66L276.013 307.963L236.385 305.479L234.967 306.344L239.563 330.59Z" fill="#DCE8EF" /><path d="M238.585 330.53L278.79 333.031L275.342 309.275L234.967 306.344L238.585 330.53Z" fill="#BED0E2" /><path d="M301.796 280.073C301.796 280.073 301.733 280.512 301.652 281.305C301.208 285.573 300.155 300.1 304.769 311.702L293.033 322.646L313.68 316.259L312.117 301.066L301.796 280.073Z" fill="#2A2B3C" /><path d="M285.518 332.881C285.701 333.334 286.405 333.529 286.644 332.96C286.646 332.953 286.65 332.946 286.653 332.94C286.76 333.455 287.542 333.723 287.808 333.12C288.356 331.876 288.911 330.534 290.121 329.737C291.127 329.074 292.499 329.01 293.634 328.75C294.606 328.529 295.452 328.254 296.353 327.843C299.612 326.359 302.8 324.598 305.824 322.687C306.143 322.485 306.223 321.935 305.894 321.693C304.323 320.545 302.751 319.397 301.179 318.248C300.922 318.061 300.641 318.1 300.43 318.239C300.344 318.269 300.259 318.318 300.184 318.394C297.354 321.249 293.435 323.508 289.661 324.837C286.97 325.785 284.895 327.162 283.187 329.477C282.713 330.121 283.648 330.951 284.127 330.302C285.073 329.022 286.134 328.174 287.277 327.497C287.284 327.534 287.282 327.572 287.294 327.607C286.007 328.958 285.088 330.462 284.458 332.226C284.203 332.938 285.182 333.468 285.518 332.881Z" fill="#EA3E72" /><path d="M285.864 329.551C285.842 329.551 285.821 329.548 285.801 329.538C285.722 329.504 285.685 329.411 285.721 329.332C285.944 328.821 287.128 327.555 287.179 327.501C287.239 327.441 287.337 327.435 287.401 327.495C287.463 327.554 287.467 327.653 287.407 327.717C287.074 328.07 286.175 329.074 286.007 329.458C285.981 329.516 285.924 329.551 285.864 329.551Z" fill="#2A2B3C" /><path d="M285.519 333.037C285.503 333.037 285.487 333.035 285.471 333.029C285.388 333.002 285.343 332.914 285.372 332.832C285.381 332.805 286.3 330.088 288.272 328.072C288.334 328.012 288.432 328.008 288.494 328.071C288.555 328.131 288.556 328.23 288.495 328.292C286.575 330.253 285.677 332.905 285.667 332.93C285.646 332.996 285.584 333.037 285.519 333.037Z" fill="#2A2B3C" /><path d="M286.653 333.097C286.633 333.097 286.614 333.093 286.595 333.086C286.515 333.055 286.475 332.962 286.507 332.883C286.552 332.768 287.633 330.079 289.093 328.94C289.163 328.888 289.259 328.898 289.313 328.966C289.365 329.035 289.353 329.132 289.287 329.186C287.893 330.273 286.81 332.971 286.799 332.998C286.774 333.06 286.715 333.097 286.653 333.097Z" fill="#2A2B3C" /><path d="M303.571 276.803C299.536 278.432 302.797 303.66 309.187 313.517C315.577 323.374 329.59 321.29 329.615 317.828C329.64 314.366 311.86 273.458 303.571 276.803Z" fill="#4093F5" /><path d="M291.756 322.139C300.232 316.058 311.742 313.357 317.761 310.831C323.782 308.305 330.269 316.695 329.261 318.63C328.253 320.565 313.957 333.864 303.482 336.784C303.482 336.784 290.056 323.361 291.756 322.139Z" fill="#4093F5" /><path d="M316.8 289.594C316.8 289.594 323.698 309.657 323.073 315.285C322.447 320.913 303.482 336.784 303.482 336.784C303.482 336.784 309.645 335.115 319.428 328.183C328.241 321.938 329.859 319.065 329.615 317.828C329.369 316.59 326.476 305.438 316.8 289.594Z" fill="#2483E2" /><path d="M305.204 271.558C304.051 269.615 302.263 269.336 302.39 266.514C302.539 263.211 300.287 263.443 299.002 260.647C298.821 260.257 298.294 260.28 298.02 260.521C296.873 261.525 296.215 262.579 295.791 264.008C295.605 264.049 295.443 264.178 295.401 264.437C295.168 265.856 294.878 267.029 294.166 268.334C293.935 268.755 293.315 269.439 293.157 269.964C292.856 270.965 293.164 271.102 293.615 271.973C294.17 273.045 294.795 274.502 294.096 275.696C293.911 276.013 292.54 277.896 294.404 278.968C294.958 279.288 295.615 279.009 296.187 278.796C297.715 278.227 297.366 277.679 299.316 277.976C300.125 278.098 300.267 278.666 301.29 278.316C301.955 278.088 302.161 277.46 302.71 277.116C303.608 276.554 304.76 276.357 305.792 276.296C306.082 276.278 306.303 276.112 306.395 275.837C306.672 275.01 305.682 272.361 305.204 271.558Z" fill="#2A2B3C" /><path d="M295.647 263.603C295.647 263.603 296.533 262.513 297.654 262.925C298.776 263.336 298.475 266.148 296.467 265.984C294.461 265.82 295.647 263.603 295.647 263.603Z" fill="#E93E72" /><path d="M307.156 275.396C307.155 275.36 307.06 271.697 305.491 270.352C303.839 268.936 303.487 267.817 303.326 265.374C303.248 264.173 302.472 263.659 301.65 263.114C300.951 262.65 300.227 262.17 300.058 261.24C299.729 259.446 297.207 257.586 297.182 257.566L297.364 257.314C297.473 257.393 300.014 259.269 300.365 261.184C300.51 261.983 301.148 262.406 301.823 262.854C302.631 263.391 303.548 263.998 303.638 265.354C303.795 267.738 304.114 268.761 305.694 270.116C307.37 271.552 307.465 275.235 307.469 275.39L307.156 275.396Z" fill="#2A2B3C" /><path d="M292.505 278.047C292.352 277.361 292.674 276.77 293.016 276.145C293.295 275.636 293.582 275.109 293.651 274.478C293.684 274.17 293.427 273.675 293.131 273.102C292.677 272.226 292.111 271.136 292.269 270.054C292.418 269.032 294.916 266.947 295.201 266.712L295.398 266.953C294.652 267.569 292.691 269.333 292.579 270.099C292.435 271.079 292.975 272.121 293.41 272.957C293.73 273.575 294.006 274.108 293.961 274.51C293.886 275.203 293.57 275.782 293.291 276.293C292.964 276.89 292.683 277.406 292.811 277.977L292.505 278.047Z" fill="#2A2B3C" /><defs><linearGradient id="paint0_linear_435_1337" x1="294.581" y1="297.73" x2="294.581" y2="198.043" gradientUnits="userSpaceOnUse"><stop stop-color="white" stop-opacity="0" /><stop offset="1" stop-color="#F8CB3D" /></linearGradient><linearGradient id="paint1_linear_435_1337" x1="295.175" y1="182.8" x2="295.175" y2="156.001" gradientUnits="userSpaceOnUse"><stop stop-color="#4093F5" /><stop offset="1" stop-color="white" stop-opacity="0" /></linearGradient></defs></svg> 