<svg width="560" height="560" viewBox="0 0 560 560" fill="none" xmlns="http://www.w3.org/2000/svg"><rect width="560" height="560" fill="#EFF5FA" /><path d="M280 387.321C407.025 387.321 510 384.692 510 381.448C510 378.205 407.025 375.576 280 375.576C152.974 375.576 50 378.205 50 381.448C50 384.692 152.974 387.321 280 387.321Z" fill="#D6D0F1" /><path d="M289.702 378.207C288.989 376.827 288.654 375.679 288.707 373.384C288.697 373.36 288.704 373.345 288.704 373.345C288.752 371.559 288.839 370.11 288.818 368.369C291.145 366.83 294.49 366.081 297.841 365.925C298.089 368.296 298.51 370.694 299.251 371.838C299.367 372.023 299.504 372.201 299.667 372.369C301.778 374.62 306.738 375.136 309.081 376.397C309.724 376.712 310.163 377.096 310.31 377.569C311.091 379.967 291.439 381.506 289.702 378.207Z" fill="#E93E72" /><path d="M310.166 377.307C310.235 377.392 310.263 377.468 310.294 377.568C311.186 380.123 291.1 381.78 289.432 378.589L289.418 378.576C289.297 378.417 289.199 378.232 289.114 378.032C288.377 376.367 288.661 373.743 288.707 373.374C288.694 373.362 288.706 373.348 288.706 373.348C294.391 375.138 299.66 372.357 299.66 372.357C301.514 374.336 305.549 374.985 308.089 375.943C309.091 376.256 309.847 376.701 310.166 377.307Z" fill="#FFD357" /><path d="M310.166 377.307C310.234 377.392 310.262 377.468 310.293 377.568C311.185 380.123 291.099 381.781 289.431 378.589L289.417 378.576C289.296 378.417 289.198 378.232 289.113 378.032C290.303 378.534 292.723 379.333 296.169 379.325C300.629 379.323 305.295 379.119 310.166 377.307Z" fill="#2A2B3B" /><path d="M420.344 297.911L420.325 305.287L392.812 305.187L392.831 297.811L420.344 297.911Z" fill="#EA3E72" /><path d="M422.172 297.911L422.154 305.287L394.643 305.187L394.66 297.811L422.172 297.911Z" fill="#EDF1F4" /><path d="M423.589 297.811H392.832V299.034H423.589V297.811Z" fill="#EA3E72" /><path d="M423.589 303.941H392.832V305.165H423.589V303.941Z" fill="#EA3E72" /><path d="M392.351 304.868L392.329 312.243L425.399 312.342L425.421 304.967L392.351 304.868Z" fill="#4093F6" /><path d="M394.518 304.826L394.496 312.201L427.564 312.304L427.587 304.928L394.518 304.826Z" fill="#EDF1F4" /><path d="M429.308 304.858H392.339V306.08H429.308V304.858Z" fill="#4093F6" /><path d="M429.308 310.988H392.339V312.211H429.308V310.988Z" fill="#4093F6" /><path d="M422.133 312.059L422.113 321.211L392.307 321.12L392.327 311.971L422.133 312.059Z" fill="#EDF1F4" /><path d="M424.113 312.059L424.095 321.211L394.287 321.12L394.307 311.971L424.113 312.059Z" fill="#92CEFF" /><path d="M396.412 311.971H392.326V313.073H396.412V311.971Z" fill="#92CEFF" /><path d="M396.412 319.998H392.326V321.1H396.412V319.998Z" fill="#92CEFF" /><path d="M435.521 321.106H343.391V324.441H435.521V321.106Z" fill="#2A2B3B" /><path d="M440.111 382.768C439.807 382.768 439.539 382.545 439.494 382.234L430.654 322.637C430.602 322.295 430.838 321.978 431.18 321.928C431.512 321.869 431.841 322.112 431.889 322.454L440.73 382.052C440.781 382.393 440.546 382.711 440.203 382.761C440.173 382.766 440.142 382.768 440.111 382.768Z" fill="#2A2B3C" /><path d="M401.97 382.769C401.94 382.769 401.908 382.767 401.878 382.762C401.536 382.712 401.3 382.394 401.351 382.052L410.191 322.455C410.241 322.113 410.575 321.871 410.901 321.928C411.242 321.978 411.478 322.296 411.427 322.638L402.587 382.235C402.542 382.545 402.274 382.769 401.97 382.769Z" fill="#2A2B3C" /><path d="M376.943 382.768C376.639 382.768 376.371 382.545 376.326 382.234L367.486 322.637C367.434 322.295 367.67 321.978 368.012 321.928C368.353 321.869 368.671 322.112 368.722 322.454L377.562 382.052C377.613 382.393 377.378 382.711 377.035 382.761C377.004 382.766 376.973 382.768 376.943 382.768Z" fill="#2A2B3C" /><path d="M338.798 382.769C338.768 382.769 338.736 382.767 338.706 382.762C338.364 382.712 338.128 382.394 338.179 382.052L347.02 322.455C347.07 322.113 347.402 321.871 347.729 321.928C348.07 321.978 348.307 322.296 348.255 322.638L339.415 382.235C339.37 382.545 339.104 382.769 338.798 382.769Z" fill="#2A2B3C" /><path d="M223.596 253.473C237.395 248.261 250.907 266.367 257.826 275.859C264.745 285.351 259.966 292.333 255.112 291.229C239.882 287.762 215.233 256.631 223.596 253.473Z" fill="#EA3E72" /><path d="M284.214 288.48C275.619 282.123 261.6 277.092 253.523 274.05C247.413 271.749 244.441 287.324 246.062 288.785C247.685 290.246 264.433 302.25 278.475 303.112C278.475 303.112 285.898 289.724 284.214 288.48Z" fill="#EA3E72" /><path d="M237.098 256.445C237.098 256.445 243.984 270.278 250 283.62C252.432 289.014 252.801 293.411 252.801 293.411C252.801 293.411 245.255 289.892 242.839 287.243C237.872 281.796 237.098 256.445 237.098 256.445Z" fill="#17171D" /><path d="M163.333 344.619C165.508 355.575 171.1 366.194 180.092 373.035C190.749 381.165 204.519 381.704 217.401 381.742C232.422 381.791 241.165 383.018 255.799 379.126C266.244 376.35 272.884 368.057 275.548 359.29C276.186 357.215 276.598 355.126 276.786 353.062C279.15 327.236 262.828 311.951 249.395 305.922C242.053 302.184 235.749 297.006 230.847 290.252C226.156 283.798 222.717 276.394 216.913 270.778C208.296 262.448 196.827 261.261 187.082 267.714C186.471 268.114 185.883 268.539 185.294 269.002C175.375 276.731 171.285 289.927 167.708 301.458C163.396 315.288 160.458 330.173 163.333 344.619Z" fill="#EEEEEE" /><path d="M163.333 344.618C165.508 355.575 171.1 366.193 180.092 373.035C190.749 381.165 204.519 381.704 217.401 381.741C232.422 381.79 241.165 383.017 255.799 379.126C266.244 376.349 272.884 368.057 275.548 359.289C273.384 359.541 270.994 360.616 269.43 361.179C262.002 363.818 255.098 366.245 247.117 366.57C238.787 366.909 230.359 366.032 222.103 365.094C213.211 364.08 203.529 363.155 194.899 360.579C178.553 355.664 172.999 332.464 172.736 317.542C172.437 300.257 178.465 283.746 186.857 268.864C187.082 268.464 187.145 268.075 187.082 267.712C186.471 268.112 185.883 268.537 185.294 269C175.375 276.73 171.285 289.925 167.708 301.457C163.396 315.287 160.458 330.172 163.333 344.618Z" fill="#DCE0E3" /><path d="M200.488 320.549C200.488 320.549 193.11 307.856 182.791 303.001C182.791 303.001 199.051 310.654 205.93 322.536L200.488 320.549Z" fill="#17171D" /><path d="M289.079 315.729C284.455 306.251 235.84 302.956 229.442 302.3C224.925 301.843 219.176 304.766 214.844 306.433C206.703 309.573 203.95 314.81 208.368 324.829C211.212 331.253 222.279 330.566 230.197 330.922C239.972 331.363 266.164 327.003 266.882 326.982C275.45 326.699 293.195 324.166 289.079 315.729Z" fill="#343751" /><path d="M258.691 328.735C260.174 330.473 261.724 332.175 263.293 333.846C268.111 339.02 271.807 334.947 274.779 341.368C279.145 350.807 283.501 370.868 283.538 370.107C286.208 370.572 295.877 369.925 302.711 367.363C302.711 351.26 292.903 318.516 287.595 313.709C281.353 308.054 254.339 323.625 258.691 328.735Z" fill="#343751" /><path d="M246.256 306.513C246.256 306.513 274.066 309.77 278.519 318.695C283.589 328.857 278.519 352.343 278.519 352.343L272.619 324.525L246.256 306.513Z" fill="#17171D" /><path d="M201.552 322.541C204.016 330.37 215.135 329.909 222.99 330.92C235.661 332.546 245.953 333.072 253.995 332.747C257.91 332.596 261.301 332.246 264.164 331.721C272.42 330.221 276.371 327.318 276.371 323.755C276.371 322.791 276.185 321.879 275.822 321.003C275.797 320.953 275.784 320.916 275.759 320.877C275.646 320.641 275.547 320.416 275.433 320.189C275.421 320.152 275.397 320.127 275.384 320.089C275.384 320.089 275.384 320.077 275.372 320.077C268.429 307.669 227.267 304.017 221.453 303.005C216.961 302.229 213.559 299.089 209.132 300.865C207.069 301.691 205.331 302.693 203.954 303.917C202.228 305.418 201.039 307.269 200.427 309.545C199.526 312.874 199.851 317.101 201.552 322.541Z" fill="#3F4261" /><path d="M251.066 322.834C251.147 323.268 251.248 324.39 251.348 325.915C251.782 332.133 253.554 342.558 253.932 345.663C255.074 354.658 252.253 366.004 252.194 369.812C258.468 368.862 265.034 368.984 270.689 369.439C273.323 369.637 275.746 369.908 277.858 370.179C279.125 360.149 278.57 334.516 276.18 322.129C276.167 322.074 262.015 317.236 255.187 319.138C252.466 319.886 250.706 321.063 251.066 322.834Z" fill="#3F4261" /><path d="M201.552 322.541C204.015 330.371 215.134 329.909 222.989 330.921C235.66 332.547 242.977 333.163 251.019 332.838C252.983 338.754 252.89 346.287 253.004 351.701C253.194 360.766 251.308 366.109 252.196 369.81C257.469 369.123 262.491 369.095 267.669 369.007C267.12 367.744 260.636 340.948 259.875 336.159C258.693 328.733 257.164 324.834 248.655 324.252C243.52 323.902 238.499 322.513 233.509 321.275C228.481 320.025 223.503 318.586 218.525 317.123C213.786 315.736 204.793 312.872 207.681 306.016C207.869 305.591 207.569 305.205 207.232 305.105C207.195 305.017 207.12 304.941 207.02 304.879C206.044 304.266 205.006 303.954 203.955 303.915C202.229 305.416 201.041 307.267 200.428 309.543C199.525 312.874 199.851 317.102 201.552 322.541Z" fill="#343751" /><path d="M200.504 305.719C200.504 305.719 200.53 259.961 213.559 252.424C221.945 247.571 234.89 251.838 237.778 258.208C243.414 270.633 252.955 303.855 252.955 303.855C252.955 303.855 222.21 311.985 200.504 305.719Z" fill="#EA3E72" /><path d="M228.049 244.644C228.049 244.644 227.898 249.623 227.73 250.743C227.679 251.084 226.977 252.146 226.385 252.549C224.295 251.05 222.565 251.402 221.908 250.743C222.416 249.344 222.679 247.299 222.679 244.644C222.679 242.131 228.049 244.644 228.049 244.644Z" fill="#565B82" /><path d="M221.998 240.604C221.998 240.604 223.164 247.369 227.436 247.502C231.71 247.633 229.033 238.291 228.392 238.034C227.748 237.777 223.58 236.868 221.998 240.604Z" fill="#565B82" /><path d="M226.175 235.234C224.703 235.485 223.296 235.246 221.943 235.761C220.728 236.224 219.982 237.097 219.683 238.381C219.014 241.259 220.189 245.22 223.435 245.722C223.861 245.788 224.164 245.414 224.139 245.019C224.076 243.986 223.969 242.969 223.814 241.946C223.799 241.852 223.768 241.773 223.726 241.707C223.91 240.894 224.02 240.042 223.884 239.273C226.634 239.76 229.336 240.61 230.294 237.323C231.207 234.191 228.028 234.919 226.175 235.234Z" fill="#17171D" /><path d="M224.201 241.837C224.201 241.837 223.552 240.592 222.371 240.769C221.189 240.947 220.918 243.761 222.918 244.006C224.917 244.251 224.201 241.837 224.201 241.837Z" fill="#565B82" /><path d="M252.193 369.807C251.76 368.761 276.934 368.609 277.859 370.176C279.116 372.307 253.451 372.86 252.193 369.807Z" fill="#17171D" /><path d="M184.82 341.246C188.911 357.684 200.333 356.061 215.88 356.105C230.54 356.146 232.817 340.277 231.879 340.205C222.186 326.914 207.567 319.458 186.384 319.836C181.017 319.931 183.326 335.239 184.82 341.246Z" fill="#E2ECF3" /><path d="M231.882 340.205C231.882 340.205 213.656 319.597 186.387 319.836C186.387 319.836 212.767 314.965 231.882 340.205Z" fill="#17171D" /><path d="M214.964 253.273C214.964 253.273 222.876 258.006 221.999 276.797C221.427 289.059 245.712 305.443 245.712 305.443C245.712 305.443 227.281 312.102 200.504 305.718L201.557 276.508L214.964 253.273Z" fill="#D32A6B" /><path d="M217.523 257.036L208.904 288.465L234.921 298.227C234.921 298.227 217.002 285.303 216.896 283.739C216.793 282.176 225.203 265.549 217.523 257.036Z" fill="#17171D" /><path d="M290.398 313.445L249.977 314.775L250.035 316.546L290.456 315.215L290.398 313.445Z" fill="#AABFCE" /><path d="M249.998 316.534L231.639 314.312L231.58 312.543L249.94 314.763L249.998 316.534Z" fill="#BED0E2" /><path d="M231.58 312.543L277.403 309.692L290.361 313.435L249.94 314.763L231.58 312.543Z" fill="#DCE8EF" /><path d="M289.222 313.472L249.041 314.365L253.45 289.788L293.134 288.465L294.526 289.369L289.222 313.472Z" fill="#DCE8EF" /><path d="M290.201 313.441L249.939 314.763L254.081 291.119L294.526 289.369L290.201 313.441Z" fill="#BED0E2" /><path d="M244.385 314.086C243.277 311.41 241.78 309.302 239.766 307.614C239.779 307.546 239.771 307.486 239.779 307.422C241.511 308.044 243.143 308.993 244.654 310.717C245.42 311.59 246.686 309.78 245.929 308.914C243.197 305.799 240.036 304.417 236.029 304.03C230.404 303.487 224.472 301.452 220.055 297.932C219.933 297.837 219.808 297.794 219.679 297.782C219.359 297.643 218.945 297.703 218.595 298.131C216.437 300.756 214.282 303.38 212.126 306.004C211.675 306.556 211.85 307.44 212.336 307.636C216.934 309.49 221.752 311.018 226.643 312.049C227.996 312.334 229.253 312.416 230.687 312.355C232.362 312.283 234.362 311.779 235.893 312.439C237.735 313.234 238.686 315.234 239.619 317.075C240.069 317.967 241.176 317.17 241.275 316.259C241.275 316.259 241.286 316.279 241.291 316.287C241.699 317.133 242.699 316.493 242.916 315.653C243.467 316.485 244.83 315.161 244.385 314.086Z" fill="#565B82" /><path d="M242.034 310.216C241.944 310.216 241.856 310.166 241.814 310.08C241.531 309.519 240.123 308.245 239.604 307.802C239.5 307.715 239.488 307.56 239.578 307.456C239.665 307.352 239.819 307.337 239.924 307.429C240.003 307.497 241.869 309.095 242.253 309.861C242.314 309.982 242.265 310.13 242.143 310.191C242.109 310.207 242.072 310.216 242.034 310.216Z" fill="#2A2B3C" /><path d="M242.916 315.901C242.817 315.901 242.724 315.841 242.686 315.744C242.669 315.704 241.081 311.674 238.089 309.254C237.984 309.169 237.967 309.013 238.053 308.907C238.139 308.801 238.294 308.785 238.399 308.871C241.494 311.377 243.078 315.397 243.145 315.567C243.193 315.695 243.131 315.837 243.004 315.886C242.976 315.895 242.946 315.901 242.916 315.901Z" fill="#2A2B3C" /><path d="M241.274 316.505C241.181 316.505 241.091 316.451 241.05 316.361C241.031 316.321 239.171 312.299 237.05 311.112C236.93 311.045 236.889 310.895 236.955 310.776C237.022 310.656 237.173 310.616 237.29 310.681C239.554 311.947 241.42 315.984 241.498 316.156C241.555 316.28 241.5 316.426 241.376 316.482C241.342 316.497 241.307 316.505 241.274 316.505Z" fill="#2A2B3C" /><path d="M214.963 253.274C224.879 264.194 216.185 283.542 209.898 293.464C203.61 303.387 191.292 294.272 191.231 290.811C191.167 287.35 208.954 246.656 214.963 253.274Z" fill="#EA3E72" /><path d="M235.844 298.955C227.572 292.185 208.107 283.791 201.603 283.214C195.099 282.638 191.881 296.027 193.428 297.567C194.977 299.104 215.256 313.391 229.238 314.942C229.238 314.942 237.465 300.281 235.844 298.955Z" fill="#EA3E72" /><path d="M209.063 255.459C209.063 255.459 191.986 278.377 191.075 290.857C190.165 303.338 219.651 311.486 221.998 313.273C221.998 313.273 193.969 297.54 195.141 291.116C196.314 284.692 209.063 255.459 209.063 255.459Z" fill="#D32A6B" /><path d="M124.313 301.066C125.505 294.947 126.166 286.845 130.449 281.565C138.243 271.955 153.557 276.345 161.885 282.849C162.158 283.062 166.185 287.237 164.889 287.112C160.608 286.699 156.207 286.464 153.347 286.545C152.885 285.538 152.479 284.511 152.007 283.498C151.816 283.089 151.054 283.085 151.042 283.583C151.016 284.603 150.988 285.622 150.793 286.625C149.1 286.69 147.426 286.801 145.804 287.061C145.624 286.477 145.399 285.906 145.006 285.392C144.751 285.057 144.098 285.152 144.088 285.577C144.073 286.183 144.078 286.791 144.126 287.395C143.265 287.603 142.422 287.859 141.605 288.198C139.544 289.056 138.2 290.465 136.871 291.913C135.682 291.264 134.67 290.417 133.562 289.673C133.562 289.673 133.553 289.666 133.549 289.662L133.548 289.663C133.516 289.641 133.484 289.618 133.452 289.595C133.007 289.303 132.448 289.908 132.843 290.227C133.917 291.096 134.858 292.071 135.868 292.991C135.513 293.365 135.15 293.737 134.76 294.088C132.817 295.85 130.55 297.04 127.907 297.949C126.071 306.332 124.983 314.835 124.483 323.354C124.389 324.937 121.449 324.872 121.541 323.282C121.979 315.833 122.879 308.422 124.313 301.066Z" fill="#343751" /><path d="M115.133 291.193C110.706 282.865 105.958 271.467 98.1951 265.577C84.0681 254.859 67.6459 267.28 60.7194 279.961C60.4917 280.376 57.6438 287.991 59.1547 287.293C64.1401 284.993 69.3632 282.898 72.8677 281.876C72.939 280.244 72.929 278.603 73.0078 276.957C73.0403 276.293 73.9634 275.984 74.221 276.696C74.7489 278.153 75.2792 279.607 76.0033 280.974C78.0858 280.39 80.1708 279.884 82.2645 279.611C82.197 278.699 82.192 277.785 82.4159 276.889C82.5622 276.305 83.3989 276.182 83.6203 276.791C83.933 277.657 84.2232 278.533 84.4608 279.422C85.6052 279.377 86.7521 279.411 87.9066 279.573C90.822 279.982 93.1384 281.475 95.4535 283.029C96.5792 281.622 97.3934 279.999 98.374 278.485C98.3777 278.479 98.3802 278.472 98.384 278.465L98.3852 278.467C98.4152 278.422 98.4403 278.375 98.469 278.33C98.8655 277.731 99.8386 278.38 99.5159 278.997C98.6366 280.678 97.9712 282.453 97.1958 284.181C97.8086 284.578 98.429 284.965 99.0731 285.319C102.286 287.079 105.613 287.888 109.259 288.141C115.569 299.473 121.03 311.277 125.785 323.334C126.669 325.575 130.203 324.31 129.313 322.057C125.153 311.512 120.452 301.206 115.133 291.193Z" fill="#343751" /><path d="M144.121 227.095C131.261 235.613 123.798 249.057 121.245 263.843C117.877 283.357 119.193 303.951 118.905 323.683C118.871 326.1 122.622 326.101 122.657 323.683C122.804 313.621 122.632 303.438 122.805 293.288C123.285 293.109 123.698 292.735 123.897 292.112C125.347 287.547 127.635 283.439 129.931 279.336C129.339 278.268 128.807 277.167 128.295 276.05C128.012 275.43 128.748 274.762 129.277 275.292C129.899 275.914 130.521 276.536 131.142 277.157C133.457 272.966 135.63 268.7 136.783 263.878C136.813 263.751 136.845 263.624 136.876 263.496C135.532 262.868 134.226 262.15 132.897 261.474C132.282 261.162 132.662 260.376 133.213 260.309C134.699 260.126 136.198 259.976 137.648 260.322C137.954 259.083 138.264 257.847 138.578 256.613C137.905 256.351 137.254 256.03 136.649 255.637C136.149 255.312 136.319 254.458 136.966 254.472C137.675 254.488 138.365 254.623 139.053 254.782C139.676 235.5 149.682 223.411 144.121 227.095Z" fill="#92CEFF" /><path d="M114.423 284.608C112.648 275.346 111.471 263.055 105.789 255.137C95.4482 240.731 76.0943 247.763 65.7395 257.838C65.4005 258.168 60.4339 264.603 62.0823 264.383C67.5255 263.655 73.1326 263.192 76.7835 263.248C77.3313 261.71 77.8053 260.138 78.3681 258.589C78.5945 257.963 79.5663 257.939 79.6026 258.697C79.6777 260.244 79.7552 261.791 80.0454 263.31C82.2079 263.366 84.3479 263.495 86.4291 263.853C86.6342 262.961 86.8981 262.088 87.3772 261.297C87.6886 260.783 88.5253 260.91 88.5554 261.557C88.5991 262.479 88.6192 263.401 88.5829 264.322C89.6898 264.614 90.7754 264.986 91.831 265.481C94.4964 266.732 96.2699 268.84 98.0234 271.008C99.5143 269.995 100.77 268.685 102.155 267.527L102.17 267.511L102.172 267.512C102.212 267.478 102.251 267.441 102.292 267.407C102.848 266.951 103.585 267.857 103.096 268.353C101.761 269.7 100.602 271.198 99.3517 272.623C99.8195 273.182 100.299 273.736 100.809 274.262C103.36 276.894 106.302 278.646 109.71 279.962C112.399 292.651 114.139 305.539 115.13 318.461C115.314 320.865 119.063 320.696 118.877 318.283C118.009 306.979 116.556 295.744 114.423 284.608Z" fill="#92CEFF" /><path d="M133.091 381.403H109.925L103.299 312.344H139.78L133.091 381.403Z" fill="#BED0E2" /><path d="M394.737 182.391L394.718 189.767L367.207 189.667L367.226 182.29L394.737 182.391Z" fill="#FFD357" /><path d="M396.566 182.391L396.546 189.767L369.035 189.667L369.054 182.29L396.566 182.391Z" fill="white" /><path d="M397.984 182.29H367.227V183.512H397.984V182.29Z" fill="#FFD357" /><path d="M397.984 188.423H367.227V189.645H397.984V188.423Z" fill="#FFD357" /><path d="M397.393 189.661L397.374 197.037L369.863 196.936L369.882 189.561L397.393 189.661Z" fill="#EA3E72" /><path d="M399.221 189.661L399.201 197.037L371.689 196.936L371.708 189.561L399.221 189.661Z" fill="white" /><path d="M400.639 189.561H369.883V190.783H400.639V189.561Z" fill="#EA3E72" /><path d="M400.639 195.691H369.883V196.913H400.639V195.691Z" fill="#EA3E72" /><path d="M369.407 196.614L369.385 203.991L402.453 204.09L402.475 196.714L369.407 196.614Z" fill="#4093F6" /><path d="M371.606 196.615L371.584 203.992L404.652 204.091L404.674 196.715L371.606 196.615Z" fill="white" /><path d="M406.362 196.607H369.395V197.829H406.362V196.607Z" fill="#4093F6" /><path d="M406.362 202.738H369.395V203.96H406.362V202.738Z" fill="#4093F6" /><path d="M420.925 172H414.463V270.328H420.925V172Z" fill="#BED0E2" /><path d="M418.215 172H410.432V270.328H418.215V172Z" fill="white" /><path d="M330.457 172H322.674V270.328H330.457V172Z" fill="white" /><path d="M418.217 172H322.674V175.309H418.217V172Z" fill="white" /><path d="M418.217 203.685H322.674V206.994H418.217V203.685Z" fill="white" /><path d="M418.217 235.371H322.674V238.681H418.217V235.371Z" fill="white" /><path d="M418.217 267.056H322.674V270.365H418.217V267.056Z" fill="white" /><path d="M388.58 211.546H382.334V235.429H388.58V211.546Z" fill="#92CEFF" /><path d="M382.333 211.546H380.969V235.429H382.333V211.546Z" fill="white" /><path d="M396.543 235.622L402.521 233.814L395.61 210.954L389.631 212.762L396.543 235.622Z" fill="#92CEFF" /><path d="M389.625 212.803L388.318 213.197L395.225 236.059L396.531 235.664L389.625 212.803Z" fill="white" /><path d="M367.078 244.762L367.059 252.138L339.547 252.038L339.566 244.662L367.078 244.762Z" fill="#EA3E72" /><path d="M368.906 244.762L368.887 252.138L341.375 252.038L341.395 244.662L368.906 244.762Z" fill="white" /><path d="M370.323 244.662H339.566V245.885H370.323V244.662Z" fill="#EA3E72" /><path d="M370.323 250.793H339.566V252.015H370.323V250.793Z" fill="#EA3E72" /><path d="M339.085 251.719L339.062 259.095L372.132 259.194L372.154 251.818L339.085 251.719Z" fill="#4093F6" /><path d="M341.257 251.681L341.234 259.057L374.302 259.159L374.325 251.784L341.257 251.681Z" fill="white" /><path d="M376.042 251.708H339.074V252.93H376.042V251.708Z" fill="#4093F6" /><path d="M376.042 257.84H339.074V259.062H376.042V257.84Z" fill="#4093F6" /><path d="M370.248 259.087L370.229 267.056L344.271 266.978L344.289 259.008L370.248 259.087Z" fill="white" /><path d="M371.973 259.087L371.954 267.056L345.996 266.978L346.014 259.008L371.973 259.087Z" fill="#92CEFF" /><path d="M347.847 259.008H344.289V259.968H347.847V259.008Z" fill="#92CEFF" /><path d="M347.847 266H344.289V266.961H347.847V266Z" fill="#92CEFF" /><path d="M236.43 272.902C235.667 272.902 235.076 272.858 234.899 272.843L234.686 272.824L234.674 272.612C234.496 269.716 232.549 264.922 232.527 264.872L232.309 264.334L232.848 264.551C235.044 265.43 238.073 263.399 238.104 263.379L238.357 263.206L241.538 271.193L241.498 271.287C240.897 272.665 238.2 272.902 236.43 272.902ZM235.149 272.368C236.744 272.469 240.301 272.431 241.004 271.179L238.125 263.953C237.374 264.408 235.132 265.616 233.174 265.168C233.666 266.437 234.939 269.915 235.149 272.368Z" fill="#2A2B3C" /><path d="M377.511 211.897C376.743 210.432 371.295 205.614 367.891 206.056C365.096 206.42 358.153 212.347 355.868 214.458C356.709 212.825 358.52 208.966 359.344 207.361C361.269 203.615 363.328 195.186 363.156 195.349C360.117 198.267 357.51 201.706 356.128 205.724C355.347 207.994 354.552 212.541 354.13 214.893C354.117 214.963 354.421 207.175 353.429 204.435C351.598 199.375 347.591 195.647 343.602 192.23C343.38 192.04 348.686 202.736 349.592 205.248C350.878 208.817 351.526 212.559 351.995 216.319C351.467 214.823 350.397 207.787 346.755 204.446C342.906 200.915 334.278 200.183 331.388 200.988C331.086 201.071 339.717 202.871 344.346 207.007C346.011 208.496 349.241 215.456 349.493 215.899C348.799 215.041 344.151 209.693 341.745 209.289C332.402 207.722 326.25 214.03 326.341 214.178C326.326 214.393 333.973 212.043 340.876 213.008C347.033 213.869 348.915 218.943 352.834 221.067C352.874 221.196 354.063 221.305 354.329 221.188C366.733 215.689 375.521 217.803 375.288 217.614C372.143 215.071 368.584 213.845 364.418 214.986C360.897 215.95 358.117 217.477 355.071 219.57C355.846 218.33 356.47 216.965 357.544 215.936C369.289 204.674 377.67 212.202 377.511 211.897Z" fill="#92CEFF" /><path d="M375.688 217.782C372.895 214.752 368.617 213.328 364.575 214.303C361.393 215.07 357.92 216.664 355.19 218.847C355.329 217.258 355.327 215.642 355.357 214.105C355.417 211.113 355.257 208.056 354.341 205.186C353.494 202.532 351.921 200.355 350.169 198.228C348.086 195.7 345.979 193.199 343.435 191.12C343.138 190.877 342.732 191.172 342.905 191.528C345.669 197.258 348.462 203.059 349.927 209.283C350.615 212.207 350.724 215.136 351.114 218.097C351.379 220.116 351.935 221.993 353.362 223.498C353.581 223.729 353.892 223.534 353.927 223.29C354.075 223.306 354.236 223.245 354.304 223.07C354.448 222.695 354.569 222.311 354.674 221.92C360.951 218.356 368.247 217.084 375.357 218.345C375.685 218.403 375.928 218.042 375.688 217.782Z" fill="#343751" /><path d="M359.512 235.684H347.007L343.414 218.889H363.107L359.512 235.684Z" fill="#BED0E2" /><path d="M258.885 378.924C258.527 377.414 258.482 376.22 259.089 374.003C259.085 373.977 259.097 373.964 259.097 373.964C259.577 372.245 260.012 370.859 260.415 369.165C263.273 368.477 266.46 368.581 269.76 368.983C269.426 371.344 269.254 373.773 269.695 375.061C269.762 375.269 269.853 375.474 269.969 375.675C271.471 378.372 276.159 380.077 278.125 381.867C278.673 382.328 279.006 382.807 279.035 383.301C279.208 385.821 259.771 382.547 258.885 378.924Z" fill="#E93E72" /><path d="M278.96 383.017C279.004 383.116 279.014 383.196 279.019 383.299C279.264 385.996 259.377 382.732 258.533 379.229L258.523 379.214C258.444 379.032 258.394 378.827 258.359 378.614C258.049 376.821 258.959 374.345 259.094 373.998C259.084 373.983 259.099 373.973 259.099 373.973C264.18 377.086 269.966 375.667 269.966 375.667C271.284 378.038 275.04 379.646 277.273 381.192C278.172 381.733 278.796 382.351 278.96 383.017Z" fill="#FFD357" /><path d="M278.96 383.018C279.004 383.117 279.014 383.197 279.019 383.3C279.264 385.997 259.377 382.733 258.533 379.231L258.523 379.216C258.444 379.033 258.394 378.828 258.359 378.615C259.391 379.391 261.545 380.754 264.891 381.582C269.219 382.659 273.795 383.593 278.96 383.018Z" fill="#2A2B3B" /></svg> 