<svg width="560" height="560" viewBox="0 0 560 560" fill="none" xmlns="http://www.w3.org/2000/svg"><rect width="560" height="560" fill="#E6EFF7" /><path d="M277.49 379.622C403.129 379.622 504.98 377.022 504.98 373.814C504.98 370.606 403.129 368.006 277.49 368.006C151.851 368.006 50 370.606 50 373.814C50 377.022 151.851 379.622 277.49 379.622Z" fill="#E6DEBC" /><path d="M336.71 218.576H259.078V227.858H336.71V218.576Z" fill="white" /><path d="M307.482 181.922H297.895V218.577H307.482V181.922Z" fill="#92CEFF" /><path d="M309.576 181.922H307.482V218.577H309.576V181.922Z" fill="white" /><path d="M296.301 183.775L287.123 181L276.515 216.086L285.693 218.861L296.301 183.775Z" fill="#92CEFF" /><path d="M285.68 218.855L287.684 219.462L298.306 184.38L296.303 183.773L285.68 218.855Z" fill="white" /><path d="M319.612 192.282H310.883V218.576H319.612V192.282Z" fill="#FFD357" /><path d="M321.518 192.282H319.613V218.576H321.518V192.282Z" fill="white" /><path d="M70.4437 358.128C70.9769 356.689 71.5941 355.68 73.3063 354.188C73.3174 354.164 73.3322 354.159 73.3322 354.159C74.6695 353.004 76.3952 351.591 78.5453 349.531C81.7258 350.627 85.6128 350.902 86.3229 354.159C84.7543 355.921 81.8013 359.564 81.4599 360.867C81.4005 361.074 81.3634 361.295 81.3486 361.524C81.1098 364.567 84.0367 368.538 84.6751 371.089C84.873 371.77 84.8854 372.347 84.638 372.769C83.4034 374.94 69.188 361.597 70.4437 358.128Z" fill="#E93E72" /><path d="M84.7337 372.492C84.7151 372.599 84.6805 372.669 84.6273 372.758C83.3518 375.113 68.7616 361.533 69.9826 358.186V358.168C70.0185 357.974 70.089 357.779 70.1781 357.583C70.903 355.937 73.011 354.396 73.3116 354.184C73.3116 354.165 73.3302 354.165 73.3302 354.165C75.8081 359.512 81.3502 361.513 81.3502 361.513C81.1374 364.187 83.3505 367.569 84.3427 370.065C84.7868 371.006 84.9638 371.855 84.7337 372.492Z" fill="#FFD357" /><path d="M84.7337 372.493C84.7151 372.6 84.6805 372.67 84.6273 372.759C83.3518 375.114 68.7616 361.534 69.9826 358.186V358.169C70.0185 357.975 70.089 357.779 70.1781 357.584C70.6036 358.789 71.6305 361.09 73.9314 363.604C76.9066 366.863 80.1651 370.138 84.7337 372.493Z" fill="#2A2B3B" /><path d="M184.175 240.217C184.231 240.203 184.287 240.203 184.342 240.187C185.16 239.952 184.785 238.407 183.965 238.643C183.907 238.659 183.849 238.652 183.793 238.664C183.985 238.262 183.833 237.543 182.978 237.504C182.73 237.493 179.223 237.376 176.729 235.672C177.415 235.611 178.556 235.529 179.328 235.724C180.146 235.932 180.553 234.66 179.728 234.461C179.599 234.43 178.522 234.196 178.365 234.209C174.512 233.621 170.274 234.297 166.563 235.536C165.943 235.69 165.326 235.87 164.715 236.096C164.494 236.176 164.368 236.442 164.351 236.656C164.263 237.751 164.637 240.151 164.901 241.213C164.929 241.319 164.984 241.404 165.047 241.481C164.525 241.942 165.073 242.907 165.774 242.542C167.643 241.565 171.282 240.305 171.314 240.3C174.78 241.685 178.158 242.968 181.911 243.091C182.667 243.115 182.896 241.928 182.316 241.679C182.312 241.673 182.31 241.664 182.307 241.657C182.318 241.658 182.33 241.655 182.339 241.655C182.561 241.681 183.594 241.627 183.904 241.563C184.503 241.438 184.508 240.538 184.175 240.217Z" fill="#EA3E72" /><path d="M183.433 238.823C182.325 238.823 178.942 238.71 176.395 237.424C176.319 237.385 176.289 237.292 176.327 237.216C176.364 237.141 176.457 237.108 176.535 237.148C179.536 238.662 183.745 238.505 183.788 238.508C183.861 238.512 183.945 238.572 183.949 238.657C183.953 238.741 183.886 238.814 183.801 238.818C183.793 238.818 183.661 238.823 183.433 238.823Z" fill="#2A2B3C" /><path d="M183.506 240.38C181.927 240.38 178.005 240.259 175.991 239.117C175.915 239.076 175.89 238.981 175.932 238.907C175.973 238.831 176.067 238.804 176.143 238.849C178.574 240.224 184.115 240.06 184.173 240.061H184.178C184.261 240.061 184.33 240.128 184.332 240.211C184.335 240.296 184.268 240.368 184.183 240.37C184.138 240.373 183.892 240.38 183.506 240.38Z" fill="#2A2B3C" /><path d="M182.318 241.832C182.318 241.832 182.311 241.832 182.306 241.832C182.123 241.817 177.787 241.485 175.809 240.556C175.731 240.52 175.697 240.427 175.733 240.35C175.769 240.274 175.863 240.241 175.939 240.275C177.867 241.179 182.285 241.521 182.329 241.523C182.413 241.53 182.478 241.603 182.472 241.69C182.467 241.772 182.399 241.832 182.318 241.832Z" fill="#2A2B3C" /><path d="M128.453 250.394C128.528 250.111 128.448 249.82 128.169 249.619C128.084 249.389 128.005 249.157 127.917 248.927C127.615 248.147 126.598 248.2 126.259 248.712C119.932 245.93 112.94 244.088 106.969 248.823C100.932 253.612 99.292 261.612 99.8388 268.926C100.564 278.617 102.904 288.837 105.393 298.221C107.598 306.533 111.135 314.401 117.372 320.464C117.649 320.734 118.108 320.809 118.443 320.603C128.425 314.457 130.317 300.343 131.778 289.744C133.605 276.499 133.01 263.011 128.453 250.394Z" fill="#3F4261" /><path d="M125.802 258.803C125.802 258.803 131.851 285.899 131.589 291.141C131.325 296.384 128.377 306.641 128.377 306.641L117.358 293.188L114.473 260.801L125.802 258.803Z" fill="#343751" /><path d="M110.43 265.486C110.027 266.24 109.631 266.999 109.25 267.765C104.935 276.428 100.859 285.277 97.2022 294.24C93.7346 302.737 91.4052 311.731 87.3278 319.966C82.9077 328.893 71.696 346.997 72.3777 346.694C71.2643 349.958 92.7772 360.493 94.9779 358.198C102.462 349.486 107.119 339.071 111.368 328.503C116.058 316.84 121.031 305.515 127.179 294.532C127.21 294.475 127.245 294.42 127.276 294.364C123.467 283.727 118.029 273.996 110.43 265.486Z" fill="#3F4261" /><path d="M99.7423 286.064C99.7423 286.064 100.345 310.197 100.654 322.723C100.963 335.248 89.6094 357.585 89.6094 357.585C89.6094 357.585 93.9627 359.414 94.9771 358.2C95.9927 356.988 102.391 348.724 105.731 341.393C109.071 334.063 112.87 324.424 112.87 324.424L99.7423 286.064Z" fill="#343751" /><path d="M122.127 265.486L130.733 296.756L128.857 306.64L122.127 265.486Z" fill="#2A2B3B" /><path d="M98.5938 290.828L112.871 324.424L109.495 332.812C109.495 332.812 108.489 324.63 105.732 317.208C102.974 309.785 98.5938 290.828 98.5938 290.828Z" fill="#2A2B3B" /><path d="M145.157 357.282C144.939 345.798 141.477 334.928 137.61 324.215C133.342 312.391 129.51 300.631 126.783 288.342C125.405 282.126 124.184 275.873 122.923 269.631C122.033 265.218 121.544 260.207 118.316 256.767C112.246 250.29 102.891 252.094 96.6699 257.153C96.2926 257.005 91.6845 254.615 91.4643 255.092C88.0759 262.456 93.5166 272.746 95.5838 280.313C98.1334 289.65 100.985 298.966 104.225 308.086C107.296 316.736 111.548 324.996 113.99 333.856C116.636 343.459 120.328 364.43 120.635 363.751C127.989 354.104 140.014 356.079 145.157 357.282Z" fill="#3F4261" /><path d="M145.156 357.282C145.044 360.458 121.978 366.925 120.635 363.749C119.654 361.431 123.959 357.391 131.061 355.62C139.577 353.497 145.209 355.782 145.156 357.282Z" fill="#17171D" /><path d="M131.579 372.279C130.62 371.082 130.279 369.617 129.882 367.379C129.868 367.357 129.872 367.341 129.872 367.341C129.571 365.601 127.935 359.777 127.275 356.872C131.717 355.148 134.229 355.006 136.213 354.808C136.916 357.058 138.867 362.865 139.807 363.829C139.954 363.987 140.123 364.13 140.313 364.261C142.797 366.035 147.71 365.571 150.226 366.337C150.912 366.518 151.412 366.805 151.647 367.235C152.869 369.41 133.906 375.142 131.579 372.279Z" fill="#E93E72" /><path d="M150.227 366.336L143.74 369.635C143.74 369.635 133.059 373.678 131.581 372.279C130.193 370.973 129.907 367.781 129.883 367.379C129.87 367.357 129.874 367.34 129.874 367.34C132.897 363.908 140.315 364.261 140.315 364.261C142.799 366.034 147.711 365.57 150.227 366.336Z" fill="#FFD357" /><path d="M151.643 367.236C153.001 369.553 133.741 375.089 131.576 372.272C130.187 370.465 149.308 363.255 151.643 367.236Z" fill="#2A2B3B" /><path d="M110.191 207.461C124.433 204.298 135.115 223.925 140.555 234.191C145.994 244.457 140.335 250.62 135.736 248.855C121.313 243.32 101.559 209.377 110.191 207.461Z" fill="#4093F6" /><path d="M168.707 230.763C158.172 229.863 143.347 230.867 134.173 230.547C127.719 230.322 134.247 248.848 136.368 249.236C138.492 249.624 158.823 251.056 171.098 244.503C171.098 244.503 170.772 230.94 168.707 230.763Z" fill="#4093F6" /><path d="M171.1 244.505C171.1 244.505 152.972 253.518 134.993 248.74C132.759 248.148 123.15 237.087 123.15 237.087L128.535 227.891C128.535 227.891 132.558 242.707 136.444 245.068C140.33 247.428 171.1 244.505 171.1 244.505Z" fill="#2483E2" /><path d="M130.55 258.46C130.55 258.46 107.307 264.666 82.7773 260.295L83.5344 254.481L130.55 258.46Z" fill="#2A2B3B" /><path d="M121.391 209.449C121.391 209.449 126.474 212.28 129.563 224.987C131.182 231.647 131.558 239.014 131.558 239.014L126.85 236.107L121.391 209.449Z" fill="#17171D" /><path d="M81.668 258.063C81.668 258.063 87.2744 214.598 100.161 207.142C108.456 202.342 121.258 206.563 124.115 212.865C129.689 225.153 132.94 258.012 132.94 258.012C132.94 258.012 103.138 264.258 81.668 258.063Z" fill="#4093F6" /><path d="M114.494 199.447C114.494 199.447 114.346 204.372 114.179 205.479C114.128 205.817 113.435 206.867 112.849 207.266C110.781 205.784 109.071 206.133 108.42 205.479C108.922 204.096 109.182 202.074 109.182 199.447C109.182 196.962 114.494 199.447 114.494 199.447Z" fill="#EA3E72" /><path d="M108.51 195.451C108.51 195.451 109.661 202.142 113.889 202.274C118.114 202.404 115.468 193.164 114.834 192.909C114.198 192.654 110.076 191.756 108.51 195.451Z" fill="#EA3E72" /><path d="M104.128 208.403C104.128 208.403 109.5 214.177 109.377 220.26C109.255 226.342 102.039 236.651 103.172 245.62C104.307 254.589 112.374 260.563 112.374 260.563C112.374 260.563 95.8536 261.438 86.9874 259.507C78.1212 257.577 86.5482 233.625 86.5482 233.625L104.128 208.403Z" fill="#2483E2" /><path d="M113.668 189.645C113.098 189.359 112.474 189.238 111.833 189.36C111.058 189.508 110.574 190.1 109.825 190.179C108.151 190.358 107.337 191.437 107.518 192.861C107.476 192.901 107.431 192.938 107.396 192.995C106.783 194.035 106.39 195.132 107.003 196.129C106.333 197.331 107.352 198.905 108.124 199.886C108.192 199.97 108.266 200.016 108.344 200.05C108.56 200.457 109.312 200.525 109.508 199.943C110.005 198.48 109.574 196.718 110.122 195.362C110.386 194.713 110.966 194.237 111.4 193.623C112.051 193.827 112.665 193.736 113.251 193.368C114.641 194.105 116.937 193.781 117.324 192.052C117.839 189.753 115.366 189.05 113.668 189.645Z" fill="#17171D" /><path d="M110.691 196.671C110.691 196.671 110.048 195.439 108.88 195.615C107.713 195.79 107.443 198.574 109.421 198.816C111.399 199.059 110.691 196.671 110.691 196.671Z" fill="#EA3E72" /><path d="M112.848 207.266L111.426 210.165L107.623 205.087L108.619 204.85L112.848 207.266Z" fill="#F2F8FF" /><path d="M128.834 274.635L85.1635 290.346L84.0068 290.226L75.5859 261.936L120.054 245.912L121.946 246.423L128.834 274.635Z" fill="#BED0E2" /><path d="M129.921 274.244L85.163 290.346L77.1367 263.073L121.945 246.423L129.921 274.244Z" fill="#EDF1F4" /><path d="M105.375 272.127C107.442 272.127 109.117 270.452 109.117 268.385C109.117 266.318 107.442 264.643 105.375 264.643C103.308 264.643 101.633 266.318 101.633 268.385C101.633 270.452 103.308 272.127 105.375 272.127Z" fill="#BED0E2" /><path d="M112.848 207.266L114.989 208.811V206.076L114.178 205.479L112.848 207.266Z" fill="#F2F8FF" /><path d="M108.817 282.883C109.111 280.034 108.799 277.495 107.842 275.078C107.884 275.026 107.906 274.971 107.942 274.916C109.156 276.272 110.133 277.867 110.636 280.077C110.892 281.196 112.846 280.217 112.592 279.107C111.682 275.113 109.58 272.423 106.277 270.203C101.638 267.084 97.433 262.523 95.2446 257.382C95.1852 257.243 95.0949 257.147 94.9897 257.076C94.7757 256.803 94.3873 256.662 93.8813 256.868C90.77 258.137 87.6612 259.408 84.5499 260.677C83.898 260.944 83.6345 261.797 83.9648 262.196C87.0934 265.972 90.5671 269.568 94.339 272.765C95.3819 273.649 96.4359 274.312 97.7138 274.935C99.2057 275.66 101.184 276.161 102.204 277.457C103.433 279.015 103.319 281.202 103.265 283.243C103.239 284.23 104.575 284.058 105.09 283.311C105.09 283.322 105.092 283.333 105.092 283.333C105.048 284.272 106.219 284.184 106.804 283.557C106.89 284.538 108.698 284.027 108.817 282.883Z" fill="#EA3E72" /><path d="M108.709 278.438L108.702 278.437C108.568 278.433 108.462 278.322 108.467 278.187C108.484 277.566 107.858 275.796 107.616 275.166C107.568 275.041 107.631 274.9 107.756 274.852C107.876 274.805 108.02 274.865 108.07 274.992C108.107 275.087 108.977 277.356 108.953 278.202C108.949 278.333 108.842 278.438 108.709 278.438Z" fill="#2A2B3C" /><path d="M106.8 283.799C106.79 283.799 106.779 283.797 106.77 283.796C106.637 283.779 106.542 283.658 106.559 283.524C106.564 283.482 107.076 279.228 105.613 275.714C105.561 275.591 105.62 275.448 105.744 275.396C105.866 275.343 106.01 275.403 106.062 275.528C107.576 279.162 107.065 283.404 107.041 283.583C107.027 283.708 106.921 283.799 106.8 283.799Z" fill="#2A2B3C" /><path d="M105.088 283.553L105.072 283.552C104.938 283.543 104.837 283.427 104.844 283.293C104.846 283.249 105.121 278.876 103.833 276.844C103.76 276.731 103.795 276.58 103.909 276.509C104.021 276.437 104.175 276.472 104.244 276.585C105.617 278.75 105.342 283.141 105.33 283.325C105.323 283.454 105.215 283.553 105.088 283.553Z" fill="#2A2B3C" /><path d="M104.126 208.404C110.99 221.277 97.9686 237.726 89.5366 245.719C81.1046 253.712 71.4987 241.989 72.2768 238.655C73.0561 235.321 99.9652 200.601 104.126 208.404Z" fill="#4093F6" /><path d="M108.504 265.699C104.49 255.918 91.5027 239.46 86.1139 235.899C80.7264 232.338 71.6277 242.474 72.2511 244.542C72.8746 246.607 83.8006 268.577 95.2374 276.502C95.2374 276.502 109.291 267.616 108.504 265.699Z" fill="#4093F6" /><path d="M97.94 209.07C97.94 209.07 76.0139 226.915 72.1196 238.663C68.224 250.409 93.4184 274.22 95.2382 276.503C95.2382 276.503 73.2763 245.77 75.9558 239.894C78.6365 234.017 97.94 209.07 97.94 209.07Z" fill="#2483E2" /><path d="M452.498 375.003C465.005 375.003 475.144 373.922 475.144 372.589C475.144 371.255 465.005 370.174 452.498 370.174C439.991 370.174 429.852 371.255 429.852 372.589C429.852 373.922 439.991 375.003 452.498 375.003Z" fill="#BED0E2" /><path d="M452.499 373.918C453.182 373.918 453.736 373.365 453.736 372.681V199.128C453.736 198.444 453.182 197.891 452.499 197.891C451.815 197.891 451.262 198.444 451.262 199.128V372.681C451.262 373.365 451.815 373.918 452.499 373.918Z" fill="#BED0E2" /><path d="M432.885 215.297C432.885 215.915 441.669 216.409 452.494 216.409C463.331 216.409 472.113 215.915 472.113 215.297C472.113 214.69 463.329 214.194 452.494 214.194C441.669 214.196 432.885 214.69 432.885 215.297Z" fill="#3F4261" /><path opacity="0.34" d="M467.037 212.689L510.001 373.919H396.299L437.58 212.689H467.037Z" fill="url(#paint0_linear_436_612)" /><path d="M432.885 215.297C432.885 214.691 441.669 214.195 452.494 214.195C463.331 214.195 472.113 214.69 472.113 215.297L464.95 187.153H440.047L432.885 215.297Z" fill="#BED0E2" /><path d="M452.497 188.029C459.377 188.029 464.953 187.637 464.953 187.153C464.953 186.669 459.377 186.277 452.497 186.277C445.618 186.277 440.041 186.669 440.041 187.153C440.041 187.637 445.618 188.029 452.497 188.029Z" fill="#E4EAEF" /><path d="M180.273 287.57C180.273 287.57 184.637 305.025 184.637 313.338C184.637 313.338 219.756 312.715 233.47 313.338C233.47 313.338 229.796 295.386 232.082 285.828C232.082 285.828 193.364 288.193 180.273 287.57Z" fill="white" /><path d="M180.274 287.57C180.274 287.57 177.713 287.676 174.18 286.012C174.18 286.012 177.765 308.303 177.35 312.875L184.638 313.339C184.638 313.339 184.481 297.598 180.274 287.57Z" fill="#EDF1F4" /><path d="M232.157 307.021C232.157 307.021 215.961 308.039 203.961 308.662C203.961 308.662 222.63 309.467 232.566 309.156L232.157 307.021Z" fill="#EDF1F4" /><path d="M231.363 291.863C231.363 291.863 222.665 294.636 210.664 295.259C210.664 295.259 221.401 294.548 231.337 294.236L231.363 291.863Z" fill="#EDF1F4" /><path d="M184.012 306.168C184.012 306.168 196.479 305.7 200.377 304.921H183.803L184.012 306.168Z" fill="#EDF1F4" /><path d="M176.455 301.774C176.455 301.774 177.948 303.245 181.896 304.492L176.759 304.282L176.455 301.774Z" fill="#BED0E2" /><path d="M178.977 308.506L184.483 310.324L184.409 309.416C184.409 309.416 180.899 309.129 178.977 308.506Z" fill="#BED0E2" /><path d="M174.18 286.011C174.18 286.011 200.379 286.229 224.23 284.159C224.23 284.159 226.369 284.737 232.083 285.828C232.083 285.828 197.262 287.83 180.274 287.57C180.274 287.57 178.959 288.039 174.18 286.011Z" fill="#BED0E2" /><path d="M190.615 295.867C190.615 295.867 202.911 295.507 205.225 295.261C205.225 295.261 206.873 296.592 208.703 297.922C208.703 297.922 195.491 296.72 190.615 295.867Z" fill="#EDF1F4" /><path d="M232.082 285.828C232.082 285.828 231.363 308.675 233.47 313.338C233.47 313.338 228.705 299.546 230.996 285.889L232.082 285.828Z" fill="#EDF1F4" /><path d="M252.025 307.391L250.478 307.082L256.477 274.607L235.136 249.842L226.249 257.012L225.258 255.786L235.336 247.652L258.175 274.161L252.025 307.391Z" fill="#E4EAEF" /><path d="M228.769 250.612C229.066 250.332 230.338 251.2 231.608 252.548C232.879 253.897 233.67 255.218 233.373 255.498L225.951 268.637L215.211 257.236L228.769 250.612Z" fill="#BED0E2" /><path d="M221.465 262.094C218.499 258.945 215.699 256.765 215.212 257.224C214.725 257.683 216.734 260.608 219.7 263.756C222.666 266.905 225.465 269.085 225.953 268.626C226.44 268.167 224.431 265.242 221.465 262.094Z" fill="#E4EAEF" /><path d="M238.459 314.056H264.043L262.465 309.509H240.038L238.459 314.056Z" fill="#E4EAEF" /><path d="M245.994 309.509H256.503L255.855 304.963H246.642L245.994 309.509Z" fill="#BED0E2" /><path d="M270.507 312.936H179.383V316.235H270.507V312.936Z" fill="#2A2B3B" /><path d="M174.842 373.927C174.812 373.927 174.78 373.924 174.75 373.92C174.413 373.87 174.179 373.556 174.23 373.218L182.973 314.271C183.023 313.935 183.343 313.695 183.675 313.75C184.012 313.8 184.246 314.114 184.195 314.452L175.452 373.399C175.407 373.706 175.143 373.927 174.842 373.927Z" fill="#2A2B3C" /><path d="M212.568 373.926C212.267 373.926 212.002 373.705 211.958 373.398L203.214 314.451C203.163 314.113 203.396 313.799 203.735 313.75C204.066 313.693 204.387 313.931 204.436 314.27L213.18 373.218C213.231 373.555 212.998 373.869 212.659 373.919C212.629 373.924 212.599 373.926 212.568 373.926Z" fill="#2A2B3C" /><path d="M237.324 373.927C237.295 373.927 237.263 373.924 237.233 373.92C236.895 373.87 236.661 373.556 236.712 373.218L245.456 314.271C245.505 313.935 245.828 313.695 246.157 313.75C246.495 313.8 246.729 314.114 246.678 314.452L237.934 373.399C237.89 373.706 237.625 373.927 237.324 373.927Z" fill="#2A2B3C" /><path d="M275.048 373.926C274.747 373.926 274.483 373.705 274.438 373.398L265.694 314.451C265.644 314.113 265.876 313.799 266.215 313.75C266.548 313.693 266.867 313.931 266.917 314.27L275.66 373.218C275.711 373.555 275.479 373.869 275.14 373.919C275.11 373.924 275.079 373.926 275.048 373.926Z" fill="#2A2B3C" /><path d="M312.343 287.318C322.417 281.118 331.951 276.531 338.114 274.606C344.278 272.68 349.214 284.152 348.04 285.966C346.867 287.778 329.297 301.598 316.521 296.34C316.521 296.34 310.579 288.403 312.343 287.318Z" fill="#4093F6" /><path d="M363.641 249.995C360.209 247.402 345.328 266.692 332.339 276.463C323.053 283.447 339.139 294.695 342.088 292.955C345.039 291.217 370.697 255.326 363.641 249.995Z" fill="#4093F6" /><path d="M358.873 254.202C358.873 254.202 342.997 284.199 337.904 286.531C332.812 288.864 317.266 284.809 328.125 289.583C337.904 293.882 341.254 293.884 342.089 292.956C361.453 271.425 356.662 273.827 358.873 254.202Z" fill="#2483E2" /><path d="M361.357 251.398C361.357 251.398 356.672 255.845 355.744 260.586C354.814 265.328 350.484 283.26 350.484 283.26L356.876 276.463L361.357 251.398Z" fill="#2A2B3C" /><path d="M301.38 372.835C302.083 371.47 302.412 370.335 302.359 368.063C302.369 368.04 302.362 368.025 302.362 368.025C302.312 366.258 302.194 364.032 302.265 361.054C299.311 359.443 296.487 356.76 293.603 358.433C293.36 360.778 292.661 365.416 291.928 366.547C291.813 366.73 291.678 366.904 291.517 367.071C289.432 369.3 284.526 369.816 282.211 371.066C281.574 371.377 281.141 371.758 280.995 372.226C280.227 374.599 299.665 376.101 301.38 372.835Z" fill="#E93E72" /><path d="M281.136 371.968C281.069 372.052 281.04 372.126 281.011 372.225C280.131 374.754 299.998 376.372 301.647 373.212L301.659 373.201C301.779 373.043 301.875 372.86 301.96 372.663C302.686 371.017 302.402 368.421 302.355 368.055C302.37 368.043 302.358 368.029 302.358 368.029C296.737 369.805 291.522 367.062 291.522 367.062C289.691 369.021 285.701 369.666 283.189 370.618C282.197 370.925 281.451 371.367 281.136 371.968Z" fill="#FFD357" /><path d="M281.136 371.968C281.069 372.052 281.04 372.126 281.011 372.225C280.131 374.754 299.998 376.372 301.647 373.212L301.659 373.201C301.779 373.043 301.875 372.86 301.96 372.663C300.783 373.16 298.391 373.953 294.982 373.95C290.571 373.95 285.955 373.753 281.136 371.968Z" fill="#2A2B3B" /><path d="M366.559 243.813L366.508 243.509C367.823 243.295 368.787 242.718 369.37 241.796C370.567 239.91 369.801 237.167 369.794 237.139L370.09 237.055C370.124 237.172 370.903 239.956 369.633 241.961C368.998 242.961 367.965 243.584 366.559 243.813Z" fill="#2A2B3C" /><path d="M419.775 294.734C416.237 283.327 412.192 270.276 402.382 262.632C401.799 262.174 401.219 261.753 400.612 261.358C390.975 254.974 379.631 256.149 371.107 264.388C365.366 269.942 361.964 277.266 357.325 283.649C352.477 290.329 346.24 295.452 338.98 299.149C325.694 305.112 309.549 320.229 311.888 345.775C312.073 347.816 312.48 349.882 313.113 351.934C315.748 360.608 322.315 368.81 332.646 371.555C347.119 375.401 355.766 374.19 370.623 374.14C383.367 374.104 396.987 373.571 407.527 365.53C416.42 358.763 421.95 348.26 424.103 337.423C426.95 323.136 424.044 308.416 419.775 294.734Z" fill="#EDF1F4" /><path d="M419.776 294.734C416.238 283.327 412.193 270.276 402.383 262.632C401.8 262.174 401.22 261.753 400.612 261.357C400.55 261.716 400.612 262.1 400.836 262.496C409.136 277.217 415.099 293.546 414.802 310.643C414.542 325.401 409.05 348.349 392.88 353.211C384.346 355.761 374.77 356.675 365.974 357.677C357.809 358.605 349.471 359.471 341.232 359.137C333.34 358.815 326.512 356.415 319.163 353.805C317.616 353.248 315.253 352.183 313.113 351.936C315.748 360.609 322.316 368.811 332.647 371.556C347.119 375.402 355.767 374.191 370.624 374.141C383.367 374.105 396.988 373.572 407.528 365.531C416.421 358.764 421.951 348.261 424.103 337.425C426.951 323.136 424.045 308.416 419.776 294.734Z" fill="#E4EAEF" /><path d="M367.754 299.628C365.964 295.812 362.574 293.705 357.759 292.709C353.14 291.758 348.614 293.955 344.385 295.495C338.9 297.508 314.024 300.93 306.592 311.052C306.58 311.052 306.566 311.088 306.528 311.136C306.475 311.196 306.423 311.281 306.357 311.377C306.344 311.389 306.344 311.402 306.331 311.413C305.793 312.234 305.441 313.076 305.297 313.95C305.296 313.975 305.295 313.998 305.281 314.023C305.216 314.467 301.107 327.898 306.574 328.384C308.807 328.579 311.088 328.464 313.134 328.07C313.259 328.049 314.127 328.007 315.54 327.937C315.689 327.93 315.85 327.923 316.012 327.917C317.773 327.822 320.229 327.702 323.046 327.533C331.742 327 343.847 326.05 349.542 324.392C350.13 324.228 350.73 324.052 351.344 323.89C352.718 323.52 354.168 323.14 355.619 322.735C356.583 322.461 357.547 322.176 358.487 321.864C358.963 321.708 359.427 321.54 359.892 321.359C360.344 321.19 360.795 321.009 361.237 320.815C361.237 320.815 361.249 320.828 361.249 320.815C361.628 320.656 362.016 320.484 362.382 320.3C362.647 320.174 362.913 320.035 363.166 319.897C363.949 319.48 364.671 319.011 365.334 318.49C365.881 318.077 366.383 317.613 366.821 317.11C366.963 316.954 367.093 316.786 367.223 316.63C367.353 316.46 367.469 316.292 367.588 316.11C367.693 315.967 367.785 315.821 367.865 315.664C368.024 315.409 368.156 315.154 368.266 314.873C368.333 314.727 368.4 314.581 368.455 314.422C368.688 313.812 368.847 313.175 368.937 312.472C369.639 306.879 369.211 302.703 367.754 299.628Z" fill="#343751" /><path d="M306.332 311.415C298.732 320.068 287.03 346.281 287.943 362.685C293.024 363.301 300.932 364.339 308.046 364.339C315.395 348.077 317.11 328.98 318.149 325.263C318.453 324.21 318.709 310.554 318.829 310.047C320.309 303.918 310.599 306.557 306.332 311.415Z" fill="#343751" /><path d="M319.594 308.82C319.594 308.82 313.013 312.292 312.054 315.484C311.095 318.678 314.044 346.44 314.044 346.44C314.044 346.44 307.05 333.845 308.751 321.165C310.452 308.485 316.062 307.648 316.062 307.648L319.594 308.82Z" fill="#17171D" /><path d="M386.955 297.221C385.025 293.472 381.562 291.493 376.713 290.677C372.06 289.897 367.619 292.26 363.45 293.954C358.045 296.169 322.527 303.071 315.477 313.464C315.464 313.464 315.451 313.501 315.414 313.549C315.366 313.612 315.315 313.699 315.253 313.798C315.241 313.81 315.241 313.823 315.229 313.834C314.721 314.675 314.4 315.528 314.287 316.407C314.287 316.432 314.287 316.456 314.275 316.482C314.225 316.926 314.201 317.373 314.188 317.781C314.176 318.882 314.313 319.884 314.597 320.787C316.058 325.748 321.4 327.938 326.882 328.222C329.121 328.335 331.396 328.137 333.426 327.665C333.55 327.641 334.416 327.567 335.825 327.443C335.973 327.43 336.134 327.418 336.295 327.407C338.053 327.245 340.501 327.035 343.31 326.762C351.982 325.909 364.044 324.511 369.673 322.643C370.254 322.459 370.848 322.259 371.454 322.074C372.815 321.653 374.25 321.222 375.685 320.761C376.638 320.452 377.589 320.13 378.517 319.785C378.988 319.611 379.444 319.425 379.902 319.229C380.348 319.043 380.794 318.844 381.226 318.635C381.226 318.635 381.239 318.648 381.239 318.635C381.609 318.462 381.993 318.276 382.352 318.078C382.611 317.943 382.871 317.795 383.119 317.645C383.886 317.201 384.59 316.705 385.234 316.161C385.766 315.728 386.247 315.246 386.669 314.727C386.805 314.565 386.929 314.392 387.053 314.232C387.176 314.058 387.288 313.886 387.399 313.7C387.498 313.55 387.583 313.403 387.659 313.241C387.807 312.983 387.931 312.722 388.03 312.438C388.092 312.29 388.155 312.141 388.203 311.981C388.413 311.362 388.549 310.719 388.611 310.014C389.107 304.396 388.527 300.238 386.955 297.221Z" fill="#3F4261" /><path d="M342.903 361.864C342.369 360.424 341.752 359.416 340.04 357.923C340.029 357.899 340.013 357.896 340.013 357.896C338.677 356.74 336.951 355.328 334.801 353.267C331.619 354.364 327.734 354.639 327.023 357.896C328.592 359.657 331.544 363.299 331.886 364.603C331.946 364.811 331.982 365.03 331.997 365.26C332.237 368.302 329.31 372.274 328.671 374.825C328.473 375.507 328.461 376.083 328.708 376.504C329.94 378.676 344.157 365.332 342.903 361.864Z" fill="#E93E72" /><path d="M328.61 376.23C328.629 376.336 328.663 376.407 328.717 376.494C329.991 378.85 344.581 365.269 343.36 361.923V361.904C343.325 361.71 343.254 361.516 343.166 361.319C342.44 359.674 340.333 358.132 340.031 357.92C340.031 357.902 340.014 357.902 340.014 357.902C337.535 363.249 331.992 365.249 331.992 365.249C332.205 367.924 329.992 371.306 329 373.803C328.557 374.741 328.381 375.591 328.61 376.23Z" fill="#FFD357" /><path d="M328.611 376.229C328.63 376.335 328.665 376.406 328.718 376.494C329.992 378.849 344.582 365.268 343.361 361.922V361.904C343.326 361.709 343.255 361.515 343.167 361.318C342.741 362.523 341.715 364.825 339.414 367.339C336.437 370.598 333.179 373.874 328.611 376.229Z" fill="#2A2B3B" /><path d="M314.191 311.965C305.698 321.25 313.116 351.936 321.541 360.985C328.007 360.733 338.923 355.233 341.977 353.304C340.121 344.49 333.837 326.634 335.054 322.971C335.409 321.937 342.19 306.435 342.332 305.934C344.107 299.882 319.121 306.572 314.191 311.965Z" fill="#3F4261" /><path d="M387.359 313.619C387.359 313.619 394.657 301.064 404.863 296.263C404.863 296.263 388.781 303.832 381.977 315.585L387.359 313.619Z" fill="#17171D" /><path d="M386.957 297.22L383.357 294.956C383.357 294.956 374.723 312.04 359.37 315.133C356.822 315.654 350.302 316.061 343.474 318.015C337.288 319.76 329.391 321.958 326.884 328.221C324.436 334.335 333.269 348.456 332.065 358.046C332.249 358.145 340.43 354.541 341.977 353.304C338.822 338.604 334.763 332.931 335.776 329.207C336.292 327.313 340.503 327.034 343.313 326.761C351.985 325.908 364.046 324.51 369.675 322.642C370.256 322.458 370.85 322.259 371.456 322.073C372.817 321.652 374.252 321.221 375.687 320.76C376.64 320.451 377.591 320.129 378.519 319.784C378.99 319.61 379.447 319.424 379.904 319.228C380.35 319.042 380.796 318.843 381.228 318.634C381.228 318.634 381.242 318.647 381.242 318.634C381.625 318.461 381.995 318.275 382.354 318.077C382.614 317.942 382.873 317.794 383.121 317.644C383.888 317.2 384.592 316.704 385.236 316.16C385.768 315.727 386.249 315.246 386.671 314.726C386.807 314.564 386.931 314.391 387.055 314.231C387.178 314.057 387.29 313.885 387.401 313.699C387.5 313.549 387.585 313.402 387.661 313.24C387.809 312.982 387.933 312.721 388.032 312.437C388.094 312.289 388.157 312.14 388.205 311.98C388.416 311.361 388.552 310.718 388.613 310.013C389.11 304.395 388.529 300.237 386.957 297.22Z" fill="#343751" /><path d="M401.309 312.912C380.357 312.537 365.898 319.913 356.31 333.059C355.381 333.13 357.634 348.826 372.134 348.785C387.512 348.742 398.809 350.347 402.856 334.087C404.334 328.147 406.618 313.007 401.309 312.912Z" fill="#EDF1F4" /><path d="M356.309 333.061C356.309 333.061 374.334 312.677 401.308 312.913C401.308 312.913 375.215 308.095 356.309 333.061Z" fill="#17171D" /><path d="M392.694 303.168C392.694 303.168 387.049 255.142 376.264 250.533C367.45 246.767 359.235 249.282 357.589 258.606C356.079 267.164 353.253 278.323 351.487 282.749C349.775 287.043 344.385 295.496 344.385 295.496C344.385 295.496 370.748 307.379 392.694 303.168Z" fill="#4093F6" /><path d="M363.234 243.839C363.234 243.839 364.423 248.41 364.515 249.526C364.542 249.867 365.162 250.961 365.722 251.399C367.885 250.059 369.567 250.522 370.261 249.914C369.853 248.5 368.666 245.17 367.908 242.804C366.941 239.788 363.234 243.839 363.234 243.839Z" fill="#E93E72" /><path d="M365.723 251.399L366.8 248.5L369.841 248.704L372.825 249.288L365.723 251.399Z" fill="#EDF1F4" /><path d="M365.72 251.399L364.822 248.368L363.533 250.152L365.72 251.399Z" fill="#EDF1F4" /><path d="M375.112 253.467C375.112 253.467 365.67 267.451 363.488 281.34C361.306 295.231 351.488 298.233 351.488 298.233C351.488 298.233 371.059 306.978 392.696 303.168C392.696 303.168 387.009 263.204 375.112 253.467Z" fill="#2483E2" /><path d="M311.466 308.898L351.391 311.382L351.499 309.633L311.574 307.149L311.466 308.898Z" fill="#AABFCE" /><path d="M351.414 311.405L369.63 309.74L369.739 307.992L351.523 309.657L351.414 311.405Z" fill="#BED0E2" /><path d="M369.738 307.992L324.517 303.848L311.598 307.173L351.522 309.657L369.738 307.992Z" fill="#DCE8EF" /><path d="M312.725 307.242L352.425 309.289L348.778 284.863L309.581 282.406L308.178 283.26L312.725 307.242Z" fill="#DCE8EF" /><path d="M311.758 307.182L351.524 309.657L348.115 286.161L308.178 283.26L311.758 307.182Z" fill="#BED0E2" /><path d="M358.178 309.508C358.359 309.955 359.055 310.149 359.29 309.586C359.294 309.579 359.298 309.573 359.3 309.565C359.407 310.076 360.18 310.341 360.443 309.745C360.985 308.512 361.535 307.186 362.731 306.398C363.725 305.743 365.083 305.678 366.206 305.422C367.167 305.202 368.003 304.932 368.895 304.525C372.118 303.058 375.271 301.315 378.262 299.425C378.578 299.226 378.657 298.68 378.333 298.443C376.778 297.307 375.223 296.17 373.668 295.034C373.414 294.85 373.136 294.888 372.928 295.026C372.843 295.055 372.759 295.102 372.684 295.179C369.885 298.003 366.009 300.238 362.276 301.553C359.615 302.489 357.562 303.85 355.874 306.141C355.404 306.777 356.329 307.601 356.803 306.957C357.738 305.692 358.787 304.851 359.918 304.184C359.925 304.22 359.923 304.257 359.935 304.293C358.662 305.628 357.753 307.115 357.129 308.861C356.878 309.564 357.847 310.088 358.178 309.508Z" fill="#EA3E72" /><path d="M358.52 306.215C358.499 306.215 358.478 306.212 358.458 306.202C358.38 306.168 358.343 306.077 358.379 305.999C358.599 305.493 359.771 304.24 359.821 304.186C359.88 304.127 359.977 304.121 360.04 304.18C360.102 304.238 360.106 304.336 360.047 304.399C359.717 304.749 358.828 305.743 358.662 306.122C358.636 306.181 358.579 306.215 358.52 306.215Z" fill="#2A2B3C" /><path d="M358.178 309.662C358.162 309.662 358.146 309.66 358.129 309.654C358.048 309.628 358.004 309.54 358.032 309.46C358.041 309.432 358.951 306.745 360.902 304.751C360.963 304.692 361.06 304.688 361.121 304.75C361.182 304.809 361.183 304.907 361.122 304.969C359.223 306.909 358.334 309.531 358.324 309.557C358.304 309.622 358.244 309.662 358.178 309.662Z" fill="#2A2B3C" /><path d="M359.301 309.721C359.281 309.721 359.263 309.717 359.244 309.71C359.165 309.679 359.126 309.588 359.158 309.51C359.202 309.396 360.271 306.737 361.715 305.61C361.784 305.558 361.879 305.571 361.933 305.636C361.984 305.704 361.972 305.801 361.907 305.854C360.527 306.929 359.457 309.596 359.446 309.624C359.42 309.684 359.362 309.721 359.301 309.721Z" fill="#2A2B3C" /><path d="M376.034 254.042C372.043 255.653 375.268 280.607 381.589 290.355C387.909 300.103 401.769 298.044 401.794 294.619C401.819 291.195 384.232 250.733 376.034 254.042Z" fill="#4093F6" /><path d="M364.35 298.885C364.35 291.142 384.116 290.198 390.07 287.699C396.025 285.201 402.441 293.498 401.444 295.413C400.446 297.328 373.096 312.54 368.54 306.061C368.54 306.061 364.864 303.515 364.35 298.885Z" fill="#4093F6" /><path d="M389.12 266.693C389.12 266.693 395.942 286.537 395.324 292.104C394.705 297.671 378.809 306.753 378.809 306.753C378.809 306.753 386.408 305.496 393.422 301.76C396.807 299.956 402.037 295.844 401.795 294.621C401.552 293.397 398.69 282.364 389.12 266.693Z" fill="#2483E2" /><path d="M368.379 240.101C368.379 240.101 367.149 246.777 362.921 246.86C358.694 246.939 361.449 237.73 362.086 237.484C362.724 237.237 366.856 236.387 368.379 240.101Z" fill="#E93E72" /><path d="M363.441 235.238C362.25 235.235 361.155 235.386 360.363 236.189C359.492 237.071 359.325 238.918 359.74 240.325C359.935 240.322 360.138 240.314 360.341 240.308C360.444 239.807 360.457 239.289 360.473 238.775C360.499 237.98 360.843 239.858 360.784 240.276C361.311 240.223 362.651 240.09 363.138 239.939C363.977 239.68 364.694 239.049 365.469 238.582C365.54 239.047 365.641 239.51 365.787 239.977C366.044 240.795 366.34 242.171 367.116 242.684C368.679 243.72 369.763 241.475 369.857 240.251C370.131 236.694 366.531 234.271 363.441 235.238Z" fill="#2A2B3C" /><path d="M366.184 241.295C366.184 241.295 366.84 240.07 368.006 240.259C369.173 240.447 369.411 243.233 367.429 243.453C365.449 243.672 366.184 241.295 366.184 241.295Z" fill="#E93E72" /><path d="M387.765 251.049C386.505 250.303 386.387 249.221 386.235 247.851C386.199 247.516 386.158 247.16 386.101 246.783C385.952 245.83 385.137 245.529 384.347 245.24C383.65 244.983 382.99 244.741 382.977 244.044C382.951 242.671 381.96 240.981 380.451 239.741C379.476 238.942 379.427 238.801 379.328 238.191C379.261 237.778 379.161 237.154 378.625 235.843C377.403 232.863 374.284 233.564 374.255 233.572L374.182 233.27C374.22 233.264 377.592 232.503 378.91 235.727C379.46 237.07 379.569 237.742 379.633 238.142C379.719 238.67 379.732 238.75 380.647 239.502C382.223 240.798 383.258 242.577 383.287 244.039C383.295 244.499 383.736 244.685 384.454 244.949C385.246 245.24 386.231 245.602 386.405 246.733C386.466 247.117 386.505 247.478 386.543 247.816C386.69 249.15 386.796 250.115 387.922 250.782L387.765 251.049Z" fill="#2A2B3C" /><path d="M385.823 250.157C385.722 249.941 385.639 249.711 385.602 249.437C385.662 248.458 385.617 247.466 384.982 246.654C384.692 246.282 384.321 246.123 383.985 245.838C383.059 245.049 381.929 245.343 382.065 243.167C382.01 242.503 381.911 242.04 381.283 241.443C379.907 240.136 378.752 240.095 378.456 237.834C378.378 237.248 378.413 236.616 378.258 236.037C377.91 234.725 377.245 233.841 375.98 233.306C373.168 232.119 369.487 233.253 367.643 235.544C367.58 235.622 367.54 235.705 367.518 235.787C367.372 236.061 367.397 236.441 367.741 236.645C368.972 237.378 370.539 238.149 371.561 239.145C372.99 240.54 372.792 242.169 372.39 243.913C372.077 245.265 372.095 246.492 372.949 247.644C373.279 248.089 373.75 248.311 374.101 248.72C375.506 250.371 375.047 250.842 374.472 252.635C374.135 253.686 373.966 254.879 374.432 255.925C374.641 256.394 374.937 256.727 375.284 256.975C375.609 257.349 376.04 257.661 376.638 257.875C379.112 258.762 382.822 258.606 385.302 257.896C387.032 257.401 388.988 256.281 388.874 254.212C388.782 252.533 387.092 251.401 385.823 250.157Z" fill="#2A2B3C" /><defs><linearGradient id="paint0_linear_436_612" x1="453.15" y1="373.919" x2="453.15" y2="212.689" gradientUnits="userSpaceOnUse"><stop stop-color="white" stop-opacity="0" /><stop offset="1" stop-color="#F8CB3D" /></linearGradient></defs></svg> 